<svg xmlns="http://www.w3.org/2000/svg" version="1.1" viewBox="-5.0 -10.0 110.0 135.0">
 <path d="m87.383 79.062c-0.78516-3.0391-2.8477-5.6211-5.6211-7.0977-0.64453-4.9922-4.4727-8.8906-9.3945-9.6445-0.83984-5.3789-5.5039-9.5078-11.113-9.5078-0.50781 0-1.0234 0.039062-1.5586 0.12891-1.9062-2.5-4.7305-4.1562-7.8125-4.6484v-5.8672c0-2.0312 0.74609-3.9297 2.043-5.4258 2.3633 1.4336 5.7695 2.8828 9.9023 2.8828 0.34766 0 0.69922-0.011718 1.0547-0.03125 4.9453-0.29687 8.4609-2.6055 9.6133-3.3633 1.8828-1.2383 2.9023-2.3516 4.3125-3.8906 1.0195-1.1133 2.2852-2.4961 4.3359-4.4258 1.293-1.2148 2.4492-2.2266 3.3633-2.9961 0.66797-0.5625 1.0273-1.3867 0.99609-2.2617-0.035156-0.86719-0.45703-1.6562-1.1602-2.1641-7.3086-5.2578-16.746-5.9688-24.051-1.8125-7.3867 4.1992-9.6953 11.641-10.348 14.645-0.007812 0.03125 0 0.058594-0.007812 0.089844-0.73828 0.70703-1.3906 1.4883-1.9297 2.3438-0.53906-0.85547-1.1953-1.6367-1.9375-2.3438-0.007812-0.03125 0-0.058594-0.007812-0.089844-0.65234-3.0039-2.9648-10.445-10.348-14.645-7.3008-4.1523-16.742-3.4414-24.051 1.8125-0.70312 0.50781-1.125 1.2969-1.1602 2.1641-0.03125 0.87109 0.32812 1.6953 0.99609 2.2617 0.91406 0.76953 2.0703 1.7812 3.3633 2.9961 2.0508 1.9258 3.3164 3.3125 4.3359 4.4258 1.4102 1.5391 2.4297 2.6523 4.3125 3.8906 1.1562 0.75781 4.668 3.0703 9.6133 3.3633 0.35547 0.023438 0.71094 0.03125 1.0547 0.03125 4.1328 0 7.5391-1.4492 9.9023-2.8828 1.3008 1.4922 2.0469 3.3984 2.0469 5.4258v5.8672c-3.0859 0.48828-5.9102 2.1484-7.8164 4.6484-0.53906-0.085937-1.0508-0.12891-1.5586-0.12891-5.6094 0-10.273 4.1289-11.113 9.5078-4.9219 0.75391-8.7539 4.6484-9.3945 9.6445-2.7734 1.4766-4.8398 4.0586-5.6211 7.0977-0.28906 1.1289-0.046875 2.3047 0.67188 3.2305s1.8008 1.457 2.9727 1.457h67.477c1.1719 0 2.2539-0.53125 2.9727-1.457 0.71484-0.92578 0.96094-2.1016 0.67188-3.2305zm-23.242-56.867c5.7109-3.2461 13.047-2.8633 19.004 0.91797-0.85938 0.74609-1.7227 1.5234-2.5703 2.3242-2.1523 2.0234-3.4727 3.4648-4.5352 4.6211-1.3164 1.4414-2.1133 2.3086-3.6055 3.2891-0.94531 0.62109-3.832 2.5195-7.7773 2.7539-2.9414 0.17969-5.4805-0.60937-7.4453-1.5781 4.0039-2.4297 8.2305-4.4961 12.594-6.1094l0.41406-0.14844c0.61719-0.22656 1.2383-0.42969 1.8359-0.63672 0.97656-0.32031 1.5195-1.3672 1.1992-2.3633-0.32031-0.97656-1.3672-1.5195-2.3633-1.1992-0.63672 0.20703-1.2734 0.42969-1.9492 0.67578l-0.41016 0.14844c-3.9844 1.4648-7.8516 3.2695-11.539 5.3789 1.2344-2.7305 3.3789-5.9297 7.1523-8.0781zm-28.793 13.91c-3.9453-0.23438-6.8281-2.1328-7.7773-2.7539-1.4922-0.98047-2.2852-1.8516-3.6055-3.2891-1.0586-1.1562-2.3789-2.6016-4.5352-4.6211-0.85156-0.80078-1.7109-1.5781-2.5703-2.3242 5.957-3.7812 13.293-4.1641 19.004-0.91797 3.7812 2.1484 5.9297 5.3594 7.1602 8.0898-3.6914-2.1133-7.5586-3.9297-11.551-5.3945l-0.40625-0.14453c-0.66406-0.23828-1.3125-0.46875-1.9492-0.67578-0.98438-0.32031-2.043 0.21875-2.3633 1.2031-0.32031 0.98438 0.21875 2.043 1.2031 2.3633 0.60156 0.19531 1.2148 0.41406 1.8438 0.64062l0.39844 0.14062c4.375 1.6055 8.5977 3.6758 12.602 6.1094-1.9688 0.96875-4.5078 1.7617-7.4492 1.5781zm-19.094 43.891c0.58594-2.2734 2.2578-4.1641 4.4727-5.0586 0.69141-0.28125 1.1523-0.94531 1.1758-1.6914 0.10547-4.0977 3.3906-7.3086 7.4766-7.3086 1.0352 0 1.875-0.83984 1.875-1.875 0-4.1367 3.3633-7.5 7.5-7.5 0.57422 0 1.1836 0.09375 1.918 0.28516 0.80469 0.21875 1.6641-0.13281 2.0898-0.85156 1.543-2.582 4.25-4.125 7.2383-4.125s5.6953 1.543 7.2383 4.125c0.42969 0.71875 1.2852 1.0664 2.0898 0.85156 0.73438-0.19531 1.3477-0.28516 1.918-0.28516 4.1367 0 7.5 3.3633 7.5 7.5 0 1.0352 0.83984 1.875 1.875 1.875 4.0859 0 7.3711 3.2109 7.4766 7.3086 0.019532 0.74609 0.48047 1.4102 1.1758 1.6914 2.2148 0.89453 3.8906 2.7812 4.4688 5.0625l-67.492-0.003906z"/>
</svg>