<svg xml:space="preserve" viewBox="483.84000000000003 481.68 125.28 120.96000000000001" version="1.1" xmlns:xlink="http://www.w3.org/1999/xlink" xmlns="http://www.w3.org/2000/svg" style="max-height: 500px" width="125.28" height="120.96000000000001">
<desc>Created with Fabric.js 5.2.4</desc>
<defs>
</defs>
<g id="8f9f55f1-5909-4ea9-8c79-be21ac41ab6b" transform="matrix(1 0 0 1 540 540)">
<rect height="1080" width="1080" ry="0" rx="0" y="-540" x="-540" style="stroke: none; stroke-width: 1; stroke-dasharray: none; stroke-linecap: butt; stroke-dashoffset: 0; stroke-linejoin: miter; stroke-miterlimit: 4; fill: rgb(255,255,255); fill-rule: nonzero; opacity: 1; visibility: hidden;"/>
</g>
<g id="8a91890e-0f4c-4bc0-a785-0507ca70658b" transform="matrix(1 0 0 1 540 540)">
</g>
<g id="c6c77b49-a483-4320-91dc-6d6c73dd8b84" transform="matrix(1 0 0 1 540 540)">
<path stroke-linecap="round" d="M 87.383 79.062 C 86.59783999999999 76.02289999999999 84.53529999999999 73.4409 81.7619 71.9643 C 81.11737 66.9721 77.2892 63.073699999999995 72.3674 62.319799999999994 C 71.52756000000001 56.94089999999999 66.8635 52.812 61.254400000000004 52.812 C 60.746590000000005 52.812 60.231 52.851062 59.695800000000006 52.940909999999995 C 57.78960000000001 50.440909999999995 54.965300000000006 48.78471 51.883300000000006 48.29250999999999 L 51.883300000000006 42.425309999999996 C 51.883300000000006 40.39411 52.62939000000001 38.49561 53.926300000000005 36.999509999999994 C 56.28960000000001 38.43310999999999 59.695800000000006 39.88231 63.82860000000001 39.88231 C 64.17626000000001 39.88231 64.52782 39.870591999999995 64.8833 39.85106 C 69.82860000000001 39.55419 73.3442 37.24556 74.4966 36.487759999999994 C 76.3794 35.24945999999999 77.3989 34.13616 78.8091 32.597159999999995 C 79.8286 31.483859999999996 81.0943 30.101059999999997 83.145 28.171359999999996 C 84.438 26.956559999999996 85.5942 25.944759999999995 86.50829999999999 25.175259999999994 C 87.17626999999999 24.612759999999994 87.53559999999999 23.788559999999993 87.50438999999999 22.913559999999993 C 87.46923399999999 22.046369999999992 87.04735999999998 21.257359999999995 86.34418999999998 20.749459999999992 C 79.03558999999998 15.491659999999992 69.59818999999999 14.780659999999992 62.29318999999998 18.936959999999992 C 54.906489999999984 23.136159999999993 52.59788999999998 30.57795999999999 51.94518999999998 33.581959999999995 C 51.93737799999998 33.613209999999995 51.94518999999998 33.640553999999995 51.93737799999998 33.671803999999995 C 51.19909799999998 34.378834 50.54677799999998 35.160104 50.007677999999984 36.015603999999996 C 49.468617999999985 35.160134 48.81237799999998 34.378904 48.070177999999984 33.671803999999995 C 48.06236599999998 33.640553999999995 48.070177999999984 33.613209999999995 48.06236599999998 33.581959999999995 C 47.41002599999998 30.578059999999994 45.097565999999986 23.136959999999995 37.714365999999984 18.936959999999996 C 30.413565999999985 14.784659999999995 20.972365999999983 15.495559999999996 13.663365999999986 20.749459999999996 C 12.960245999999986 21.257269999999995 12.538365999999986 22.046359999999996 12.503165999999986 22.913559999999997 C 12.471915999999986 23.784649999999996 12.831285999999986 24.608859999999996 13.499255999999987 25.175259999999998 C 14.413315999999986 25.944789999999998 15.569555999999986 26.956459999999996 16.862555999999987 28.17136 C 18.913355999999986 30.09716 20.178955999999985 31.48386 21.198455999999986 32.59716 C 22.608655999999986 34.13626 23.628155999999986 35.24946 25.510955999999986 36.48776 C 26.667155999999984 37.24557 30.178955999999985 39.558060000000005 35.12425599999999 39.851060000000004 C 35.479725999999985 39.874498 35.83519599999999 39.882310000000004 36.178955999999985 39.882310000000004 C 40.31175599999999 39.882310000000004 43.71805599999998 38.433110000000006 46.08125599999998 36.99951 C 47.382055999999984 38.49171 48.12815599999998 40.39791 48.12815599999998 42.42531 L 48.12815599999998 48.29251000000001 C 45.04225599999998 48.78079000000001 42.21795599999999 50.44091000000001 40.31175599999998 52.94091000000001 C 39.77269599999998 52.85497300000001 39.26095599999998 52.81200000000001 38.75315599999998 52.81200000000001 C 33.14375599999998 52.81200000000001 28.480155999999983 56.94090000000001 27.640155999999983 62.319800000000015 C 22.718255999999982 63.07371000000001 18.88625599999998 66.96820000000001 18.245655999999983 71.96430000000001 C 15.472255999999982 73.44090000000001 13.405855999999982 76.0229 12.624555999999982 79.06200000000001 C 12.335495999999983 80.19090000000001 12.577680999999982 81.36670000000001 13.296435999999982 82.29250000000002 C 14.015190999999982 83.21830000000003 15.097235999999983 83.74950000000001 16.269135999999982 83.74950000000001 L 83.74613599999998 83.74950000000001 C 84.91803599999997 83.74950000000001 86.00003599999998 83.21825000000001 86.71883599999998 82.29250000000002 C 87.43367599999998 81.36672000000002 87.67977599999998 80.19090000000001 87.39071599999998 79.06200000000001 z M 64.14099999999999 22.195 C 69.85189999999999 18.948900000000002 77.18799999999999 19.3317 83.145 23.11297 C 82.28562 23.85906 81.42229999999999 24.63637 80.57469999999999 25.437170000000002 C 78.4224 27.46057 77.10199999999999 28.901970000000002 76.03949999999999 30.05827 C 74.72309999999999 31.499670000000002 73.9262 32.36687 72.43399999999998 33.34737 C 71.48868999999998 33.96846 68.60199999999999 35.86687 64.65669999999999 36.10127 C 61.715299999999985 36.28096 59.17619999999999 35.4919 57.21139999999998 34.52317 C 61.215299999999985 32.09347 65.44189999999998 30.027070000000002 69.80539999999998 28.41377 L 70.21945999999998 28.26533 C 70.83664999999998 28.03877 71.45775999999998 27.835639999999998 72.05535999999998 27.62861 C 73.03191999999999 27.3083 73.57485999999997 26.261409999999998 73.25455999999998 25.26531 C 72.93424999999998 24.28875 71.88735999999999 23.74581 70.89125999999999 24.06611 C 70.25453999999999 24.273139999999998 69.61786 24.4958 68.94205999999998 24.741889999999998 L 68.53189999999998 24.89033 C 64.54749999999999 26.35513 60.68029999999998 28.15983 56.99289999999998 30.26923 C 58.22729999999998 27.53873 60.37179999999998 24.33953 64.14519999999997 22.19113 z M 35.34799999999999 36.105000000000004 C 31.402699999999992 35.87062 28.519899999999993 33.9722 27.57069999999999 33.3511 C 26.07849999999999 32.370630000000006 25.285499999999992 31.4995 23.965199999999992 30.062 C 22.906599999999994 28.905800000000003 21.586299999999994 27.4604 19.429999999999993 25.4409 C 18.578439999999993 24.64012 17.719099999999994 23.8628 16.859699999999993 23.116699999999998 C 22.816699999999994 19.335499999999996 30.152699999999992 18.952599999999997 35.863699999999994 22.198729999999998 C 39.64489999999999 24.347129999999996 41.79339999999999 27.55813 43.0239 30.288529999999998 C 39.332499999999996 28.17523 35.4653 26.358829999999998 31.472899999999996 24.894029999999997 L 31.066649999999996 24.749499999999998 C 30.402589999999996 24.511219999999998 29.754149999999996 24.280749999999998 29.117449999999995 24.073719999999998 C 28.133069999999993 23.75341 27.074449999999995 24.292469999999998 26.754149999999996 25.276819999999997 C 26.433839999999996 26.2612 26.972899999999996 27.319819999999996 27.957249999999995 27.640119999999996 C 28.558809999999994 27.835429999999995 29.172049999999995 28.054179999999995 29.801049999999996 28.280739999999994 L 30.199489999999997 28.421359999999993 C 34.57449 30.026859999999992 38.79719 32.097159999999995 42.80149 34.530759999999994 C 40.83269 35.499509999999994 38.29369 36.29245999999999 35.35229 36.10885999999999 z M 16.25399999999999 79.99600000000001 C 16.83993999999999 77.72260000000001 18.51179999999999 75.8319 20.72669999999999 74.93740000000001 C 21.41810999999999 74.65615000000001 21.87899999999999 73.99209 21.90249999999999 73.24600000000001 C 22.00796999999999 69.1483 25.29309999999999 65.93740000000001 29.37909999999999 65.93740000000001 C 30.41429999999999 65.93740000000001 31.25409999999999 65.09756000000002 31.25409999999999 64.06240000000001 C 31.25409999999999 59.92570000000001 34.61739999999999 56.56240000000001 38.754099999999994 56.56240000000001 C 39.32831999999999 56.56240000000001 39.93769999999999 56.65615000000001 40.67209999999999 56.84756000000001 C 41.476789999999994 57.06631000000001 42.33619999999999 56.71475000000001 42.76189999999999 55.99600000000001 C 44.30489999999999 53.41400000000001 47.01189999999999 51.87100000000001 50.00019999999999 51.87100000000001 C 52.988499999999995 51.87100000000001 55.695499999999996 53.41400000000001 57.238499999999995 55.99600000000001 C 57.668189999999996 56.71475000000001 58.5237 57.06240000000001 59.32829999999999 56.84756000000001 C 60.06267999999999 56.65225000000001 60.675999999999995 56.56240000000001 61.24629999999999 56.56240000000001 C 65.383 56.56240000000001 68.74629999999999 59.92570000000001 68.74629999999999 64.06240000000001 C 68.74629999999999 65.09760000000001 69.58613999999999 65.93740000000001 70.62129999999999 65.93740000000001 C 74.70719999999999 65.93740000000001 77.99239999999999 69.1483 78.0979 73.24600000000001 C 78.117432 73.99209 78.57836999999999 74.65620000000001 79.27369999999999 74.93740000000001 C 81.48849999999999 75.83193000000001 83.1643 77.71860000000001 83.74249999999999 79.99990000000001 L 16.250499999999988 79.99599400000001 z" transform="translate(-50.01, -50)" style="stroke: rgb(0,0,0); stroke-width: 0; stroke-dasharray: none; stroke-linecap: butt; stroke-dashoffset: 0; stroke-linejoin: miter; stroke-miterlimit: 4; fill: rgb(255,255,255); fill-rule: nonzero; opacity: 1;"/>
</g>
</svg>