<svg xml:space="preserve" style="max-height: 500px" viewBox="253 57 242 169" y="0px" x="0px" xmlns:xlink="http://www.w3.org/1999/xlink" xmlns="http://www.w3.org/2000/svg" version="1.1" width="242" height="169">

<g id="OBJECTS">

	<g>
		<g>
			<path d="M428.779,67.834c-6.121,0.667-10.047,1.667-16.047,4.552c-6,2.885-10.5,3.115-19,6.781&#10;&#9;&#9;&#9;&#9;s-15,7.667-20.5,16.167c-0.174,0.27-0.321,0.521-0.481,0.78c-0.792,1.473,0.8,2.561,2.564,4.887&#10;&#9;&#9;&#9;&#9;c1.833,2.417,7.75,8.583,7.583,8.916c-0.166,0.333-9.249-4.5-11.173-5.416s-2.218,0.055-2.243,1.25l-0.041-0.069&#10;&#9;&#9;&#9;&#9;c-0.066,2.941,0.715,5.824,1.458,9.753c1.5,7.934,2.833,10.232,4.667,15.399c1.833,5.167,3.499,12.627,1.954,19.231&#10;&#9;&#9;&#9;&#9;c4.455-10.936,12.129-33.481,17.296-43.647c5.167-10.166,16.251-15.833,25.417-21c9.166-5.167,35.342-14.699,35.342-14.699&#10;&#9;&#9;&#9;&#9;C452.416,70.437,434.898,67.167,428.779,67.834z" style="fill:#6BB551;"/>
			<path d="M375.724,91.881c0.071-0.089,0.143-0.176,0.214-0.264c0.217,0.32,0.428,0.652,0.627,1&#10;&#9;&#9;&#9;&#9;c0.371,0.662,0.83,1.291,1.272,1.951c0.45,0.655,0.855,1.36,1.298,2.058c0.862,1.41,1.857,2.795,2.816,4.247&#10;&#9;&#9;&#9;&#9;c1.033,1.36,1.813,3.007,3.282,4.043c0.349,0.271,0.636,0.601,0.936,0.919c0.316,0.302,0.624,0.615,0.949,0.907&#10;&#9;&#9;&#9;&#9;c0.632,0.607,1.42,1.022,2.08,1.578c0.66,0.556,1.256,1.192,1.918,1.727c0.497,0.383,0.984,0.758,1.473,1.134&#10;&#9;&#9;&#9;&#9;c-0.018,0.04-0.036,0.081-0.055,0.122c-1.143-0.901-2.377-1.748-3.549-2.715c-0.688-0.528-1.418-1.021-2.053-1.633&#10;&#9;&#9;&#9;&#9;c-0.646-0.601-1.262-1.232-1.875-1.867c-1.262-1.237-2.33-2.655-3.27-4.117c-0.943-1.451-1.836-2.909-2.754-4.281&#10;&#9;&#9;&#9;&#9;C377.904,94.972,376.781,93.375,375.724,91.881z M383.697,129.873c-0.635-0.348-1.352-0.548-1.991-0.907&#10;&#9;&#9;&#9;&#9;c-0.641-0.354-1.257-0.768-1.958-1.016c-1.451-0.382-2.615-1.358-3.978-1.868c-0.787-0.375-1.578-0.706-2.359-1.038&#10;&#9;&#9;&#9;&#9;c0.02,0.055,0.04,0.108,0.059,0.162c2.02,0.931,4.087,1.962,6.169,2.964c0.664,0.317,1.313,0.662,1.938,1.048&#10;&#9;&#9;&#9;&#9;c0.639,0.358,1.313,0.646,1.964,0.961c0.424,0.233,0.851,0.442,1.278,0.656c0.024-0.066,0.049-0.133,0.074-0.199&#10;&#9;&#9;&#9;&#9;C384.502,130.372,384.113,130.1,383.697,129.873z M421.617,81.31c0.01-0.63,0.175-1.269,0.176-1.911&#10;&#9;&#9;&#9;&#9;c-0.001-0.645-0.197-1.287-0.182-1.938c-0.012-0.65,0.073-1.309-0.02-1.958c-0.381-1.283-0.137-2.611-0.383-3.883&#10;&#9;&#9;&#9;&#9;c-0.079-0.809-0.21-1.602-0.324-2.385c-0.037,0.01-0.074,0.018-0.11,0.027c0.092,0.782,0.178,1.572,0.247,2.378&#10;&#9;&#9;&#9;&#9;c0.104,1.278,0.246,2.575,0.318,3.876c0.027,0.65,0.009,1.305-0.012,1.954c0,0.648,0.077,1.293,0.122,1.934&#10;&#9;&#9;&#9;&#9;c0.015,0.642-0.001,1.278,0.022,1.907c0.037,0.629,0.021,1.251,0.003,1.862c-0.013,0.541-0.025,1.07-0.038,1.594&#10;&#9;&#9;&#9;&#9;c0.063-0.032,0.127-0.065,0.19-0.099c-0.009-0.491-0.024-0.989-0.014-1.496C421.614,82.561,421.616,81.939,421.617,81.31z&#10;&#9;&#9;&#9;&#9; M401.816,78.278c0.416,1.333,0.655,2.771,1.227,4.124c0.5,1.375,1.009,2.781,1.576,4.154c0.283,0.688,0.523,1.393,0.76,2.094&#10;&#9;&#9;&#9;&#9;c0.23,0.703,0.521,1.383,0.785,2.065c0.29,0.878,0.615,1.733,0.914,2.584c0.037-0.026,0.074-0.053,0.111-0.079&#10;&#9;&#9;&#9;&#9;c-0.055-0.167-0.107-0.33-0.163-0.499c-0.218-0.684-0.309-1.422-0.538-2.12c-0.229-0.697-0.613-1.345-0.844-2.05&#10;&#9;&#9;&#9;&#9;c-0.271-0.691-0.441-1.427-0.798-2.088c-0.84-1.271-0.998-2.795-1.626-4.127c-0.276-0.679-0.549-1.353-0.726-2.046&#10;&#9;&#9;&#9;&#9;c-0.204-0.686-0.409-1.363-0.571-2.041c-0.182-0.652-0.309-1.309-0.433-1.951c-0.059,0.02-0.118,0.038-0.178,0.057&#10;&#9;&#9;&#9;&#9;C401.457,76.988,401.616,77.632,401.816,78.278z M385.707,84.215c0.807,1.133,1.756,2.257,2.733,3.416&#10;&#9;&#9;&#9;&#9;c0.978,1.16,1.938,2.397,2.941,3.635c0.996,1.241,2.009,2.504,3.021,3.766c0.511,0.626,0.987,1.28,1.461,1.933&#10;&#9;&#9;&#9;&#9;c0.488,0.641,1.035,1.23,1.553,1.836c0.461,0.596,0.941,1.168,1.416,1.735c0.034-0.039,0.069-0.078,0.103-0.118&#10;&#9;&#9;&#9;&#9;c-0.434-0.587-0.793-1.245-1.251-1.831c-0.488-0.629-1.112-1.157-1.601-1.798c-0.5-0.632-0.918-1.334-1.49-1.911&#10;&#9;&#9;&#9;&#9;c-1.239-1.081-1.961-2.573-3.064-3.729c-1.014-1.227-2.066-2.393-3-3.587c-0.466-0.599-0.924-1.187-1.371-1.763&#10;&#9;&#9;&#9;&#9;c-0.45-0.575-0.889-1.133-1.244-1.738c-0.152-0.242-0.309-0.475-0.465-0.705c-0.091,0.057-0.184,0.109-0.273,0.166&#10;&#9;&#9;&#9;&#9;C385.348,83.754,385.521,83.985,385.707,84.215z M432.103,76.28c0.008-0.671,0.113-1.343,0.041-2.017&#10;&#9;&#9;&#9;&#9;c-0.305-1.35,0.072-2.692-0.056-4.019c-0.013-0.835-0.046-1.661-0.054-2.474c-0.037-0.002-0.074-0.003-0.111-0.004&#10;&#9;&#9;&#9;&#9;c-0.014,0.815-0.025,1.639-0.023,2.477c-0.003,1.325-0.006,2.671-0.008,4.017c0.007,0.673-0.031,1.346-0.072,2.015&#10;&#9;&#9;&#9;&#9;c-0.02,0.67,0.037,1.338,0.063,2.001c-0.002,0.573-0.005,1.14-0.007,1.703c0.059-0.025,0.118-0.05,0.177-0.075&#10;&#9;&#9;&#9;&#9;c0.061-0.535,0.167-1.074,0.174-1.619C432.244,77.622,432.068,76.95,432.103,76.28z M387.994,121.032&#10;&#9;&#9;&#9;&#9;c-0.734-0.374-1.441-0.856-2.166-1.259c-0.732-0.419-1.55-0.692-2.287-1.124c-0.746-0.418-1.442-0.933-2.232-1.272&#10;&#9;&#9;&#9;&#9;c-1.643-0.566-2.949-1.745-4.525-2.391c-1.516-0.754-3.047-1.398-4.469-2.15c-0.743-0.407-1.475-0.805-2.176-1.217&#10;&#9;&#9;&#9;&#9;c0.016,0.08,0.033,0.164,0.049,0.246c0.671,0.365,1.371,0.709,2.076,1.07c1.447,0.703,2.93,1.454,4.432,2.218&#10;&#9;&#9;&#9;&#9;c1.505,0.761,2.994,1.618,4.498,2.441c0.754,0.408,1.486,0.857,2.215,1.306c0.738,0.432,1.51,0.792,2.26,1.179&#10;&#9;&#9;&#9;&#9;c0.91,0.48,1.838,0.889,2.747,1.304c0.017-0.042,0.032-0.083,0.048-0.124C388.306,121.182,388.152,121.108,387.994,121.032z&#10;&#9;&#9;&#9;&#9; M443.302,74.084c0.102-0.543,0.299-1.068,0.321-1.63c-0.113-1.153,0.455-2.171,0.501-3.274c0.007-0.047,0.013-0.092,0.021-0.139&#10;&#9;&#9;&#9;&#9;c-0.06-0.009-0.121-0.018-0.182-0.025c-0.008,0.043-0.017,0.086-0.024,0.129c-0.186,1.075-0.374,2.168-0.561,3.261&#10;&#9;&#9;&#9;&#9;c-0.088,0.548-0.22,1.086-0.353,1.622c-0.106,0.503-0.146,1.018-0.206,1.523c0.123-0.048,0.243-0.095,0.366-0.143&#10;&#9;&#9;&#9;&#9;C443.225,74.97,443.199,74.514,443.302,74.084z M413.729,85.188c-0.095-0.729-0.358-1.442-0.448-2.183&#10;&#9;&#9;&#9;&#9;c-0.104-0.737-0.101-1.492-0.295-2.221c-0.508-1.439-0.359-2.969-0.711-4.406c-0.213-1.195-0.397-2.371-0.548-3.53&#10;&#9;&#9;&#9;&#9;c-0.036,0.017-0.073,0.034-0.11,0.051c0.15,1.147,0.272,2.319,0.471,3.505c0.217,1.456,0.435,2.936,0.655,4.414&#10;&#9;&#9;&#9;&#9;c0.116,0.738,0.188,1.483,0.258,2.226c0.089,0.739,0.255,1.466,0.388,2.19c0.164,1.27,0.418,2.506,0.578,3.725&#10;&#9;&#9;&#9;&#9;c0.04-0.023,0.08-0.047,0.12-0.069c-0.072-0.501-0.145-1.002-0.218-1.513C413.775,86.662,413.827,85.918,413.729,85.188z" style="opacity:0.2;fill:#3D853C;"/>
			<path d="M458.732,71.001c-1.166-0.167-13.334-1.167-19.167-0.667c-4.533,0.389-8.755,0.348-12.214,1.142&#10;&#9;&#9;&#9;&#9;c-0.293,0.102-1.065,0.438-1.036,1.18c0.035,0.911,2.5,6.846,2.464,7.429c-0.037,0.583-3.547-5.25-4.297-6.693&#10;&#9;&#9;&#9;&#9;c-0.209-0.402-0.389-0.605-0.555-0.688c-4.031,2.082-11.576,7.551-18.529,9.131c-6.762,1.537-11.254,4.208-15.049,6.967&#10;&#9;&#9;&#9;&#9;c-0.684,0.49-0.935,0.734-0.201,2.367c0.75,1.667,5.25,9.75,5.75,11.166s-6.916-7.333-8-8.5&#10;&#9;&#9;&#9;&#9;c-1.078-1.162-1.452-1.878-2.338-1.024c-3.029,3.075-5.861,7.444-6.328,13.857c-0.667,9.167,2.5,24.5,0.833,32.5&#10;&#9;&#9;&#9;&#9;c-1.667,8-9.75,34.334-8.34,75.833h5.34c0,0-2-61.5,10-86s22.923-34.5,36.128-40.833c13.205-6.333,14.872-8.499,21.705-10.666&#10;&#9;&#9;&#9;&#9;C451.732,75.334,459.898,71.168,458.732,71.001z" style="fill:#3D853C;"/>
			<g style="opacity:0.3;">
				<path d="M396.629,85.133c0.189,0.511,0.379,1.03,0.573,1.556c0.189,0.529,0.228,1.11,0.4,1.658&#10;&#9;&#9;&#9;&#9;&#9;c0.17,0.546,0.525,1.033,0.681,1.592c0.182,0.55,0.271,1.134,0.529,1.659c0.671,0.997,0.685,2.223,1.193,3.256&#10;&#9;&#9;&#9;&#9;&#9;c0.365,1.082,0.765,2.135,1.063,3.183c0.146,0.525,0.289,1.041,0.43,1.546c0.132,0.508,0.298,0.993,0.369,1.492&#10;&#9;&#9;&#9;&#9;&#9;c0.125,0.996,0.552,1.866,0.879,2.677c0.02,0.047,0.037,0.089,0.057,0.135c0.053-0.061,0.106-0.122,0.159-0.184&#10;&#9;&#9;&#9;&#9;&#9;c-0.002-0.006-0.005-0.011-0.007-0.017c-0.26-0.831-0.542-1.731-0.84-2.683c-0.166-0.473-0.271-0.977-0.436-1.475&#10;&#9;&#9;&#9;&#9;&#9;c-0.165-0.498-0.333-1.008-0.504-1.525c-0.352-1.031-0.641-2.121-0.992-3.21c-0.373-1.081-0.753-2.179-1.133-3.277&#10;&#9;&#9;&#9;&#9;&#9;c-0.195-0.547-0.35-1.108-0.5-1.669c-0.17-0.554-0.413-1.079-0.623-1.611c-0.334-1.096-0.855-2.106-1.17-3.151&#10;&#9;&#9;&#9;&#9;&#9;c-0.021-0.063-0.044-0.124-0.065-0.188c-0.045,0.022-0.085,0.046-0.13,0.068C396.584,85.021,396.609,85.074,396.629,85.133z" style="fill:#6BB551;"/>
				<path d="M380.23,107.8c0.397,0.221,0.738,0.585,1.148,0.849c0.397,0.288,0.941,0.348,1.379,0.614&#10;&#9;&#9;&#9;&#9;&#9;c0.444,0.257,0.908,0.501,1.359,0.783c0.457,0.273,0.922,0.552,1.392,0.833c0.466,0.29,0.862,0.711,1.339,1.004&#10;&#9;&#9;&#9;&#9;&#9;c0.471,0.302,1.039,0.445,1.504,0.77c0.48,0.301,0.912,0.688,1.434,0.92c1.125,0.323,1.901,1.25,2.928,1.707&#10;&#9;&#9;&#9;&#9;&#9;c0.473,0.254,0.92,0.535,1.402,0.76c0.023-0.038,0.047-0.076,0.07-0.113c-0.463-0.254-0.923-0.522-1.378-0.811&#10;&#9;&#9;&#9;&#9;&#9;c-0.955-0.58-1.926-1.171-2.896-1.762c-0.489-0.289-0.955-0.617-1.418-0.946c-0.474-0.311-0.982-0.557-1.475-0.821&#10;&#9;&#9;&#9;&#9;&#9;c-0.949-0.594-1.948-1.063-2.834-1.658c-0.45-0.285-0.892-0.564-1.326-0.839c-0.43-0.282-0.828-0.593-1.262-0.819&#10;&#9;&#9;&#9;&#9;&#9;c-0.883-0.364-1.664-0.801-2.383-1.211c-0.004,0.058-0.006,0.118-0.009,0.176C379.543,107.406,379.879,107.602,380.23,107.8z" style="fill:#6BB551;"/>
				<path d="M391.141,120.564c-0.949-0.271-1.912-0.547-2.876-0.822c-0.474-0.144-0.933-0.363-1.389-0.566&#10;&#9;&#9;&#9;&#9;&#9;c-0.463-0.188-0.949-0.302-1.421-0.445c-0.468-0.158-0.924-0.337-1.385-0.482c-0.467-0.129-0.91-0.307-1.346-0.484&#10;&#9;&#9;&#9;&#9;&#9;c-0.436-0.174-0.866-0.346-1.287-0.513c-0.42-0.169-0.807-0.4-1.225-0.509c-0.267-0.044-0.507-0.122-0.754-0.19&#10;&#9;&#9;&#9;&#9;&#9;c0.008,0.103,0.016,0.207,0.023,0.31c0.195,0.098,0.389,0.185,0.587,0.294c0.39,0.189,0.88,0.125,1.304,0.284&#10;&#9;&#9;&#9;&#9;&#9;c0.427,0.148,0.869,0.281,1.307,0.452c0.441,0.162,0.89,0.326,1.344,0.493c0.455,0.163,0.858,0.497,1.319,0.67&#10;&#9;&#9;&#9;&#9;&#9;c0.458,0.184,0.983,0.186,1.44,0.388c0.473,0.175,0.893,0.451,1.412,0.541c1.049-0.021,1.904,0.627,2.893,0.762&#10;&#9;&#9;&#9;&#9;&#9;c0.083,0.021,0.166,0.039,0.25,0.06c0.029-0.053,0.059-0.108,0.088-0.159C391.33,120.619,391.236,120.591,391.141,120.564z" style="fill:#6BB551;"/>
				<path d="M446.631,71.71c0.276-0.483,0.531-0.97,0.794-1.444c-0.045-0.002-0.089-0.003-0.134-0.005&#10;&#9;&#9;&#9;&#9;&#9;c-0.273,0.45-0.543,0.893-0.822,1.353c-0.24,0.41-0.5,0.811-0.73,1.236l-0.646,1.294c-0.21,0.435-0.461,0.849-0.711,1.263&#10;&#9;&#9;&#9;&#9;&#9;c-0.23,0.424-0.406,0.872-0.576,1.315c-0.183,0.438-0.385,0.864-0.555,1.299c-0.005,0.016-0.012,0.03-0.018,0.046&#10;&#9;&#9;&#9;&#9;&#9;c0.064-0.023,0.131-0.047,0.195-0.07c0.193-0.39,0.506-0.73,0.689-1.132c0.209-0.425,0.275-0.919,0.518-1.335&#10;&#9;&#9;&#9;&#9;&#9;c0.223-0.426,0.531-0.809,0.681-1.271C445.461,73.242,446.241,72.58,446.631,71.71z" style="fill:#6BB551;"/>
				<path d="M400.682,103.952c-0.514-0.954-0.988-1.969-1.502-2.984c-0.506-1.02-1.019-2.056-1.532-3.092&#10;&#9;&#9;&#9;&#9;&#9;c-0.263-0.515-0.485-1.05-0.705-1.584c-0.237-0.524-0.544-1.013-0.819-1.511c-0.479-1.033-1.07-1.989-1.496-2.988&#10;&#9;&#9;&#9;&#9;&#9;c-0.227-0.492-0.449-0.977-0.668-1.451c-0.209-0.479-0.379-0.965-0.622-1.398c-0.38-0.518-0.653-1.057-0.888-1.59&#10;&#9;&#9;&#9;&#9;&#9;c-0.045,0.029-0.09,0.059-0.135,0.088c0.214,0.541,0.42,1.104,0.631,1.699c0.18,0.467,0.609,0.821,0.835,1.291&#10;&#9;&#9;&#9;&#9;&#9;c0.235,0.466,0.495,0.932,0.724,1.424c0.238,0.486,0.48,0.981,0.726,1.482c0.236,0.506,0.345,1.083,0.587,1.598&#10;&#9;&#9;&#9;&#9;&#9;c0.237,0.519,0.649,0.953,0.873,1.484c0.249,0.52,0.412,1.085,0.733,1.57c0.788,0.897,0.956,2.108,1.589,3.063&#10;&#9;&#9;&#9;&#9;&#9;c0.527,1.009,1.107,1.971,1.57,2.95c0.234,0.49,0.465,0.972,0.689,1.443c0.029,0.06,0.06,0.116,0.09,0.175&#10;&#9;&#9;&#9;&#9;&#9;c0.043-0.055,0.086-0.106,0.13-0.16C401.227,104.969,400.957,104.466,400.682,103.952z" style="fill:#6BB551;"/>
				<path d="M381.524,98.553c0.503,0.457,1.028,0.908,1.538,1.397c0.517,0.48,1.041,0.969,1.572,1.464&#10;&#9;&#9;&#9;&#9;&#9;c0.531,0.497,0.945,1.121,1.467,1.648c0.521,0.526,1.165,0.935,1.688,1.472c0.533,0.527,0.993,1.134,1.592,1.598&#10;&#9;&#9;&#9;&#9;&#9;c1.279,0.84,2.1,2.156,3.256,3.092c1.092,1.003,2.164,1.99,3.203,2.945c0.15,0.147,0.309,0.282,0.465,0.422&#10;&#9;&#9;&#9;&#9;&#9;c0.024-0.038,0.049-0.074,0.074-0.112c-0.154-0.13-0.309-0.259-0.463-0.393c-1.066-0.921-2.075-1.979-3.148-2.999&#10;&#9;&#9;&#9;&#9;&#9;c-1.061-1.033-2.139-2.083-3.217-3.133c-0.544-0.52-1.057-1.072-1.565-1.624c-0.522-0.537-1.098-1.017-1.646-1.515&#10;&#9;&#9;&#9;&#9;&#9;c-1.029-1.068-2.197-1.957-3.184-2.965c-0.508-0.49-1.006-0.973-1.495-1.443c-0.04-0.039-0.076-0.078-0.114-0.117&#10;&#9;&#9;&#9;&#9;&#9;c-0.035,0.066-0.075,0.126-0.109,0.193C381.466,98.507,381.497,98.527,381.524,98.553z" style="fill:#6BB551;"/>
				<path d="M421.775,87.153c-0.087-0.455-0.439-0.843-0.57-1.309c-0.143-0.462-0.307-0.929-0.438-1.414&#10;&#9;&#9;&#9;&#9;&#9;c-0.141-0.483-0.283-0.973-0.428-1.47c-0.166-0.491-0.088-1.057-0.188-1.571c-0.088-0.519-0.365-0.992-0.439-1.523&#10;&#9;&#9;&#9;&#9;&#9;c-0.1-0.523-0.104-1.07-0.283-1.577c-0.433-0.83-0.397-1.76-0.574-2.633c-0.065,0.039-0.13,0.078-0.195,0.116&#10;&#9;&#9;&#9;&#9;&#9;c0.168,0.853,0.35,1.71,0.523,2.571c0.115,0.523,0.185,1.058,0.256,1.592c0.088,0.529,0.252,1.037,0.383,1.547&#10;&#9;&#9;&#9;&#9;&#9;c0.15,1.053,0.6,2.004,0.814,2.988c0.127,0.486,0.254,0.964,0.377,1.432c0.121,0.469,0.174,0.947,0.342,1.377&#10;&#9;&#9;&#9;&#9;&#9;c0.165,0.432,0.398,0.829,0.504,1.25c0.025,0.088,0.054,0.168,0.078,0.255c0.045-0.022,0.09-0.044,0.135-0.066&#10;&#9;&#9;&#9;&#9;&#9;C421.951,88.224,421.863,87.697,421.775,87.153z" style="fill:#6BB551;"/>
				<path d="M388.401,126.329c-0.671-0.11-1.345-0.222-2.021-0.334c-0.45-0.067-0.893-0.18-1.333-0.293&#10;&#9;&#9;&#9;&#9;&#9;c-0.443-0.094-0.897-0.11-1.343-0.158c-0.441-0.063-0.877-0.15-1.313-0.202c-0.438-0.036-0.863-0.123-1.279-0.212&#10;&#9;&#9;&#9;&#9;&#9;c-0.326-0.066-0.645-0.131-0.963-0.195c0.006,0.063,0.011,0.125,0.016,0.187c0.305,0.042,0.612,0.083,0.922,0.144&#10;&#9;&#9;&#9;&#9;&#9;c0.42,0.072,0.848,0.146,1.279,0.22c0.434,0.072,0.84,0.318,1.285,0.398c0.44,0.091,0.911-0.01,1.352,0.1&#10;&#9;&#9;&#9;&#9;&#9;c0.445,0.081,0.878,0.26,1.338,0.262c0.686-0.113,1.317,0.136,1.958,0.282C388.334,126.459,388.367,126.396,388.401,126.329z" style="fill:#6BB551;"/>
				<path d="M426.213,84.748c-0.168-0.404-0.581-0.688-0.794-1.092c-0.232-0.395-0.427-0.817-0.623-1.248&#10;&#9;&#9;&#9;&#9;&#9;c-0.198-0.431-0.399-0.868-0.603-1.312c-0.214-0.439-0.252-0.958-0.412-1.428c-0.16-0.469-0.504-0.872-0.65-1.354&#10;&#9;&#9;&#9;&#9;&#9;c-0.161-0.477-0.281-0.969-0.477-1.434c-0.58-0.875-0.5-1.957-0.916-2.867c-0.006-0.022-0.013-0.045-0.02-0.067&#10;&#9;&#9;&#9;&#9;&#9;c-0.056,0.033-0.109,0.065-0.167,0.099c0.001,0.005,0.003,0.009,0.003,0.014c0.284,0.957,0.572,1.93,0.861,2.902&#10;&#9;&#9;&#9;&#9;&#9;c0.067,0.244,0.139,0.488,0.23,0.724l0.219,0.729c0.162,0.479,0.396,0.93,0.599,1.386c0.313,0.953,0.881,1.775,1.21,2.671&#10;&#9;&#9;&#9;&#9;&#9;c0.195,0.435,0.354,0.88,0.569,1.282c0.204,0.41,0.343,0.844,0.586,1.207c0.386,0.471,0.674,0.973,0.941,1.456&#10;&#9;&#9;&#9;&#9;&#9;c0.05-0.024,0.097-0.049,0.146-0.073C426.657,85.852,426.425,85.327,426.213,84.748z" style="fill:#6BB551;"/>
				<path d="M436.424,79.397c0.064-0.595,0.129-1.199,0.194-1.812c0.079-0.61,0.29-1.216,0.38-1.836&#10;&#9;&#9;&#9;&#9;&#9;c0.105-0.619,0.018-1.265,0.141-1.89c0.098-0.628,0.29-1.245,0.307-1.886c-0.05-0.508,0.006-1.002,0.094-1.491&#10;&#9;&#9;&#9;&#9;&#9;c-0.047,0.003-0.094,0.006-0.14,0.009c-0.068,0.484-0.136,0.965-0.204,1.451c-0.082,0.633-0.209,1.26-0.338,1.885&#10;&#9;&#9;&#9;&#9;&#9;c-0.107,0.628-0.139,1.262-0.201,1.886c-0.172,1.245-0.182,2.486-0.368,3.67c-0.077,0.593-0.151,1.177-0.226,1.747&#10;&#9;&#9;&#9;&#9;&#9;c-0.019,0.129-0.04,0.254-0.061,0.38c0.086-0.047,0.171-0.094,0.255-0.14c0.002-0.073-0.002-0.146,0.006-0.22&#10;&#9;&#9;&#9;&#9;&#9;C436.316,80.578,436.351,79.991,436.424,79.397z" style="fill:#6BB551;"/>
				<path d="M415.646,91.129c-0.058-0.424-0.002-0.876-0.05-1.336c-0.026-0.463-0.321-0.896-0.392-1.367&#10;&#9;&#9;&#9;&#9;&#9;c-0.106-0.467-0.234-0.939-0.328-1.428c-0.095-0.488-0.205-0.981-0.32-1.479c-0.12-0.497-0.069-1.041-0.185-1.55&#10;&#9;&#9;&#9;&#9;&#9;c-0.103-0.512-0.401-0.984-0.5-1.501c-0.122-0.514-0.151-1.053-0.354-1.548c-0.373-0.607-0.467-1.289-0.597-1.956&#10;&#9;&#9;&#9;&#9;&#9;c-0.06,0.029-0.119,0.059-0.179,0.088c0.178,0.642,0.354,1.283,0.531,1.931c0.139,0.512,0.233,1.034,0.324,1.556&#10;&#9;&#9;&#9;&#9;&#9;c0.113,0.517,0.295,1.009,0.439,1.511c0.223,1.02,0.563,1.994,0.707,2.979c0.09,0.488,0.178,0.967,0.264,1.437&#10;&#9;&#9;&#9;&#9;&#9;c0.061,0.474,0.045,0.944,0.154,1.384c0.102,0.439,0.285,0.865,0.326,1.291c0.02,0.428,0.043,0.841,0.043,1.238&#10;&#9;&#9;&#9;&#9;&#9;c0,0.038,0.002,0.073,0.002,0.111c0.054-0.036,0.106-0.072,0.16-0.107c0-0.004-0.001-0.008-0.001-0.013&#10;&#9;&#9;&#9;&#9;&#9;C415.655,91.973,415.656,91.558,415.646,91.129z" style="fill:#6BB551;"/>
				<path d="M408.355,94.318c-0.051-0.5-0.371-0.96-0.465-1.477c-0.105-0.515-0.23-1.037-0.32-1.576&#10;&#9;&#9;&#9;&#9;&#9;c-0.101-0.537-0.203-1.082-0.306-1.635c-0.1-0.554-0.028-1.147-0.157-1.709c-0.115-0.564-0.421-1.09-0.52-1.663&#10;&#9;&#9;&#9;&#9;&#9;c-0.127-0.567-0.159-1.162-0.364-1.712c-0.502-0.841-0.628-1.795-0.916-2.689c-0.069,0.016-0.132,0.035-0.2,0.052&#10;&#9;&#9;&#9;&#9;&#9;c0.299,0.893,0.611,1.79,0.873,2.704c0.141,0.564,0.237,1.141,0.332,1.713c0.113,0.568,0.303,1.115,0.459,1.668&#10;&#9;&#9;&#9;&#9;&#9;c0.145,0.554,0.218,1.12,0.352,1.666c0.141,0.545,0.229,1.093,0.313,1.633c0.088,0.539,0.174,1.069,0.259,1.588&#10;&#9;&#9;&#9;&#9;&#9;c0.076,0.521,0.111,1.038,0.232,1.524c0.13,0.484,0.331,0.94,0.404,1.406c0.089,0.464,0.176,0.911,0.258,1.342&#10;&#9;&#9;&#9;&#9;&#9;c0.039,0.214,0.086,0.42,0.133,0.622c0.055-0.049,0.109-0.1,0.163-0.148c-0.054-0.166-0.105-0.334-0.14-0.513&#10;&#9;&#9;&#9;&#9;&#9;C408.509,96.275,408.422,95.326,408.355,94.318z" style="fill:#6BB551;"/>
			</g>
			<path d="M380.065,139.167c-1.318,6.329-6.65,24.145-8.122,51.857&#10;&#9;&#9;&#9;&#9;c1.158,2.268,1.949,4.247,1.826,5.358c-0.194,1.744-1.188,5.829-2.2,10.896c0.017,2.513,0.067,5.086,0.157,7.721h2.172&#10;&#9;&#9;&#9;&#9;c0.202-5.174,0.93-12.268,3.082-19.5c0.018-0.064,0.044-0.13,0.064-0.193c0.422-20.175,2.39-50.723,10.022-66.307&#10;&#9;&#9;&#9;&#9;c0.146-0.299,0.292-0.586,0.438-0.88c-2.234,0.711-4.558,1.544-7,2.664C380.617,133.966,380.543,136.873,380.065,139.167z" style="opacity:0.6;fill:#3D853C;"/>
		</g>
		<path d="M480.689,130.625c-12.25,0.375-31.124,1.25-40.249,3.375s-39.5,14.25-43,20.5&#10;&#9;&#9;&#9;s-18.466,31.779-18.466,31.779c-6.034-7.904-11.784-14.029-13.034-23.779s2.25-19.75,11.625-26.125s16.875-7.125,24-9.875&#10;&#9;&#9;&#9;s17.177-7.75,27.214-7.75c10.036,0,28.287-1,35.41,1.75C471.314,123.25,480.689,130.625,480.689,130.625z" style="fill:#6BB551;"/>
		<path d="M375.802,137.675c0.054-0.042,0.107-0.085,0.161-0.126&#10;&#9;&#9;&#9;c0.978,2.294,1.832,4.708,3.283,6.825c0.728,1.128,1.313,2.342,1.975,3.507c0.3,0.6,0.721,1.126,1.102,1.673&#10;&#9;&#9;&#9;c0.381,0.547,0.76,1.093,1.139,1.636c0.668,1.143,1.348,2.27,2.068,3.35c0.734,1.071,1.492,2.106,2.242,3.122&#10;&#9;&#9;&#9;c0.756,1.011,1.499,2.006,2.227,2.979c0.713,0.984,1.607,1.798,2.244,2.767c0.016,0.021,0.028,0.043,0.043,0.064&#10;&#9;&#9;&#9;c-0.074,0.128-0.15,0.259-0.225,0.388c-0.053-0.065-0.105-0.129-0.158-0.195c-0.715-0.91-1.362-1.91-2.064-2.903&#10;&#9;&#9;&#9;c-0.711-0.985-1.438-1.992-2.176-3.017c-1.455-2.063-3.059-4.129-4.488-6.364c-0.726-1.109-1.556-2.17-2.195-3.353&#10;&#9;&#9;&#9;c-0.635-1.187-1.285-2.364-1.95-3.539C377.83,142.27,376.712,139.995,375.802,137.675z M413.264,142.37&#10;&#9;&#9;&#9;c-0.381-1.033-1.023-1.986-1.459-3.054c-0.448-1.063-0.924-2.141-1.372-3.253c-0.453-1.109-0.923-2.232-1.37-3.383&#10;&#9;&#9;&#9;c-0.435-1.154-0.773-2.362-1.191-3.548c-0.469-1.165-0.982-2.324-1.416-3.521c-0.1-0.323-0.193-0.648-0.289-0.974&#10;&#9;&#9;&#9;c-0.085,0.035-0.174,0.072-0.259,0.106l0.28,0.96c0.416,1.204,0.888,2.385,1.363,3.551c0.882,2.36,1.881,4.627,2.754,6.86&#10;&#9;&#9;&#9;c0.446,1.112,0.885,2.207,1.314,3.278c0.423,1.073,0.791,2.144,1.245,3.144c0.264,0.549,0.518,1.09,0.765,1.626&#10;&#9;&#9;&#9;c0.08-0.037,0.161-0.074,0.241-0.112C413.678,143.497,413.485,142.935,413.264,142.37z M419.162,140.056&#10;&#9;&#9;&#9;c-0.291-0.688-0.594-1.405-0.907-2.147c-0.318-0.74-0.544-1.553-0.874-2.342c-0.307-0.801-0.872-1.511-1.229-2.336&#10;&#9;&#9;&#9;c-0.371-0.818-0.759-1.65-1.115-2.514c-0.356-0.862-0.719-1.739-1.086-2.627c-0.341-0.898-0.542-1.861-0.866-2.781&#10;&#9;&#9;&#9;c-0.303-0.929-0.797-1.802-1.049-2.761c-0.021-0.067-0.037-0.135-0.057-0.202c-0.088,0.032-0.175,0.065-0.263,0.098&#10;&#9;&#9;&#9;c0.017,0.063,0.031,0.125,0.048,0.188c0.254,0.964,0.657,1.874,0.997,2.794c0.342,0.92,0.683,1.833,1.056,2.72&#10;&#9;&#9;&#9;c0.402,0.874,0.735,1.764,1.094,2.627c0.359,0.861,0.713,1.71,1.059,2.54c0.343,0.832,0.635,1.664,1.017,2.432&#10;&#9;&#9;&#9;c0.388,0.764,0.791,1.495,1.12,2.23c0.323,0.737,0.621,1.455,0.895,2.151c0.183,0.484,0.366,0.945,0.545,1.396&#10;&#9;&#9;&#9;c0.068-0.029,0.138-0.059,0.207-0.088C419.543,140.994,419.336,140.543,419.162,140.056z M431.808,132.531&#10;&#9;&#9;&#9;c-0.069-0.937-0.161-1.893-0.216-2.867c-0.065-0.973-0.131-1.963-0.197-2.964c-0.033-1.003-0.012-2.024-0.016-3.048&#10;&#9;&#9;&#9;c-0.021-1.021-0.215-2.046-0.23-3.083c-0.018-0.61-0.002-1.222-0.009-1.834c-0.094,0.001-0.189,0.002-0.282,0.003&#10;&#9;&#9;&#9;c0.008,0.614,0.01,1.229,0.008,1.842c0.017,1.037,0.111,2.068,0.172,3.091c0.086,2.049,0.352,4.052,0.418,6.003&#10;&#9;&#9;&#9;c0.053,0.974,0.103,1.932,0.152,2.869c0.042,0.939,0.033,1.86,0.13,2.75c0.054,0.465,0.114,0.92,0.171,1.37&#10;&#9;&#9;&#9;c0.092-0.033,0.18-0.064,0.271-0.096c0.004-0.429,0.008-0.863-0.011-1.303C432.154,134.369,431.865,133.468,431.808,132.531z&#10;&#9;&#9;&#9; M388.747,144.507c0.706,0.919,1.372,1.864,2.007,2.829c0.667,0.943,1.354,1.86,2.033,2.778c1.282,1.886,2.654,3.666,3.846,5.483&#10;&#9;&#9;&#9;c0.035,0.051,0.068,0.1,0.102,0.15c0.027-0.047,0.052-0.09,0.078-0.136c-0.022-0.032-0.045-0.063-0.066-0.095&#10;&#9;&#9;&#9;c-0.619-0.891-1.25-1.798-1.888-2.717c-0.614-0.933-1.17-1.926-1.79-2.884c-0.647-0.938-1.42-1.804-2.084-2.747&#10;&#9;&#9;&#9;c-0.662-0.943-1.271-1.938-2.041-2.812c-1.631-1.672-2.772-3.715-4.199-5.488c-0.664-0.923-1.339-1.832-1.936-2.773&#10;&#9;&#9;&#9;c-0.3-0.471-0.599-0.938-0.896-1.403c-0.139-0.246-0.264-0.496-0.393-0.745c-0.031,0.017-0.061,0.033-0.093,0.05&#10;&#9;&#9;&#9;C383.409,137.614,386.105,141.057,388.747,144.507z M385.959,170.404c-0.633-0.685-1.291-1.373-1.934-2.098&#10;&#9;&#9;&#9;c-0.633-0.732-1.332-1.43-1.955-2.205c-0.621-0.78-1.185-1.621-1.81-2.42c-0.665-0.765-1.34-1.531-1.95-2.358&#10;&#9;&#9;&#9;c-0.598-0.831-1.136-1.714-1.786-2.521c-1.404-1.538-2.366-3.396-3.646-4.974c-0.592-0.824-1.2-1.63-1.735-2.468&#10;&#9;&#9;&#9;c-0.574-0.814-1.066-1.667-1.506-2.527c-0.42-0.784-0.734-1.602-1.064-2.392c-0.037,0.072-0.07,0.145-0.107,0.219&#10;&#9;&#9;&#9;c0.33,0.741,0.652,1.5,1.065,2.227c0.922,1.709,2.016,3.39,3.193,5.05c1.177,1.661,2.429,3.301,3.598,5.005&#10;&#9;&#9;&#9;c0.586,0.851,1.185,1.69,1.761,2.548c0.284,0.432,0.62,0.823,0.928,1.233c0.309,0.409,0.634,0.804,0.983,1.175&#10;&#9;&#9;&#9;c0.662,0.773,1.318,1.541,1.967,2.299c0.658,0.748,1.334,1.465,1.963,2.201c0.641,0.727,1.271,1.441,1.887,2.141&#10;&#9;&#9;&#9;c0.483,0.553,0.94,1.105,1.416,1.627c0.072-0.126,0.146-0.252,0.22-0.378C386.965,171.33,386.419,170.914,385.959,170.404z&#10;&#9;&#9;&#9; M401.188,146.813c-0.383-1.036-0.849-2.061-1.208-3.141c-0.347-1.085-0.638-2.199-0.912-3.325&#10;&#9;&#9;&#9;c-0.371-1.097-0.765-2.198-1.034-3.341c-0.307-1.135-0.357-2.323-0.682-3.458c-0.519-1.771-0.559-3.603-0.668-5.41&#10;&#9;&#9;&#9;c-0.068,0.021-0.137,0.042-0.205,0.063c0.051,0.626,0.107,1.253,0.154,1.882c0.127,1.17,0.297,2.34,0.477,3.508l0.321,1.742&#10;&#9;&#9;&#9;c0.089,0.584,0.186,1.168,0.327,1.74c0.252,1.152,0.603,2.273,0.982,3.374c0.629,2.244,1.551,4.345,2.321,6.422&#10;&#9;&#9;&#9;c0.47,1.112,0.919,2.209,1.37,3.276c0.063-0.04,0.126-0.08,0.19-0.121c-0.039-0.077-0.082-0.151-0.117-0.23&#10;&#9;&#9;&#9;C402.075,148.821,401.603,147.838,401.188,146.813z M459.885,130.605c0.262-0.732,0.277-1.558,0.525-2.334&#10;&#9;&#9;&#9;c0.234-0.78,0.457-1.582,0.719-2.388c0.266-0.804,0.488-1.636,0.795-2.451c0.297-0.819,0.736-1.601,1.037-2.434&#10;&#9;&#9;&#9;c0.102-0.269,0.18-0.547,0.254-0.827c-0.107-0.033-0.217-0.066-0.328-0.098c-0.08,0.271-0.16,0.543-0.25,0.81&#10;&#9;&#9;&#9;c-0.287,0.843-0.57,1.678-0.852,2.504c-0.264,0.831-0.516,1.653-0.787,2.455c-0.266,0.805-0.525,1.596-0.779,2.37&#10;&#9;&#9;&#9;c-0.264,0.771-0.566,1.516-0.748,2.27c-0.096,0.4-0.182,0.798-0.27,1.188c0.098-0.007,0.197-0.014,0.295-0.021&#10;&#9;&#9;&#9;C459.631,131.309,459.77,130.963,459.885,130.605z M468.84,130.276c0.4-0.602,0.805-1.213,1.217-1.832&#10;&#9;&#9;&#9;c0.416-0.614,0.961-1.153,1.41-1.762c0.402-0.554,0.705-1.185,1.096-1.758c-0.082-0.052-0.166-0.102-0.25-0.153&#10;&#9;&#9;&#9;c-0.398,0.561-0.756,1.146-1.129,1.717c-0.902,1.221-1.604,2.548-2.459,3.715c-0.211,0.307-0.412,0.617-0.609,0.926&#10;&#9;&#9;&#9;c0.066-0.004,0.133-0.007,0.197-0.011C468.48,130.836,468.652,130.553,468.84,130.276z M426.141,137.473&#10;&#9;&#9;&#9;c-0.071-0.763-0.146-1.558-0.223-2.379c-0.076-0.824-0.045-1.687-0.111-2.561c-0.042-0.878-0.357-1.751-0.443-2.67&#10;&#9;&#9;&#9;c-0.097-0.916-0.217-1.852-0.299-2.807c-0.086-0.953-0.172-1.923-0.26-2.904c-0.055-0.985-0.029-1.988-0.076-2.992&#10;&#9;&#9;&#9;c-0.06-0.703-0.156-1.408-0.231-2.117c-0.103,0.013-0.204,0.028-0.308,0.043c0.05,0.704,0.11,1.406,0.197,2.102&#10;&#9;&#9;&#9;c0.152,2.007,0.403,3.972,0.541,5.884c0.08,0.954,0.159,1.894,0.236,2.812c0.069,0.92,0.089,1.826,0.213,2.695&#10;&#9;&#9;&#9;c0.129,0.871,0.291,1.712,0.379,2.534c0.072,0.823,0.142,1.618,0.211,2.382c0.026,0.467,0.065,0.915,0.107,1.355&#10;&#9;&#9;&#9;c0.067-0.026,0.135-0.052,0.201-0.078C426.211,138.351,426.158,137.922,426.141,137.473z M480.09,130.164&#10;&#9;&#9;&#9;c-0.031-0.025-0.066-0.052-0.102-0.078c-0.201,0.197-0.402,0.392-0.605,0.58c0.065-0.002,0.129-0.004,0.191-0.006&#10;&#9;&#9;&#9;C479.746,130.496,479.918,130.33,480.09,130.164z M440.534,132.273c0.155-0.91,0.05-1.876,0.167-2.837&#10;&#9;&#9;&#9;c0.105-0.962,0.195-1.947,0.323-2.945c0.118-0.999,0.239-2.014,0.36-3.041c0.124-1.028,0.318-2.064,0.449-3.114&#10;&#9;&#9;&#9;c0.055-0.579,0.061-1.165,0.072-1.751c-0.107,0-0.215,0.001-0.322,0.002c-0.041,0.574-0.076,1.148-0.092,1.721&#10;&#9;&#9;&#9;c-0.183,2.103-0.293,4.18-0.603,6.169c-0.132,0.996-0.261,1.977-0.387,2.936c-0.133,0.958-0.324,1.89-0.399,2.809&#10;&#9;&#9;&#9;c-0.049,0.646-0.087,1.277-0.136,1.896c0.082-0.02,0.167-0.041,0.245-0.061C440.324,133.473,440.445,132.883,440.534,132.273z&#10;&#9;&#9;&#9; M449.459,130.378c0.105-0.835,0.194-1.69,0.322-2.555c0.119-0.866,0.238-1.745,0.361-2.638c0.131-0.89,0.409-1.771,0.541-2.679&#10;&#9;&#9;&#9;c0.135-0.909,0.102-1.846,0.244-2.764c0.05-0.354,0.115-0.709,0.179-1.063c-0.093-0.004-0.188-0.007-0.28-0.01&#10;&#9;&#9;&#9;c-0.059,0.345-0.117,0.69-0.179,1.034c-0.143,0.918-0.208,1.842-0.304,2.755c-0.271,1.815-0.405,3.62-0.698,5.345&#10;&#9;&#9;&#9;c-0.131,0.865-0.259,1.715-0.386,2.546c-0.124,0.774-0.281,1.527-0.36,2.273c0.144-0.017,0.292-0.034,0.439-0.051&#10;&#9;&#9;&#9;C449.424,131.863,449.353,131.117,449.459,130.378z" style="opacity:0.2;fill:#3D853C;"/>
		<path d="M262.815,154.015c2.417-1.182,11.5-2.617,16.5-2.399c5,0.218,13.917,0.157,18.5,0.604&#10;&#9;&#9;&#9;c4.583,0.447,11.917,2.53,17,2.863c5.083,0.333,7.667,0.667,12,1.417s15.25,6.416,18.5,9.333c3.25,2.917,7.917,5.749,9.25,7.833&#10;&#9;&#9;&#9;s3.583,16.917,4,18.667c0,0-13.333-6.249-24.333-10.416c-11-4.167-24-10.917-33.75-15.417S269.065,154.363,262.815,154.015z" style="fill:#6BB551;"/>
		<path d="M270.2,152.275c0.063-0.009,0.126-0.018,0.189-0.026&#10;&#9;&#9;&#9;c0.078,0.333,0.156,0.665,0.226,1.001l0.323,1.392c0.116,0.417,0.28,0.82,0.423,1.229c-0.086-0.024-0.174-0.05-0.259-0.074&#10;&#9;&#9;&#9;C270.799,154.617,270.499,153.447,270.2,152.275z M325.356,172.251c-0.176-1.869-0.355-3.767-0.535-5.665&#10;&#9;&#9;&#9;c-0.105-0.947-0.209-1.895-0.287-2.843c-0.103-0.944-0.284-1.875-0.43-2.803c-0.214-1.702-0.468-3.368-0.704-4.995&#10;&#9;&#9;&#9;c-0.045-0.007-0.091-0.014-0.136-0.02c0.125,0.745,0.217,1.505,0.319,2.272c0.107,0.913,0.069,1.858,0.181,2.788&#10;&#9;&#9;&#9;c0.109,0.931,0.387,1.848,0.489,2.791c0.112,0.943,0.142,1.898,0.324,2.836c0.469,1.865,0.279,3.802,0.591,5.655&#10;&#9;&#9;&#9;c0.204,1.863,0.456,3.697,0.63,5.475c0.021,0.241,0.046,0.478,0.069,0.717c0.05,0.021,0.099,0.043,0.149,0.064&#10;&#9;&#9;&#9;c-0.034-0.266-0.066-0.523-0.101-0.793C325.674,175.96,325.548,174.118,325.356,172.251z M341.828,184.949&#10;&#9;&#9;&#9;c0.033-0.387,0.064-0.775,0.072-1.17c0.024-0.833,0.049-1.676,0.074-2.526c0.019-0.851,0.064-1.707,0.062-2.567&#10;&#9;&#9;&#9;c-0.014-0.859-0.027-1.724-0.041-2.587c-0.022-0.863,0.009-1.728,0.026-2.59c-0.014-0.86-0.106-1.714-0.166-2.563&#10;&#9;&#9;&#9;c-0.04-0.849-0.063-1.692-0.117-2.523c-0.072-0.831-0.092-1.653-0.107-2.464c-0.02-0.809-0.039-1.604-0.058-2.384&#10;&#9;&#9;&#9;c-0.002-0.128,0-0.253,0-0.38c-0.082-0.05-0.169-0.102-0.253-0.151c0.025,0.179,0.046,0.358,0.053,0.54&#10;&#9;&#9;&#9;c0.039,0.778,0.099,1.572,0.121,2.382c0.032,0.809,0.065,1.631,0.099,2.463c0.021,0.833-0.105,1.682-0.082,2.53&#10;&#9;&#9;&#9;c0.021,0.85,0.212,1.699,0.227,2.56c0.018,0.859-0.089,1.724,0.011,2.584c0.333,1.723-0.021,3.45,0.036,5.146&#10;&#9;&#9;&#9;c-0.016,1.238,0.01,2.463-0.055,3.66C341.763,184.922,341.795,184.936,341.828,184.949z M331.967,159.787&#10;&#9;&#9;&#9;c0.043,0.84,0.086,1.693,0.13,2.558c0.034,0.864-0.078,1.749-0.041,2.631c0.035,0.882,0.239,1.762,0.267,2.655&#10;&#9;&#9;&#9;c0.057,0.892-0.055,1.794,0.052,2.686c0.328,1.779-0.005,3.588,0.167,5.346c0.054,1.764,0.198,3.5,0.216,5.182&#10;&#9;&#9;&#9;c0.001,0.169,0.005,0.335,0.007,0.503c0.046,0.019,0.092,0.036,0.138,0.054c-0.009-0.189-0.017-0.369-0.026-0.56&#10;&#9;&#9;&#9;c-0.086-1.681-0.105-3.418-0.146-5.184c-0.037-1.766-0.074-3.559-0.111-5.354c-0.004-0.897-0.009-1.796-0.014-2.69&#10;&#9;&#9;&#9;c-0.028-0.893-0.134-1.777-0.207-2.658c-0.067-1.765-0.266-3.493-0.295-5.176c-0.01-0.511-0.042-1.016-0.077-1.516&#10;&#9;&#9;&#9;c-0.06-0.025-0.119-0.049-0.179-0.074C331.903,158.715,331.954,159.244,331.967,159.787z M290.612,160.025&#10;&#9;&#9;&#9;c-0.16-0.774-0.214-1.574-0.463-2.333c-0.616-1.494-0.585-3.123-1.044-4.624c-0.103-0.414-0.189-0.823-0.282-1.234&#10;&#9;&#9;&#9;c-0.058-0.002-0.116-0.003-0.174-0.004c0.081,0.426,0.168,0.852,0.27,1.277c0.326,1.528,0.657,3.082,0.989,4.635&#10;&#9;&#9;&#9;c0.172,0.775,0.3,1.56,0.426,2.342c0.145,0.777,0.366,1.536,0.553,2.296c0.01,0.05,0.022,0.1,0.032,0.149&#10;&#9;&#9;&#9;c0.117,0.046,0.236,0.091,0.352,0.136c-0.018-0.118-0.024-0.238-0.047-0.355C291.074,161.543,290.757,160.804,290.612,160.025z&#10;&#9;&#9;&#9; M284.265,159.371c-0.242-0.946-0.336-1.947-0.592-2.914c-0.271-0.961-0.707-1.882-0.973-2.855&#10;&#9;&#9;&#9;c-0.177-0.629-0.328-1.268-0.515-1.895c-0.101-0.003-0.2-0.005-0.299-0.008c0.195,0.659,0.38,1.32,0.543,1.985&#10;&#9;&#9;&#9;c0.267,0.973,0.607,1.919,0.914,2.868c0.263,0.961,0.524,1.915,0.782,2.856c0.065,0.227,0.128,0.451,0.192,0.677&#10;&#9;&#9;&#9;c0.051,0.018,0.102,0.036,0.153,0.055C284.399,159.884,284.326,159.631,284.265,159.371z M316.318,169.351&#10;&#9;&#9;&#9;c-0.289-1.868-0.48-3.783-0.854-5.668c-0.185-0.942-0.325-1.893-0.464-2.841c-0.161-0.943-0.385-1.871-0.598-2.791&#10;&#9;&#9;&#9;c-0.195-1.036-0.428-2.053-0.649-3.06c-0.046-0.005-0.095-0.011-0.142-0.017c0.024,0.12,0.047,0.235,0.071,0.355&#10;&#9;&#9;&#9;c0.173,0.91,0.204,1.86,0.383,2.789c0.176,0.928,0.496,1.834,0.657,2.776c0.172,0.94,0.238,1.903,0.5,2.83&#10;&#9;&#9;&#9;c0.117,0.466,0.296,0.923,0.368,1.395l0.167,1.428c0.094,0.952,0.203,1.896,0.374,2.826c0.309,1.632,0.438,3.261,0.532,4.852&#10;&#9;&#9;&#9;c0.038,0.018,0.075,0.035,0.113,0.053C316.655,172.67,316.62,171.01,316.318,169.351z M349.293,188.145&#10;&#9;&#9;&#9;c0.041,0.019,0.084,0.036,0.125,0.055c0.004-0.027,0.008-0.054,0.012-0.082c0.118-0.856,0.184-1.73,0.281-2.608&#10;&#9;&#9;&#9;c0.089-0.878,0.18-1.763,0.271-2.651c0.055-0.892,0.11-1.786,0.166-2.681c0.045-0.896,0.137-1.789,0.229-2.68&#10;&#9;&#9;&#9;c0.043-0.893,0.009-1.784,0.006-2.667c0.016-0.882,0.053-1.757,0.051-2.622c-0.03-0.781-0.016-1.554,0.004-2.315&#10;&#9;&#9;&#9;c-0.044-0.034-0.089-0.067-0.133-0.102c-0.005,0.794-0.011,1.599-0.016,2.415c-0.032,0.864-0.217,1.735-0.25,2.615&#10;&#9;&#9;&#9;c-0.036,0.881,0.098,1.773,0.054,2.665c-0.057,0.89-0.224,1.777-0.191,2.676c0.213,1.81-0.317,3.566-0.379,5.327&#10;&#9;&#9;&#9;C349.46,186.385,349.389,187.273,349.293,188.145z M308.529,168.564c-0.2-0.851-0.259-1.747-0.465-2.614&#10;&#9;&#9;&#9;c-0.204-0.869-0.574-1.703-0.772-2.583c-0.214-0.876-0.323-1.782-0.626-2.641c-0.724-1.687-0.799-3.533-1.371-5.23&#10;&#9;&#9;&#9;c-0.19-0.706-0.396-1.401-0.598-2.093c-0.05-0.01-0.099-0.02-0.148-0.029c0.627,2.415,1.263,4.908,1.879,7.412&#10;&#9;&#9;&#9;c0.227,0.877,0.409,1.765,0.589,2.649c0.199,0.88,0.474,1.738,0.714,2.597c0.355,1.521,0.797,2.995,1.139,4.454&#10;&#9;&#9;&#9;c0.05,0.024,0.101,0.049,0.151,0.073C308.859,169.899,308.696,169.238,308.529,168.564z M299.345,165.322&#10;&#9;&#9;&#9;c-0.297-1.476-0.507-2.991-0.766-4.497c-0.133-0.753-0.206-1.516-0.285-2.274c-0.097-0.755-0.27-1.496-0.41-2.235&#10;&#9;&#9;&#9;c-0.204-1.418-0.503-2.794-0.69-4.149c-0.048-0.004-0.093-0.008-0.142-0.012c0.105,0.651,0.211,1.31,0.318,1.979&#10;&#9;&#9;&#9;c0.105,0.73,0.065,1.492,0.174,2.235c0.103,0.746,0.373,1.472,0.469,2.228c0.114,0.753,0.111,1.527,0.322,2.269&#10;&#9;&#9;&#9;c0.546,1.46,0.391,3.036,0.822,4.492c0.045,0.204,0.089,0.403,0.135,0.607c0.062,0.027,0.127,0.057,0.188,0.083&#10;&#9;&#9;&#9;C299.436,165.804,299.393,165.565,299.345,165.322z" style="opacity:0.2;fill:#3D853C;"/>
		<path d="M362.315,197.25c-2.875-5.25-4.625-7.625-4.875-9.375s-5.5-13.375-10.25-17.625&#10;&#9;&#9;&#9;c0,0-1.135-0.908-1.938,0.75c-0.802,1.658-2.875,7.438-3.25,7.625s0.938-7.875,1.125-8.813c0.187-0.936,0.229-2.145-0.335-2.454&#10;&#9;&#9;&#9;c-3.813-2.005-8.762-3.8-13.101-5.071c-0.73-0.201-1.319,0.414-1.751,1.713c-0.438,1.313-2.188,9.188-2.375,9.75&#10;&#9;&#9;&#9;s-0.375-9.813-0.438-10.75c-0.061-0.927-0.266-1.951-0.847-2.1c-0.24-0.051-0.49-0.107-0.716-0.15&#10;&#9;&#9;&#9;c-3.119-0.611-8.063-0.775-13.192-1.104c-0.001,0-0.001,0-0.001,0c-0.436-0.028-0.544-0.035-0.87,1.229&#10;&#9;&#9;&#9;c-0.326,1.264-1.375,7.375-1.625,8s-0.991-9.483-1.695-9.545l-0.001-0.001c-3.945-0.358-7.736-0.915-10.617-1.954&#10;&#9;&#9;&#9;c-7.625-2.75-15.063-3.26-19.188-4.125s-14.938,0.154-14.438,0.765c0.5,0.61,13.25,4.235,22.5,8.11s16.75,10.516,33,17.07&#10;&#9;&#9;&#9;s34.125,11.555,38.75,14.43S366.315,208.5,366.815,215h3.5C370.315,215,365.19,202.5,362.315,197.25z" style="fill:#3D853C;"/>
		<path d="M269.12,152.98c0.068-0.003,0.136-0.006,0.205-0.009c0.118,0.48,0.228,0.963,0.33,1.45&#10;&#9;&#9;&#9;l0.323,1.392c0.113,0.404,0.269,0.796,0.409,1.191c-0.086-0.029-0.173-0.058-0.258-0.087&#10;&#9;&#9;&#9;C269.79,155.6,269.455,154.288,269.12,152.98z M283.305,160.543c-0.242-0.946-0.336-1.947-0.592-2.914&#10;&#9;&#9;&#9;c-0.271-0.961-0.707-1.882-0.973-2.855c-0.063-0.223-0.121-0.445-0.179-0.67c-0.1-0.015-0.203-0.031-0.302-0.046&#10;&#9;&#9;&#9;c0.07,0.266,0.145,0.531,0.21,0.798c0.267,0.973,0.607,1.919,0.914,2.868c0.263,0.961,0.524,1.915,0.782,2.856&#10;&#9;&#9;&#9;c0.11,0.388,0.218,0.771,0.327,1.153c0.049,0.021,0.098,0.04,0.147,0.06C283.526,161.379,283.403,160.966,283.305,160.543z&#10;&#9;&#9;&#9; M298.385,166.494c-0.297-1.475-0.507-2.991-0.766-4.497c-0.133-0.753-0.205-1.516-0.285-2.274&#10;&#9;&#9;&#9;c-0.082-0.641-0.217-1.27-0.342-1.896c-0.124-0.036-0.252-0.069-0.374-0.105c0.117,0.683,0.348,1.352,0.436,2.047&#10;&#9;&#9;&#9;c0.114,0.753,0.111,1.527,0.322,2.269c0.546,1.46,0.391,3.036,0.822,4.492c0.265,1.192,0.524,2.362,0.779,3.511&#10;&#9;&#9;&#9;c0.044,0.026,0.089,0.053,0.134,0.078C298.844,168.939,298.624,167.727,298.385,166.494z M289.652,161.197&#10;&#9;&#9;&#9;c-0.16-0.774-0.214-1.574-0.463-2.333c-0.468-1.136-0.563-2.349-0.783-3.525c-0.077-0.018-0.153-0.032-0.23-0.049&#10;&#9;&#9;&#9;c0.256,1.202,0.514,2.409,0.773,3.623c0.172,0.775,0.3,1.56,0.426,2.342c0.145,0.777,0.366,1.536,0.553,2.296&#10;&#9;&#9;&#9;c0.093,0.477,0.198,0.946,0.306,1.414c0.081,0.045,0.164,0.09,0.245,0.135c-0.061-0.538-0.108-1.083-0.214-1.619&#10;&#9;&#9;&#9;C290.114,162.715,289.796,161.976,289.652,161.197z M349.328,173.379c-0.032,0.864-0.217,1.735-0.25,2.615&#10;&#9;&#9;&#9;c-0.036,0.881,0.098,1.773,0.054,2.665c-0.057,0.89-0.224,1.777-0.191,2.676c0.213,1.809-0.317,3.566-0.379,5.327&#10;&#9;&#9;&#9;c-0.085,1.216-0.19,2.416-0.345,3.587c0.034,0.013,0.07,0.025,0.104,0.038c0.051-0.334,0.096-0.66,0.148-0.997&#10;&#9;&#9;&#9;c0.118-0.856,0.185-1.73,0.281-2.608c0.089-0.878,0.18-1.763,0.271-2.651c0.055-0.892,0.11-1.786,0.165-2.681&#10;&#9;&#9;&#9;c0.045-0.896,0.137-1.789,0.229-2.68c0.044-0.893,0.009-1.784,0.006-2.667c0.016-0.882,0.053-1.757,0.051-2.622&#10;&#9;&#9;&#9;c-0.008-0.209-0.005-0.414-0.008-0.621c-0.044-0.057-0.088-0.111-0.132-0.168C349.331,172.855,349.33,173.113,349.328,173.379z&#10;&#9;&#9;&#9; M340.635,187.605c0.041,0.014,0.082,0.027,0.122,0.041c0.006-0.079,0.011-0.154,0.016-0.234c0.036-0.81,0.15-1.625,0.167-2.461&#10;&#9;&#9;&#9;c0.024-0.833,0.049-1.676,0.074-2.526c0.018-0.851,0.064-1.707,0.062-2.567c-0.014-0.859-0.027-1.724-0.041-2.587&#10;&#9;&#9;&#9;c-0.022-0.863,0.009-1.727,0.026-2.59c-0.014-0.86-0.107-1.714-0.166-2.563c-0.04-0.849-0.063-1.692-0.117-2.523&#10;&#9;&#9;&#9;c-0.072-0.831-0.092-1.653-0.107-2.464c-0.007-0.277-0.013-0.544-0.02-0.818c-0.054-0.024-0.108-0.049-0.163-0.074&#10;&#9;&#9;&#9;c0.016,0.301,0.038,0.594,0.046,0.899c0.032,0.809,0.065,1.631,0.099,2.463c0.021,0.833-0.105,1.682-0.082,2.53&#10;&#9;&#9;&#9;c0.022,0.85,0.212,1.699,0.227,2.559c0.018,0.859-0.089,1.724,0.011,2.584c0.333,1.723-0.021,3.45,0.036,5.146&#10;&#9;&#9;&#9;c-0.022,1.697,0.04,3.373-0.17,4.982C340.647,187.471,340.643,187.536,340.635,187.605z M308.812,174.669&#10;&#9;&#9;&#9;c-0.203-0.792-0.43-1.596-0.624-2.423c-0.204-0.824-0.41-1.662-0.62-2.511c-0.2-0.851-0.259-1.747-0.465-2.614&#10;&#9;&#9;&#9;c-0.204-0.869-0.574-1.703-0.772-2.583c-0.214-0.876-0.323-1.782-0.626-2.641c-0.373-0.868-0.573-1.778-0.758-2.69&#10;&#9;&#9;&#9;c-0.056-0.006-0.113-0.011-0.169-0.017c0.232,0.919,0.462,1.842,0.69,2.766c0.227,0.877,0.409,1.765,0.589,2.649&#10;&#9;&#9;&#9;c0.199,0.88,0.474,1.738,0.714,2.597c0.405,1.736,0.933,3.414,1.285,5.076c0.191,0.827,0.379,1.641,0.563,2.438&#10;&#9;&#9;&#9;c0.044,0.199,0.082,0.396,0.122,0.595c0.114,0.056,0.22,0.111,0.336,0.168C308.976,175.215,308.879,174.947,308.812,174.669z&#10;&#9;&#9;&#9; M331.917,182.013c-0.086-1.681-0.105-3.418-0.147-5.184c-0.037-1.766-0.074-3.56-0.111-5.354&#10;&#9;&#9;&#9;c-0.004-0.898-0.009-1.796-0.014-2.69c-0.028-0.893-0.134-1.777-0.207-2.658c-0.043-1.142-0.14-2.266-0.211-3.375&#10;&#9;&#9;&#9;c-0.044-0.014-0.087-0.025-0.131-0.039c0.014,0.27,0.027,0.532,0.041,0.804c0.034,0.864-0.078,1.749-0.041,2.631&#10;&#9;&#9;&#9;c0.035,0.882,0.239,1.762,0.267,2.655c0.057,0.892-0.055,1.794,0.052,2.686c0.328,1.779-0.005,3.588,0.167,5.346&#10;&#9;&#9;&#9;c0.054,1.764,0.198,3.5,0.216,5.182c0.004,0.867,0.029,1.719,0.045,2.552c0.063,0.022,0.127,0.045,0.191,0.067&#10;&#9;&#9;&#9;c-0.002-0.05-0.001-0.098-0.003-0.147C331.994,183.679,331.956,182.852,331.917,182.013z M325.286,181.516&#10;&#9;&#9;&#9;c-0.108-0.854-0.218-1.725-0.331-2.611c-0.242-1.772-0.368-3.614-0.56-5.481c-0.176-1.869-0.355-3.767-0.535-5.665&#10;&#9;&#9;&#9;c-0.104-0.947-0.209-1.895-0.287-2.843c-0.104-0.944-0.284-1.875-0.43-2.803c-0.062-0.494-0.133-0.978-0.201-1.467&#10;&#9;&#9;&#9;c-0.081-0.013-0.159-0.027-0.241-0.04c0.02,0.518,0.039,1.037,0.102,1.553c0.109,0.931,0.387,1.848,0.489,2.791&#10;&#9;&#9;&#9;c0.112,0.943,0.142,1.897,0.324,2.836c0.469,1.865,0.279,3.802,0.591,5.655c0.204,1.863,0.456,3.697,0.63,5.476&#10;&#9;&#9;&#9;c0.097,1.111,0.22,2.192,0.319,3.249c0.068,0.025,0.136,0.05,0.205,0.075C325.337,181.999,325.317,181.76,325.286,181.516z&#10;&#9;&#9;&#9; M315.86,176.051c-0.167-1.794-0.163-3.663-0.503-5.528c-0.289-1.868-0.48-3.783-0.853-5.668&#10;&#9;&#9;&#9;c-0.185-0.942-0.325-1.893-0.464-2.841c-0.125-0.734-0.289-1.457-0.456-2.176c-0.12-0.007-0.24-0.014-0.361-0.021&#10;&#9;&#9;&#9;c0.178,0.747,0.41,1.486,0.54,2.25c0.172,0.94,0.238,1.903,0.5,2.83c0.117,0.466,0.296,0.923,0.368,1.395l0.167,1.428&#10;&#9;&#9;&#9;c0.094,0.952,0.203,1.896,0.373,2.826c0.352,1.857,0.472,3.714,0.572,5.51c0.042,0.842,0.084,1.669,0.125,2.482&#10;&#9;&#9;&#9;c0.065,0.027,0.129,0.054,0.194,0.081C315.996,177.779,315.929,176.922,315.86,176.051z" style="opacity:0.4;fill:#6BB551;"/>
		<path d="M462.564,118.166c-1.869-0.496-4.227-0.915-6.879-1.266c-0.857-0.096-0.621,12.1-0.994,12.6&#10;&#9;&#9;&#9;c-0.375,0.5-2.236-12.949-3.476-13.101c-12.189-1.159-27.935-1.176-34.15-0.566c-0.813,0.079-1.701,0.267-2.646,0.539&#10;&#9;&#9;&#9;c-0.591,0.238-0.698,0.657-0.479,1.878c0.294,1.639,5.25,19.375,5.125,20.375s-8.375-16.5-9-17.625&#10;&#9;&#9;&#9;c-0.624-1.125-1.598-2.197-2.891-1.534c-7.961,4.21-16.753,10.906-19.942,13.867c-0.727,0.675-1.502,1.474-2.299,2.347&#10;&#9;&#9;&#9;c-0.543,0.641-0.715,1.288,0.382,3.32c1.263,2.34,9.75,16.375,9.875,17.25s-11.375-12.125-12.375-13.5&#10;&#9;&#9;&#9;c-0.997-1.371-2.101-1.992-2.981-0.841c-2.781,3.714-5.437,7.735-7.269,11.007c-3.5,6.25-3.667,14.083-2.25,17.417&#10;&#9;&#9;&#9;c1.417,3.334,9.414,14.675,9.039,18.05s-3.747,15.492-4.456,26.617h4.667c0,0-1.167-13.5,3-27.5&#10;&#9;&#9;&#9;c4.167-14,15.833-31.333,30.833-39.5s29.167-12,43.668-13.667c14.498-1.667,31.498,0.001,30.998-1.333&#10;&#9;&#9;&#9;S473.23,120.999,462.564,118.166z" style="fill:#3D853C;"/>
		<path d="M375.565,215c2.75-8.875,5.125-10.5,7.5-15.875s4.625-12.5,10.25-19.25s7.875-8.25,15.5-10.875&#10;&#9;&#9;&#9;s18.375-4.566,18-3.783s-20.365,14.467-25.62,21.063c-5.255,6.596-17.755,13.846-21.63,28.721H375.565z" style="fill:#3D853C;"/>
		<path d="M357.815,201.5c-2.75-2.375-6.875-6.125-11.5-7.75s-16.25-2.209-22.625-1.417&#10;&#9;&#9;&#9;c-6.375,0.792-0.375,1.667,3.5,2.542s9.125,6.25,19.25,9.375s17.625,5.125,20.375,10.75h3.5&#10;&#9;&#9;&#9;C365.65,209.504,360.565,203.875,357.815,201.5z" style="fill:#3D853C;"/>
		<g>
			<path d="M367.815,139.852c-0.694-3.102-6.304-13.699-8.724-17.744c-0.535-0.846-6.777,7.393-7.401,6.768&#10;&#9;&#9;&#9;&#9;c-0.625-0.625,4.891-11.188,4.21-12.539c-2.633-5.151-6.192-12.463-8.21-15.711c-1.278-2.057-3.571-4.632-6.172-7.33&#10;&#9;&#9;&#9;&#9;c-0.616-0.632-2.703,0.956-3.453,3.58c-0.75,2.625-2.75,12.125-2.875,11.625s-0.875-12,0-14.625s1.286-5.662,0.597-6.348&#10;&#9;&#9;&#9;&#9;c-1.458-1.451-2.862-2.856-4.097-4.152c-5.125-5.375-14-12.5-19.5-15.125s-20.432-3.665-19.25-3.375&#10;&#9;&#9;&#9;&#9;c1.182,0.29,17.75,17.375,21.25,24.25S322.065,116.5,326.815,123s27.875,30,30,35.375s4.574,13.588,4.574,13.588&#10;&#9;&#9;&#9;&#9;c-0.824-9.838,1.301-12.088,2.801-17.463S368.565,143.203,367.815,139.852z" style="fill:#6BB551;"/>
			<path d="M326.667,104.211c-0.107,0.91,0.069,1.844-0.12,2.709&#10;&#9;&#9;&#9;&#9;c-0.146,0.869-0.384,1.697-0.512,2.512c-0.136,0.814-0.239,1.604-0.314,2.361c-0.038,0.379-0.093,0.749-0.115,1.114&#10;&#9;&#9;&#9;&#9;c0.013,0.366,0.025,0.725,0.038,1.073c0.012,0.35,0.044,0.69,0.039,1.021c0.009,0.31,0.06,0.642,0.054,0.948&#10;&#9;&#9;&#9;&#9;c-0.089,0.627,0.12,1.196,0.207,1.727c0.124,0.526,0.241,1.009,0.358,1.447c0.192,0.879,0.299,1.574,0.297,2.055&#10;&#9;&#9;&#9;&#9;c0.02,0.48-0.033,0.741-0.034,0.741l-0.432,0.042c-0.114-0.188-0.228-0.383-0.342-0.586c0.003-0.041,0.008-0.075,0.011-0.12&#10;&#9;&#9;&#9;&#9;c0.054-0.485,0.016-1.187-0.079-2.075c-0.119-0.885-0.282-1.965-0.387-3.209c-0.037-0.624,0.014-1.305,0.036-1.994&#10;&#9;&#9;&#9;&#9;c0.012-0.349,0.023-0.706,0.036-1.072c0.03-0.367,0.09-0.741,0.135-1.123c0.094-0.766,0.191-1.559,0.328-2.373&#10;&#9;&#9;&#9;&#9;c0.116-0.818,0.161-1.674,0.244-2.545c0.114-0.869,0.23-1.761,0.35-2.672c0.099-0.916,0.223-1.851,0.307-2.803&#10;&#9;&#9;&#9;&#9;c0.19-1.904,0.204-3.885,0.385-5.889c0.058-1.004,0.042-2.021,0.18-3.032c0.161-1.008,0.32-2.018,0.434-3.033&#10;&#9;&#9;&#9;&#9;c0.231-2.027,0.558-4.046,0.754-6.046c0.109-0.945,0.216-1.883,0.323-2.811c0.038,0.035,0.074,0.069,0.112,0.104&#10;&#9;&#9;&#9;&#9;c-0.085,0.901-0.163,1.811-0.248,2.729c-0.066,2.021-0.75,3.987-0.698,6.057c-0.036,1.021-0.27,2.017-0.396,3.026&#10;&#9;&#9;&#9;&#9;c-0.137,1.007-0.023,2.032-0.12,3.03c-0.112,0.997-0.299,1.983-0.391,2.966c-0.067,0.983-0.134,1.955-0.199,2.91&#10;&#9;&#9;&#9;&#9;C326.828,102.355,326.747,103.293,326.667,104.211z M315.975,89.502c0.008-0.688-0.256-1.379-0.289-2.098&#10;&#9;&#9;&#9;&#9;c-0.053-0.717-0.106-1.45-0.161-2.196c-0.04-0.746-0.112-1.503-0.165-2.271c-0.05-0.768,0.049-1.557,0.003-2.338&#10;&#9;&#9;&#9;&#9;c-0.048-0.783-0.26-1.56-0.28-2.354c-0.046-0.792,0.027-1.591-0.073-2.383c-0.046-0.396-0.13-0.792-0.152-1.189&#10;&#9;&#9;&#9;&#9;c-0.001-0.397,0.029-0.795,0.042-1.191c0.034-0.791,0.068-1.578,0.102-2.36c0.009-0.433,0.027-0.862,0.054-1.289&#10;&#9;&#9;&#9;&#9;c-0.049-0.03-0.099-0.06-0.147-0.089c-0.042,0.452-0.074,0.908-0.095,1.367c-0.061,0.784-0.08,1.575-0.077,2.37&#10;&#9;&#9;&#9;&#9;c-0.018,0.796-0.004,1.593,0.028,2.39c0.012,0.799,0.024,1.597,0.036,2.393c0.021,0.795,0.134,1.581,0.22,2.361&#10;&#9;&#9;&#9;&#9;c0.063,0.782,0.112,1.56,0.194,2.324c0.099,0.764,0.14,1.522,0.173,2.27c0.041,0.746,0.079,1.479,0.098,2.198&#10;&#9;&#9;&#9;&#9;c0.017,0.72-0.016,1.425,0.057,2.106c0.179,1.169,0.213,2.287,0.211,3.338c0.059,0.159,0.116,0.316,0.175,0.479&#10;&#9;&#9;&#9;&#9;c-0.01-0.59-0.02-1.201-0.03-1.835C315.873,90.861,316.001,90.188,315.975,89.502z M356.98,146.494&#10;&#9;&#9;&#9;&#9;c0.083-0.683,0.167-1.377,0.252-2.079c0.095-0.701,0.337-1.392,0.432-2.109c0.097-0.716,0.026-1.458,0.132-2.181&#10;&#9;&#9;&#9;&#9;c0.09-0.726,0.289-1.441,0.29-2.18c-0.102-1.488,0.454-2.899,0.503-4.348c0.16-1.435,0.251-2.855,0.446-4.217&#10;&#9;&#9;&#9;&#9;c0.099-0.681,0.196-1.35,0.291-2.005c0.099-0.654,0.166-1.299,0.357-1.907c0.17-0.59,0.273-1.171,0.349-1.739&#10;&#9;&#9;&#9;&#9;c-0.086-0.151-0.168-0.294-0.251-0.438c-0.114,0.688-0.231,1.397-0.354,2.14c-0.238,1.239-0.359,2.565-0.503,3.934&#10;&#9;&#9;&#9;&#9;c-0.14,1.369-0.347,2.775-0.522,4.209c-0.185,1.433-0.372,2.888-0.56,4.343c-0.079,0.729-0.202,1.453-0.327,2.174&#10;&#9;&#9;&#9;&#9;c-0.105,0.724-0.132,1.452-0.191,2.173c-0.196,1.431-0.258,2.855-0.48,4.213c-0.095,0.681-0.189,1.35-0.282,2.006&#10;&#9;&#9;&#9;&#9;c-0.097,0.654-0.245,1.287-0.3,1.916c-0.045,0.63-0.053,1.248-0.128,1.836c-0.087,0.587-0.165,1.154-0.263,1.696&#10;&#9;&#9;&#9;&#9;c-0.148,0.787-0.252,1.51-0.379,2.192c0.106,0.153,0.209,0.304,0.305,0.447c0.109-0.791,0.05-1.684,0.249-2.615&#10;&#9;&#9;&#9;&#9;c0.08-0.545,0.163-1.111,0.25-1.698c0.073-0.589,0.29-1.178,0.396-1.8c0.135-0.617-0.012-1.291,0.069-1.948&#10;&#9;&#9;&#9;&#9;C356.833,147.851,356.887,147.176,356.98,146.494z M321.135,108.529c0.002-0.679,0.004-1.387,0.006-2.119&#10;&#9;&#9;&#9;&#9;c0.004-0.733,0.119-1.49,0.138-2.27c0.042-0.778-0.188-1.576-0.185-2.393c-0.009-0.817-0.038-1.652-0.029-2.502&#10;&#9;&#9;&#9;&#9;c-0.006-0.849-0.013-1.712-0.019-2.586c0.003-0.874,0.153-1.76,0.153-2.651c0.003-0.892-0.165-1.788-0.154-2.69&#10;&#9;&#9;&#9;&#9;c0.014-0.902,0.136-1.805,0.06-2.71c-0.025-0.452-0.108-0.907-0.092-1.358l0.106-1.352l0.118-1.343&#10;&#9;&#9;&#9;&#9;c0.033-0.452,0.018-0.887,0.085-1.33c0.097-0.887,0.193-1.766,0.288-2.635c0.161-0.854,0.315-1.703,0.516-2.526&#10;&#9;&#9;&#9;&#9;c0.198-0.824,0.461-1.618,0.681-2.404c0.023-0.082,0.05-0.16,0.074-0.242c-0.053-0.043-0.105-0.084-0.158-0.127&#10;&#9;&#9;&#9;&#9;c-0.255,0.891-0.496,1.803-0.711,2.746c-0.158,0.837-0.343,1.682-0.527,2.537c-0.115,0.867-0.231,1.743-0.349,2.627&#10;&#9;&#9;&#9;&#9;c-0.119,0.889-0.114,1.789-0.178,2.689c-0.051,0.902-0.103,1.807-0.096,2.714c-0.001,0.906-0.049,1.812-0.097,2.715&#10;&#9;&#9;&#9;&#9;c-0.01,0.903,0.059,1.801,0.094,2.692c0.015,0.892,0.03,1.776,0.045,2.65c0.045,0.873,0.04,1.736,0.026,2.586&#10;&#9;&#9;&#9;&#9;c-0.011,0.849-0.023,1.684-0.034,2.502c-0.019,0.816-0.086,1.617-0.047,2.396c0.044,0.777,0.124,1.534,0.133,2.267&#10;&#9;&#9;&#9;&#9;c-0.003,0.732,0.001,1.439-0.02,2.119c-0.006,0.185-0.008,0.363-0.012,0.545c0.065,0.203,0.131,0.406,0.197,0.607&#10;&#9;&#9;&#9;&#9;C321.123,109.309,321.113,108.926,321.135,108.529z M361.037,163.332c-0.295,0.757-0.477,1.441-0.664,2.002&#10;&#9;&#9;&#9;&#9;c-0.108,0.275-0.189,0.515-0.292,0.714c-0.119,0.181-0.218,0.313-0.335,0.4c-0.026,0.019-0.047,0.029-0.071,0.045&#10;&#9;&#9;&#9;&#9;c0.081,0.248,0.162,0.497,0.239,0.735l0.041,0.036c0,0.001,0.168-0.073,0.393-0.291c0.119-0.126,0.267-0.375,0.384-0.649&#10;&#9;&#9;&#9;&#9;c0.076-0.224,0.132-0.523,0.185-0.787c0.028-0.283,0.083-0.607,0.134-0.969c0.089-0.343,0.075-0.76,0.359-1.08&#10;&#9;&#9;&#9;&#9;c0.078-0.148,0.141-0.311,0.202-0.477c0.11-0.611,0.238-1.186,0.381-1.73C361.66,162.027,361.385,162.737,361.037,163.332z&#10;&#9;&#9;&#9;&#9; M330.663,126.975c0.064-0.299,0.075-0.647,0.115-1.045c0.005-0.393,0.05-0.887,0.075-1.396c0.087-0.505-0.014-1.085,0.218-1.652&#10;&#9;&#9;&#9;&#9;c0.244-1.165,0.063-2.502,0.289-3.935c0.073-0.719,0.148-1.467,0.227-2.241c0.08-0.775,0.273-1.566,0.372-2.389&#10;&#9;&#9;&#9;&#9;c0.13-0.817-0.026-1.688,0.022-2.554c0.046-0.868,0.074-1.755,0.14-2.655c0.056-0.901,0.113-1.816,0.171-2.744&#10;&#9;&#9;&#9;&#9;c0.066-0.927,0.287-1.853,0.357-2.797c0.072-0.943-0.024-1.909,0.057-2.864c0.071-0.953,0.225-1.911,0.229-2.866&#10;&#9;&#9;&#9;&#9;c-0.036-1.947,0.584-3.809,0.698-5.705c0.1-0.942,0.201-1.878,0.367-2.79c0.146-0.916,0.287-1.822,0.474-2.706&#10;&#9;&#9;&#9;&#9;c0.024-0.118,0.044-0.233,0.068-0.35c-0.038-0.037-0.074-0.074-0.111-0.111c-0.025,0.149-0.049,0.291-0.074,0.441&#10;&#9;&#9;&#9;&#9;c-0.273,1.785-0.716,3.605-0.911,5.492c-0.249,1.879-0.501,3.787-0.754,5.696c-0.082,0.963-0.161,1.92-0.267,2.874&#10;&#9;&#9;&#9;&#9;c-0.081,0.956-0.083,1.915-0.118,2.863c-0.15,1.891-0.153,3.759-0.322,5.557c-0.069,0.9-0.137,1.785-0.204,2.651&#10;&#9;&#9;&#9;&#9;c-0.063,0.868-0.204,1.704-0.253,2.532c-0.037,0.827-0.036,1.635-0.103,2.41c-0.083,0.774-0.163,1.522-0.24,2.24&#10;&#9;&#9;&#9;&#9;c-0.2,1.43-0.248,2.764-0.515,3.905c-0.127,1.14-0.321,2.148-0.463,2.985c-0.085,0.386-0.145,0.728-0.231,1.033&#10;&#9;&#9;&#9;&#9;c0.207,0.24,0.422,0.486,0.642,0.737C330.638,127.41,330.649,127.209,330.663,126.975z M337.04,131.415&#10;&#9;&#9;&#9;&#9;c-0.165,0.685-0.329,1.214-0.518,1.557c-0.167,0.348-0.321,0.518-0.321,0.518l0.855,0.206c0,0,0.125-0.176,0.243-0.536&#10;&#9;&#9;&#9;&#9;c0.14-0.354,0.236-0.899,0.305-1.607c0.016-0.358,0.034-0.755,0.053-1.188c0.056-0.423-0.001-0.909,0.253-1.353&#10;&#9;&#9;&#9;&#9;c0.317-0.932,0.318-2.07,0.685-3.223c0.149-0.585,0.305-1.194,0.465-1.825c0.148-0.634,0.441-1.255,0.625-1.922&#10;&#9;&#9;&#9;&#9;c0.2-0.659,0.179-1.405,0.319-2.114c0.143-0.713,0.268-1.444,0.434-2.181c0.078-0.368,0.158-0.741,0.237-1.115&#10;&#9;&#9;&#9;&#9;c0.058-0.38,0.099-0.765,0.171-1.146c0.127-0.766,0.402-1.521,0.53-2.309c0.123-0.786,0.046-1.6,0.163-2.394&#10;&#9;&#9;&#9;&#9;c0.096-0.796,0.308-1.585,0.305-2.394c-0.113-1.636,0.393-3.188,0.511-4.771c0.081-0.79,0.192-1.565,0.337-2.326&#10;&#9;&#9;&#9;&#9;c0.138-0.762,0.239-1.523,0.442-2.251c0.274-1.079,0.54-2.118,0.832-3.126c-0.058-0.064-0.117-0.129-0.175-0.193&#10;&#9;&#9;&#9;&#9;c-0.101,0.367-0.203,0.739-0.293,1.12c-0.155,0.71-0.313,1.437-0.474,2.174c-0.167,0.736-0.297,1.494-0.458,2.255&#10;&#9;&#9;&#9;&#9;c-0.076,0.381-0.153,0.765-0.23,1.15c-0.056,0.389-0.112,0.779-0.169,1.171c-0.251,1.564-0.392,3.173-0.568,4.771&#10;&#9;&#9;&#9;&#9;c-0.075,0.802-0.212,1.596-0.342,2.388c-0.116,0.792-0.137,1.594-0.222,2.381c-0.111,0.783-0.238,1.558-0.332,2.327&#10;&#9;&#9;&#9;&#9;c-0.05,0.385-0.099,0.768-0.148,1.148c-0.084,0.373-0.169,0.744-0.252,1.112c-0.168,0.735-0.333,1.459-0.496,2.167&#10;&#9;&#9;&#9;&#9;c-0.157,0.711-0.421,1.367-0.544,2.054c-0.125,0.681-0.212,1.353-0.362,1.985c-0.162,0.631-0.311,1.241-0.478,1.821&#10;&#9;&#9;&#9;&#9;c-0.341,1.159-0.565,2.244-0.906,3.171C337.288,129.871,337.191,130.727,337.04,131.415z M308.579,76.789&#10;&#9;&#9;&#9;&#9;c-0.034-0.406-0.091-0.812-0.088-1.216l0.073-1.211c0.066-0.806,0.115-1.608,0.102-2.405c0.027-1.595-0.015-3.167,0.053-4.685&#10;&#9;&#9;&#9;&#9;c0.001-0.072,0.008-0.142,0.01-0.214c-0.039-0.01-0.08-0.021-0.119-0.031c0,0.08-0.005,0.158-0.003,0.239&#10;&#9;&#9;&#9;&#9;c-0.012,1.521-0.087,3.089-0.129,4.685c-0.047,1.595-0.096,3.215-0.144,4.835c-0.002,0.811-0.048,1.62-0.097,2.427&#10;&#9;&#9;&#9;&#9;c-0.02,0.557-0.003,1.111,0.015,1.664c0.121,0.146,0.241,0.291,0.36,0.436c-0.015-0.695-0.118-1.395-0.092-2.096&#10;&#9;&#9;&#9;&#9;C308.533,78.409,308.655,77.601,308.579,76.789z M347.67,145.889c0.105-0.564,0.214-1.15,0.327-1.758&#10;&#9;&#9;&#9;&#9;c0.097-0.613,0.363-1.197,0.478-1.858c0.146-0.641,0.027-1.344,0.14-2.024c0.102-0.681,0.186-1.381,0.309-2.086&#10;&#9;&#9;&#9;&#9;c0.124-0.704,0.249-1.42,0.376-2.145c0.138-0.724,0.421-1.424,0.559-2.159c0.104-0.714,0.25-1.487,0.455-2.211&#10;&#9;&#9;&#9;&#9;c0.108-0.364,0.244-0.722,0.367-1.084c0.131-0.357,0.297-0.701,0.372-1.075c0.251-1.52,1.126-2.829,1.516-4.286&#10;&#9;&#9;&#9;&#9;c0.495-1.42,0.919-2.842,1.43-4.178c0.257-0.668,0.51-1.325,0.757-1.968c0.255-0.64,0.469-1.279,0.765-1.869&#10;&#9;&#9;&#9;&#9;c0.146-0.256,0.277-0.515,0.402-0.774c-0.008-0.026-0.013-0.057-0.023-0.078c-0.051-0.1-0.104-0.205-0.156-0.307&#10;&#9;&#9;&#9;&#9;c-0.155,0.353-0.31,0.696-0.464,1.067c-0.204,0.624-0.477,1.241-0.701,1.893c-0.224,0.652-0.452,1.318-0.684,1.995&#10;&#9;&#9;&#9;&#9;c-0.459,1.357-0.993,2.736-1.502,4.15c-0.519,1.412-1.046,2.847-1.574,4.28c-0.554,1.429-1.082,2.865-1.295,4.37&#10;&#9;&#9;&#9;&#9;c-0.283,1.477-0.436,2.954-0.736,4.355c-0.126,0.705-0.249,1.398-0.371,2.076c-0.129,0.677-0.303,1.33-0.37,1.984&#10;&#9;&#9;&#9;&#9;c-0.087,1.311-0.301,2.541-0.551,3.656c-0.032,0.139-0.061,0.273-0.091,0.41c0.052,0.059,0.104,0.117,0.156,0.176&#10;&#9;&#9;&#9;&#9;C347.594,146.259,347.623,146.075,347.67,145.889z M342.127,138.156c0.164-0.548,0.307-1.126,0.454-1.725&#10;&#9;&#9;&#9;&#9;c0.136-0.602,0.415-1.186,0.587-1.818c0.197-0.625,0.133-1.34,0.302-2.006c0.171-0.666,0.327-1.352,0.523-2.039&#10;&#9;&#9;&#9;&#9;c0.197-0.688,0.364-1.395,0.579-2.098c0.214-0.704,0.571-1.375,0.787-2.091c0.204-0.72,0.326-1.471,0.576-2.187&#10;&#9;&#9;&#9;&#9;c0.259-0.713,0.562-1.412,0.785-2.137c0.307-1.51,1.239-2.783,1.675-4.226c0.582-1.384,0.899-2.85,1.376-4.194&#10;&#9;&#9;&#9;&#9;c0.447-1.357,0.849-2.682,1.374-3.882c0.241-0.534,0.44-1.069,0.62-1.597c-0.067-0.133-0.135-0.267-0.202-0.398&#10;&#9;&#9;&#9;&#9;c-0.228,0.61-0.457,1.241-0.662,1.908c-0.186,0.63-0.453,1.252-0.651,1.911c-0.191,0.661-0.386,1.336-0.585,2.023&#10;&#9;&#9;&#9;&#9;c-0.191,0.689-0.434,1.372-0.664,2.07c-0.215,0.701-0.491,1.393-0.781,2.086c-0.571,1.389-1.15,2.799-1.73,4.209&#10;&#9;&#9;&#9;&#9;c-0.153,0.35-0.286,0.708-0.408,1.069l-0.416,1.065c-0.25,0.719-0.468,1.445-0.636,2.178c-0.436,1.438-0.755,2.883-1.169,4.252&#10;&#9;&#9;&#9;&#9;c-0.374,1.379-0.826,2.689-1.11,3.967c-0.187,1.306-0.429,2.523-0.793,3.608c-0.175,0.537-0.322,1.058-0.468,1.552&#10;&#9;&#9;&#9;&#9;c0.075,0.082,0.149,0.165,0.224,0.248C341.815,139.346,341.917,138.752,342.127,138.156z" style="opacity:0.2;fill:#3D853C;"/>
			<path d="M365.696,180.75c-1.506-9.375-5.631-17.875-5.631-17.875s-1.125-15.125-2.25-20.5&#10;&#9;&#9;&#9;&#9;c-0.364-1.738-0.651-2.818-1.014-3.563c-0.355-0.752-5.738,9.939-6.486,10.688c-0.75,0.75,2.792-13.249,1.75-13.75&#10;&#9;&#9;&#9;&#9;c-4.25-2.125-11-5.5-12.625-11.875S335.065,110,331.565,106.5c-1.397-1.396-2.793-2.799-4.086-4.434&#10;&#9;&#9;&#9;&#9;c-0.61-0.74-1.664,12.934-2.039,14.184s-0.946-18.962-1.45-20.093h0.002c-0.489-1.175-0.929-2.464-1.302-3.907&#10;&#9;&#9;&#9;&#9;c-1.875-7.25-3.375-11.375-8.125-14.75s-10.375-5.875-14.25-8.375s-7.625-5.125-7.375-4.25s9.75,13.375,12.625,18.875&#10;&#9;&#9;&#9;&#9;s25,51.25,32.75,60.625S353.69,161.5,357.065,168s11.458,33.375,12.417,47h5.452C374.934,215,367.202,190.125,365.696,180.75z" style="fill:#3D853C;"/>
		</g>
		<path d="M308.192,88.843l-0.01,0.116c-0.063-0.126-0.122-0.245-0.183-0.367&#10;&#9;&#9;&#9;c0.021-0.369,0.042-0.738,0.09-1.104c0.118-0.884,0.234-1.76,0.349-2.627c0.184-0.855,0.369-1.7,0.527-2.537&#10;&#9;&#9;&#9;c0.379-1.658,0.82-3.244,1.317-4.721c0.246-0.83,0.503-1.619,0.758-2.385c0.093,0.056,0.185,0.115,0.277,0.172&#10;&#9;&#9;&#9;c-0.219,0.75-0.468,1.52-0.789,2.291c-0.304,0.719-0.547,1.48-0.768,2.266c-0.22,0.786-0.482,1.58-0.681,2.404&#10;&#9;&#9;&#9;c-0.201,0.823-0.355,1.672-0.516,2.526c-0.095,0.869-0.191,1.748-0.288,2.635C308.21,87.956,308.226,88.391,308.192,88.843z&#10;&#9;&#9;&#9; M302.326,70.339c-0.022,0.159-0.043,0.313-0.065,0.474c-0.105,0.74-0.2,1.496-0.289,2.261c-0.11,0.763-0.167,1.54-0.203,2.325&#10;&#9;&#9;&#9;c-0.055,0.705-0.072,1.416-0.074,2.131c0.054,0.079,0.107,0.158,0.161,0.237c0.034-0.79,0.068-1.576,0.102-2.357&#10;&#9;&#9;&#9;c0.016-0.782,0.054-1.559,0.141-2.321c0.066-0.765,0.132-1.521,0.273-2.257c0.025-0.144,0.048-0.281,0.073-0.424&#10;&#9;&#9;&#9;C302.406,70.385,302.366,70.361,302.326,70.339z M340.518,126.565c-0.025-0.047-0.052-0.093-0.077-0.14&#10;&#9;&#9;&#9;c-0.355,0.986-0.725,1.98-1.091,2.996c-0.519,1.412-1.046,2.847-1.574,4.28c-0.554,1.429-1.082,2.865-1.295,4.37&#10;&#9;&#9;&#9;c-0.197,1.029-0.344,2.049-0.509,3.053c0.037,0.057,0.075,0.113,0.112,0.169c0.058-0.33,0.115-0.654,0.173-0.988&#10;&#9;&#9;&#9;c0.138-0.724,0.421-1.424,0.559-2.159c0.104-0.714,0.25-1.487,0.455-2.211c0.108-0.364,0.244-0.722,0.367-1.084&#10;&#9;&#9;&#9;c0.131-0.357,0.297-0.701,0.373-1.075c0.251-1.52,1.126-2.829,1.516-4.286C339.871,128.503,340.188,127.525,340.518,126.565z&#10;&#9;&#9;&#9; M358.13,144.117c-0.013-0.082-0.026-0.158-0.04-0.238c-0.083,0.192-0.164,0.38-0.247,0.575c-0.984,2.292-2.149,4.686-3.135,7.159&#10;&#9;&#9;&#9;c-0.247,0.618-0.535,1.219-0.824,1.815c-0.27,0.605-0.468,1.237-0.694,1.854c-0.524,1.2-0.918,2.433-1.449,3.563&#10;&#9;&#9;&#9;c-0.131,0.298-0.258,0.586-0.387,0.878c0.039,0.049,0.08,0.098,0.119,0.146c0.126-0.322,0.254-0.646,0.395-0.971&#10;&#9;&#9;&#9;c0.24-0.576,0.483-1.161,0.73-1.754c0.255-0.588,0.65-1.126,0.908-1.727c0.265-0.599,0.354-1.278,0.639-1.877&#10;&#9;&#9;&#9;c0.259-0.61,0.608-1.184,0.794-1.827c0.208-1.359,1.101-2.42,1.513-3.67c0.515-1.203,0.949-2.421,1.494-3.544&#10;&#9;&#9;&#9;C358.008,144.369,358.068,144.246,358.13,144.117z M296.255,66.479c-0.095-0.062-0.186-0.119-0.278-0.179&#10;&#9;&#9;&#9;c-0.039,0.291-0.075,0.584-0.101,0.883c-0.048,0.575-0.117,1.167-0.18,1.768c0.056,0.078,0.11,0.155,0.168,0.235&#10;&#9;&#9;&#9;c0.081-0.674,0.136-1.339,0.27-1.979C296.185,66.957,296.212,66.723,296.255,66.479z M343.937,150.781&#10;&#9;&#9;&#9;c0.083-0.683,0.167-1.377,0.252-2.079c0.095-0.701,0.337-1.393,0.432-2.109c0.097-0.716,0.026-1.458,0.132-2.181&#10;&#9;&#9;&#9;c0.09-0.726,0.289-1.441,0.29-2.18c-0.102-1.488,0.454-2.899,0.503-4.348c0.16-1.435,0.251-2.855,0.446-4.217&#10;&#9;&#9;&#9;c0.061-0.422,0.121-0.829,0.181-1.241c-0.05-0.034-0.099-0.067-0.149-0.102c-0.047,0.439-0.095,0.876-0.143,1.327&#10;&#9;&#9;&#9;c-0.14,1.369-0.347,2.775-0.522,4.209c-0.185,1.433-0.373,2.888-0.56,4.343c-0.079,0.729-0.202,1.453-0.327,2.174&#10;&#9;&#9;&#9;c-0.105,0.724-0.132,1.452-0.191,2.173c-0.196,1.431-0.258,2.855-0.48,4.213c-0.003,0.02-0.005,0.038-0.008,0.058&#10;&#9;&#9;&#9;c0.04,0.047,0.082,0.095,0.123,0.143C343.924,150.902,343.929,150.842,343.937,150.781z M331.528,132.758&#10;&#9;&#9;&#9;c0.214-0.704,0.571-1.375,0.787-2.091c0.204-0.72,0.326-1.471,0.576-2.187c0.259-0.713,0.561-1.412,0.785-2.137&#10;&#9;&#9;&#9;c0.307-1.51,1.239-2.783,1.675-4.226c0.582-1.384,0.899-2.85,1.376-4.194c0.153-0.465,0.301-0.916,0.45-1.369&#10;&#9;&#9;&#9;c-0.032-0.086-0.065-0.17-0.097-0.256c-0.151,0.525-0.304,1.051-0.46,1.592c-0.191,0.689-0.434,1.372-0.664,2.07&#10;&#9;&#9;&#9;c-0.215,0.701-0.491,1.393-0.781,2.086c-0.571,1.389-1.15,2.799-1.73,4.209c-0.153,0.351-0.286,0.708-0.408,1.069l-0.416,1.065&#10;&#9;&#9;&#9;c-0.25,0.719-0.468,1.445-0.636,2.178c-0.278,0.919-0.515,1.833-0.753,2.736c0.032,0.055,0.064,0.111,0.095,0.166&#10;&#9;&#9;&#9;C331.393,133.233,331.456,132.996,331.528,132.758z M314.458,99.813c0.096-0.998-0.018-2.023,0.12-3.03&#10;&#9;&#9;&#9;c0.125-1.009,0.359-2.005,0.395-3.026c-0.052-2.069,0.632-4.035,0.698-6.057c0.186-2.004,0.333-3.977,0.605-5.871&#10;&#9;&#9;&#9;c0.129-0.856,0.303-1.689,0.457-2.513c-0.054-0.053-0.11-0.105-0.165-0.158c-0.145,0.869-0.27,1.759-0.41,2.654&#10;&#9;&#9;&#9;c-0.219,1.902-0.445,3.867-0.674,5.864c-0.197,2-0.524,4.019-0.754,6.046c-0.114,1.016-0.274,2.025-0.434,3.033&#10;&#9;&#9;&#9;c-0.137,1.011-0.122,2.028-0.18,3.032c-0.027,0.305-0.046,0.607-0.067,0.911c0.075,0.15,0.151,0.3,0.226,0.45&#10;&#9;&#9;&#9;C314.341,100.704,314.408,100.26,314.458,99.813z M319.25,110.65c0.066-0.927,0.287-1.854,0.356-2.797&#10;&#9;&#9;&#9;c0.072-0.943-0.024-1.909,0.057-2.864c0.071-0.953,0.225-1.911,0.228-2.866c-0.036-1.947,0.585-3.809,0.698-5.705&#10;&#9;&#9;&#9;c0.1-0.942,0.201-1.878,0.367-2.79c0.147-0.916,0.287-1.822,0.474-2.706c0.134-0.646,0.253-1.278,0.373-1.91&#10;&#9;&#9;&#9;c-0.036-0.125-0.073-0.252-0.109-0.375c-0.125,0.744-0.251,1.497-0.381,2.266c-0.273,1.785-0.716,3.604-0.911,5.492&#10;&#9;&#9;&#9;c-0.249,1.879-0.501,3.787-0.754,5.696c-0.082,0.963-0.161,1.92-0.267,2.874c-0.081,0.956-0.083,1.915-0.118,2.863&#10;&#9;&#9;&#9;c-0.076,0.951-0.114,1.897-0.155,2.832c0.041,0.081,0.083,0.162,0.125,0.244C319.24,110.818,319.245,110.736,319.25,110.65z&#10;&#9;&#9;&#9; M326.818,125.34c0.039-0.373,0.07-0.754,0.143-1.125c0.143-0.713,0.268-1.444,0.434-2.181c0.078-0.368,0.158-0.741,0.237-1.115&#10;&#9;&#9;&#9;c0.058-0.38,0.099-0.765,0.171-1.146c0.128-0.766,0.402-1.521,0.53-2.309c0.123-0.786,0.046-1.6,0.163-2.394&#10;&#9;&#9;&#9;c0.096-0.796,0.308-1.585,0.305-2.393c-0.113-1.636,0.393-3.189,0.511-4.771c0.081-0.79,0.192-1.566,0.337-2.326&#10;&#9;&#9;&#9;c0.053-0.294,0.101-0.586,0.151-0.878c-0.028-0.029-0.057-0.059-0.086-0.089c-0.061,0.316-0.125,0.627-0.192,0.945&#10;&#9;&#9;&#9;c-0.076,0.381-0.153,0.765-0.23,1.15c-0.056,0.389-0.112,0.779-0.168,1.171c-0.251,1.564-0.393,3.173-0.568,4.771&#10;&#9;&#9;&#9;c-0.075,0.802-0.212,1.596-0.342,2.388c-0.116,0.792-0.137,1.594-0.222,2.381c-0.111,0.783-0.238,1.558-0.332,2.327&#10;&#9;&#9;&#9;c-0.05,0.385-0.099,0.768-0.148,1.148c-0.085,0.373-0.169,0.744-0.253,1.112c-0.168,0.735-0.333,1.459-0.496,2.167&#10;&#9;&#9;&#9;c-0.054,0.243-0.126,0.475-0.195,0.709C326.653,125.035,326.735,125.188,326.818,125.34z" style="opacity:0.4;fill:#6BB551;"/>
		<path d="M394.586,127.469c0.066-0.049,0.133-0.097,0.199-0.146&#10;&#9;&#9;&#9;c0.239,1.709,0.563,3.473,0.841,5.301c0.341,2.187,0.826,4.424,1.238,6.71c0.517,2.26,0.659,4.648,1.584,6.842&#10;&#9;&#9;&#9;c0.451,1.091,0.638,2.266,1.071,3.357c0.397,1.104,0.914,2.155,1.407,3.202c0.4,1.087,0.817,2.161,1.284,3.2&#10;&#9;&#9;&#9;c0.034,0.072,0.074,0.141,0.109,0.213c-0.035,0.032-0.068,0.066-0.103,0.1c-0.569-1.093-1.128-2.208-1.604-3.377&#10;&#9;&#9;&#9;c-0.502-1.05-0.978-2.124-1.359-3.24c-0.206-0.553-0.368-1.121-0.522-1.691l-0.519-1.694c-0.311-1.14-0.612-2.283-0.872-3.431&#10;&#9;&#9;&#9;c-0.219-1.155-0.48-2.3-0.662-3.447c-0.399-2.289-0.76-4.548-1.168-6.723c-0.202-1.088-0.4-2.158-0.594-3.205&#10;&#9;&#9;&#9;C394.795,128.773,394.691,128.117,394.586,127.469z M401.993,124.778l0.172,0.923l0.242,0.912c0.162,0.608,0.325,1.22,0.488,1.832&#10;&#9;&#9;&#9;c0.165,0.613,0.398,1.207,0.593,1.814c0.382,1.218,0.871,2.4,1.353,3.586c0.23,0.597,0.486,1.184,0.75,1.766l0.743,1.768&#10;&#9;&#9;&#9;c0.551,1.149,1.153,2.269,1.759,3.373c1.145,2.244,2.395,4.383,3.517,6.502c0.251,0.464,0.492,0.91,0.738,1.367&#10;&#9;&#9;&#9;c0.049-0.028,0.096-0.057,0.143-0.085c-0.255-0.449-0.51-0.887-0.76-1.349c-0.576-1.051-1.172-2.113-1.746-3.205&#10;&#9;&#9;&#9;c-0.564-1.098-1.037-2.259-1.588-3.389c-0.598-1.105-1.24-2.198-1.807-3.337c-0.509-1.166-0.98-2.353-1.522-3.506l-0.82-1.732&#10;&#9;&#9;&#9;c-0.251-0.587-0.399-1.21-0.605-1.811c-0.4-1.207-0.701-2.435-1.053-3.64l-0.255-0.903l-0.186-0.916&#10;&#9;&#9;&#9;c-0.124-0.61-0.249-1.217-0.372-1.819c-0.017-0.101-0.025-0.201-0.042-0.301c-0.038,0.023-0.076,0.047-0.114,0.07&#10;&#9;&#9;&#9;c0.012,0.084,0.018,0.166,0.031,0.25C401.765,123.554,401.879,124.164,401.993,124.778z M389.092,168.376&#10;&#9;&#9;&#9;c-0.839-0.991-1.643-2.033-2.436-3.093c-0.438-0.496-0.876-0.995-1.316-1.495c-0.441-0.5-0.919-0.974-1.286-1.537&#10;&#9;&#9;&#9;c-0.789-1.082-1.508-2.221-2.36-3.259c-1.78-2.052-2.933-4.512-4.255-6.788c-0.295-0.589-0.611-1.173-0.884-1.76&#10;&#9;&#9;&#9;c-0.252-0.606-0.503-1.21-0.752-1.811c-0.088-0.203-0.166-0.408-0.245-0.613c-0.023,0.036-0.046,0.071-0.07,0.108&#10;&#9;&#9;&#9;c0.5,1.404,1.056,2.808,1.783,4.161c1.215,2.358,2.68,4.634,4.22,6.84c0.794,1.091,1.575,2.188,2.34,3.294&#10;&#9;&#9;&#9;c0.77,1.103,1.716,2.061,2.563,3.08c1.374,1.689,2.848,3.252,4.262,4.799c0.023-0.036,0.049-0.072,0.071-0.107&#10;&#9;&#9;&#9;C390.179,169.6,389.632,168.997,389.092,168.376z M380.612,145.011c0.206,0.483,0.503,0.923,0.753,1.395&#10;&#9;&#9;&#9;c0.258,0.462,0.518,0.946,0.852,1.378c2.435,3.62,5.718,6.93,8.93,10.26c0.806,0.832,1.576,1.695,2.316,2.582&#10;&#9;&#9;&#9;c0.77,0.861,1.557,1.694,2.336,2.529c0.001,0.001,0.002,0.002,0.002,0.003c0.074-0.09,0.143-0.182,0.217-0.271&#10;&#9;&#9;&#9;c-0.74-0.841-1.59-1.604-2.346-2.451c-0.765-0.862-1.482-1.78-2.348-2.562c-1.81-1.475-3.176-3.375-4.797-4.975&#10;&#9;&#9;&#9;c-0.764-0.842-1.537-1.668-2.238-2.535c-0.352-0.434-0.702-0.864-1.049-1.292c-0.324-0.445-0.619-0.907-0.926-1.355&#10;&#9;&#9;&#9;c-0.322-0.438-0.562-0.912-0.812-1.387c-0.239-0.476-0.527-0.926-0.719-1.409c-0.375-0.971-0.809-1.892-1.02-2.871&#10;&#9;&#9;&#9;c-0.004-0.011-0.007-0.021-0.01-0.031c-0.063,0.083-0.124,0.169-0.185,0.253C379.863,143.174,380.227,144.086,380.612,145.011z&#10;&#9;&#9;&#9; M483.906,129.414c-0.078-0.058-0.158-0.115-0.238-0.174c-0.109,0.099-0.211,0.204-0.32,0.303&#10;&#9;&#9;&#9;c-0.514,0.515-0.928,1.093-1.383,1.637c-0.461,0.538-0.953,1.041-1.373,1.594c-0.197,0.27-0.404,0.528-0.615,0.781&#10;&#9;&#9;&#9;c0.053,0.001,0.105,0.001,0.156,0.002c0.19-0.23,0.377-0.457,0.57-0.689c0.443-0.531,1.049-0.936,1.52-1.461&#10;&#9;&#9;&#9;c0.479-0.514,0.828-1.167,1.328-1.665C483.664,129.628,483.787,129.523,483.906,129.414z M449.943,131.859&#10;&#9;&#9;&#9;c0.029-0.898,0.206-1.806,0.234-2.723c0.029-0.918-0.109-1.846-0.072-2.773c0.022-0.929,0.153-1.858,0.086-2.792&#10;&#9;&#9;&#9;c-0.26-1.872,0.146-3.726,0.066-5.563c0.008-0.569,0.006-1.129,0.006-1.692c-0.05-0.004-0.1-0.009-0.148-0.013&#10;&#9;&#9;&#9;c-0.017,0.566-0.033,1.127-0.047,1.699c-0.041,1.836-0.082,3.699-0.123,5.564c-0.01,0.932-0.066,1.863-0.123,2.791&#10;&#9;&#9;&#9;c-0.037,0.928,0.004,1.854,0.012,2.772c-0.063,1.835,0.01,3.643-0.085,5.39c-0.011,0.294-0.021,0.575-0.031,0.865&#10;&#9;&#9;&#9;c0.052-0.009,0.103-0.017,0.154-0.026c0.003-0.277,0.005-0.555,0.015-0.836C449.905,133.648,449.924,132.76,449.943,131.859z&#10;&#9;&#9;&#9; M384.898,178.059c-0.748-0.684-1.506-1.369-2.206-2.121c-0.689-0.758-1.323-1.573-2.061-2.302&#10;&#9;&#9;&#9;c-1.57-1.368-2.736-3.104-4.19-4.526c-0.682-0.751-1.377-1.482-2.005-2.254c-0.663-0.744-1.249-1.534-1.784-2.34&#10;&#9;&#9;&#9;c-0.55-0.794-0.981-1.646-1.438-2.451c-0.341-0.861-0.806-1.656-0.989-2.525c-0.023-0.082-0.046-0.162-0.069-0.244&#10;&#9;&#9;&#9;c-0.039,0.171-0.074,0.34-0.109,0.51c0.124,0.361,0.279,0.719,0.435,1.076c0.184,0.418,0.357,0.85,0.561,1.271&#10;&#9;&#9;&#9;c0.483,0.801,0.938,1.646,1.512,2.43c1.111,1.593,2.388,3.139,3.746,4.653c1.359,1.517,2.789,3.004,4.145,4.563&#10;&#9;&#9;&#9;c0.68,0.778,1.371,1.544,2.039,2.331c0.332,0.396,0.71,0.747,1.063,1.119c0.353,0.372,0.722,0.727,1.111,1.056&#10;&#9;&#9;&#9;c0.353,0.329,0.7,0.651,1.051,0.977c0.036-0.078,0.078-0.157,0.115-0.236C385.52,178.714,385.215,178.381,384.898,178.059z&#10;&#9;&#9;&#9; M460.496,133.757c0.145-0.802,0.273-1.624,0.441-2.454c0.174-0.828,0.301-1.681,0.512-2.525c0.203-0.848,0.551-1.674,0.754-2.536&#10;&#9;&#9;&#9;c0.221-0.858,0.213-1.781,0.498-2.636c0.252-0.863,0.607-1.698,0.771-2.588c0.078-0.841,0.326-1.627,0.615-2.398&#10;&#9;&#9;&#9;c-0.049-0.016-0.1-0.032-0.148-0.048c-0.266,0.781-0.463,1.585-0.703,2.378c-0.24,0.871-0.523,1.729-0.809,2.586&#10;&#9;&#9;&#9;c-0.287,0.857-0.375,1.759-0.56,2.629c-0.188,0.869-0.375,1.731-0.561,2.584c-0.168,0.855-0.324,1.701-0.504,2.529&#10;&#9;&#9;&#9;c-0.17,0.829-0.338,1.645-0.504,2.443c-0.022,0.102-0.047,0.201-0.07,0.304c0.078-0.007,0.156-0.013,0.234-0.018&#10;&#9;&#9;&#9;C460.475,133.923,460.48,133.84,460.496,133.757z M470.1,132.831c0.344-0.658,0.824-1.255,1.201-1.911&#10;&#9;&#9;&#9;c0.373-0.659,0.598-1.404,0.982-2.068c0.361-0.676,0.861-1.277,1.166-1.989c0.391-1.15,1.139-2.093,1.772-3.091&#10;&#9;&#9;&#9;c-0.057-0.033-0.115-0.065-0.174-0.099c-0.611,1.013-1.225,2.028-1.811,3.067c-0.373,0.675-0.809,1.315-1.201,1.975&#10;&#9;&#9;&#9;c-0.385,0.665-0.697,1.365-1.037,2.044c-0.533,0.925-0.961,1.888-1.418,2.815c0.047,0,0.094-0.001,0.141-0.002&#10;&#9;&#9;&#9;C469.848,133.324,469.971,133.082,470.1,132.831z M441.034,134.193c0.004-1.006,0.008-2.027,0.013-3.063&#10;&#9;&#9;&#9;c0.006-1.035,0.081-2.086,0.09-3.145c-0.018-1.059-0.207-2.117-0.219-3.187c-0.032-1.068-0.055-2.146-0.221-3.21l-0.254-1.594&#10;&#9;&#9;&#9;c-0.051-0.534-0.072-1.07-0.109-1.604c-0.037-0.914-0.133-1.821-0.249-2.72c-0.066-0.003-0.132-0.006-0.198-0.009&#10;&#9;&#9;&#9;c0.222,1.963,0.391,3.955,0.566,5.947c0.225,2.134,0.158,4.282,0.342,6.387c0.059,2.109,0.186,4.186,0.102,6.197&#10;&#9;&#9;&#9;c-0.017,1.005-0.033,1.994-0.049,2.962c-0.001,0.026-0.003,0.051-0.004,0.077c0.068-0.017,0.137-0.031,0.205-0.048&#10;&#9;&#9;&#9;c0-0.01-0.002-0.02-0.002-0.029C441.044,136.189,441.02,135.199,441.034,134.193z M425.859,139.327&#10;&#9;&#9;&#9;c-0.201-0.899-0.426-1.815-0.617-2.754c-0.193-0.938-0.391-1.892-0.589-2.856c-0.167-0.973-0.255-1.972-0.416-2.964&#10;&#9;&#9;&#9;c-0.199-0.984-0.495-1.958-0.658-2.963c-0.168-1.003-0.23-2.026-0.487-3.019l-0.305-1.502c-0.067-0.505-0.106-1.014-0.16-1.52&#10;&#9;&#9;&#9;l-0.146-1.514c-0.065-0.505-0.139-0.996-0.175-1.5c-0.094-1.077-0.206-2.141-0.31-3.193c-0.041,0.002-0.083,0.003-0.123,0.004&#10;&#9;&#9;&#9;c0.08,1.057,0.158,2.125,0.245,3.204c0.181,2.006,0.49,4.027,0.731,6.058c0.18,1.007,0.316,2.02,0.451,3.03&#10;&#9;&#9;&#9;c0.162,1.006,0.362,2.001,0.6,2.98c0.381,1.977,0.853,3.9,1.208,5.784c0.188,0.94,0.374,1.863,0.554,2.767&#10;&#9;&#9;&#9;c0.172,0.893,0.295,1.775,0.51,2.613c0.136-0.054,0.272-0.109,0.406-0.163C426.421,140.992,426.04,140.192,425.859,139.327z&#10;&#9;&#9;&#9; M432.024,138.421c-0.175-0.96-0.353-1.936-0.534-2.923c-0.146-0.993-0.241-2.01-0.361-3.026c-0.139-1.013-0.447-2.008-0.58-3.036&#10;&#9;&#9;&#9;c-0.149-1.024-0.191-2.067-0.43-3.084c-0.139-0.506-0.205-1.021-0.279-1.535c-0.044-0.518-0.059-1.037-0.092-1.554&#10;&#9;&#9;&#9;c-0.041-1.036-0.1-2.063-0.221-3.081c-0.051-0.51-0.1-1.017-0.15-1.521c-0.012-0.507-0.024-1.01-0.035-1.511&#10;&#9;&#9;&#9;c0-0.575-0.027-1.146-0.031-1.713c-0.031,0-0.063,0-0.094,0c0.002,0.566,0.011,1.137-0.002,1.712c0,0.503,0.002,1.009,0.002,1.518&#10;&#9;&#9;&#9;c0.041,0.506,0.082,1.015,0.123,1.525c0.182,2.041,0.286,4.125,0.535,6.191c0.162,1.028,0.279,2.064,0.394,3.096&#10;&#9;&#9;&#9;c0.134,1.028,0.345,2.042,0.522,3.051c0.318,2.025,0.81,3.985,1.098,5.916c0.078,0.457,0.152,0.896,0.227,1.346&#10;&#9;&#9;&#9;c0.054-0.018,0.107-0.037,0.159-0.055C432.189,139.297,432.102,138.869,432.024,138.421z M415.695,141.351&#10;&#9;&#9;&#9;c-0.451-0.816-0.912-1.646-1.377-2.486c-0.441-0.855-0.752-1.788-1.178-2.665c-0.406-0.888-0.996-1.699-1.356-2.623&#10;&#9;&#9;&#9;c-0.405-0.905-0.659-1.87-1.081-2.77c-0.972-1.77-1.165-3.796-1.684-5.67c-0.397-1.92-0.864-3.795-1.191-5.635&#10;&#9;&#9;&#9;c-0.013-0.072-0.025-0.144-0.039-0.216c-0.042,0.005-0.082-0.001-0.125,0.008c0.017,0.078,0.032,0.153,0.049,0.231&#10;&#9;&#9;&#9;c0.393,1.826,0.738,3.726,1.122,5.648c0.173,0.967,0.466,1.915,0.694,2.882c0.317,0.941,0.572,1.909,0.943,2.835&#10;&#9;&#9;&#9;c0.352,0.934,0.678,1.877,1.053,2.799c0.361,0.929,0.865,1.787,1.308,2.662c0.444,0.875,0.888,1.743,1.357,2.582&#10;&#9;&#9;&#9;c0.499,0.822,0.933,1.669,1.386,2.485c0.455,0.816,0.902,1.618,1.341,2.403c0.346,0.625,0.669,1.244,1.017,1.837&#10;&#9;&#9;&#9;c0.127-0.063,0.254-0.127,0.381-0.188c-0.383-0.583-0.863-1.123-1.225-1.75C416.628,142.95,416.147,142.168,415.695,141.351z" style="opacity:0.4;fill:#6BB551;"/>
	</g>
	</g>
</svg>