<svg xml:space="preserve" style="max-height: 500px" viewBox="34 265 218 181" y="0px" x="0px" xmlns:xlink="http://www.w3.org/1999/xlink" xmlns="http://www.w3.org/2000/svg" version="1.1" width="218" height="181">

<g id="OBJECTS">
	<g>
		<path d="M147.646,436.061c0,0,8.749-16.224,12.846-20.543c15.394-6.756,30.455-4.572,40.754-4.999&#10;&#9;&#9;&#9;c10.299-0.428,39.979-0.016,44.297,0c-4.651-3.639-12.735-10.284-18.383-12.72c-5.648-2.436-9.815-7.421-22.592-7.863&#10;&#9;&#9;&#9;c-12.776-0.441-30.676,3.212-37.099,4.983c-6.423,1.773-10.41,14.95-12.182,18.827c-1.772,3.876-12.624,22.314-12.624,22.314&#10;&#9;&#9;&#9;H147.646z" style="fill:#244F23;"/>
		<path d="M127.968,370.189c-14.578-9.45-26.834-28.352-31.264-38.834c-4.43-10.484-3.697-22.888-3.03-34.404&#10;&#9;&#9;&#9;c7.607,4.576,13.028,11.074,17.774,14.102c4.746,3.026,21.727,10.852,28.667,24.141c6.94,13.289,7.088,37.803,5.316,48.138&#10;&#9;&#9;&#9;C136.719,377.128,127.968,370.189,127.968,370.189z" style="fill:#244F23;"/>
		<path d="M140.393,436.061c0,0,1.938-14.65-5.297-22.912c-7.235-8.262-13.732-9.738-18.753-11.51&#10;&#9;&#9;&#9;c-5.021-1.772-19.054-1.92-27.689-8.417c-8.635-6.497-26.059-16.242-33.146-23.772c6.35-3.396,19.414-8.722,37.905-7.679&#10;&#9;&#9;&#9;c18.492,1.042,32.823,13.289,39.616,23.034c6.793,9.746,8.293,22.297,8.293,22.297l3.503,14.925c0,0,3.806-20.24,5.086-29.985&#10;&#9;&#9;&#9;c1.28-9.746,5.267-27.466,12.207-34.405c6.94-6.939,19.343-12.256,31.894-14.471c12.551-2.215,32.711,5.464,37.249,7.235&#10;&#9;&#9;&#9;c-4.765,5.168-20.564,15.21-28.538,19.049c-7.973,3.839-37.358,20.524-43.56,27.907c-6.202,7.383-9.097,19.958-9.821,24.452&#10;&#9;&#9;&#9;c-0.724,4.494-1.696,14.252-1.696,14.252H140.393z" style="fill:#244F23;"/>
		<g>
			<path d="M222.657,311.567c6.054,3.84,10.631,7.975,9.893,9.155c-0.738,1.181-13.732,0.443-23.182,0.591&#10;&#9;&#9;&#9;&#9;c-9.451,0.146-20.525,1.319-20.525,1.319S208.039,308.172,222.657,311.567z" style="fill:#3D853C;"/>
			<path d="M222.657,311.567c6.054,3.84,10.631,7.975,9.893,9.155&#10;&#9;&#9;&#9;&#9;c-0.738,1.181-13.732,0.443-23.182,0.591c-9.451,0.146-20.525,1.319-20.525,1.319S208.039,308.172,222.657,311.567z" style="opacity:0.7;fill:#3D853C;"/>
			<path d="M143.512,355.423c7.383-22.74,18.014-34.258,31.747-42.379&#10;&#9;&#9;&#9;&#9;c13.732-8.121,30.271-10.336,47.398-1.477c-10.927,1.625-18.458,8.325-22.001,19.076c-3.544,10.751-4.578,20.054-13.29,26.698&#10;&#9;&#9;&#9;&#9;s-12.33,7.811-21.891,9.147c-9.561,1.337-26.394,5.027-26.394,5.027S138.935,362.215,143.512,355.423z" style="fill:#6BB551;"/>
			<path d="M143.512,355.423c7.383-22.74,18.014-34.258,31.747-42.379&#10;&#9;&#9;&#9;&#9;c13.732-8.121,30.271-10.336,47.398-1.477c-10.927,1.625-18.458,8.325-22.001,19.076c-3.544,10.751-4.578,20.054-13.29,26.698&#10;&#9;&#9;&#9;&#9;s-12.33,7.811-21.891,9.147c-9.561,1.337-26.394,5.027-26.394,5.027S138.935,362.215,143.512,355.423z" style="opacity:0.6;fill:#3D853C;"/>
			<path d="M207.157,306.401c-0.667,0.199-1.33,0.563-2.071,0.865&#10;&#9;&#9;&#9;&#9;c-0.392,0.152-0.761,0.381-1.146,0.606c-0.383,0.227-0.788,0.448-1.185,0.698c-0.764,0.539-1.575,1.109-2.364,1.744&#10;&#9;&#9;&#9;&#9;c-0.808,0.625-1.625,1.281-2.466,1.97c-0.843,0.687-1.759,1.357-2.673,2.073c-1.85,1.386-3.864,2.793-5.935,4.256&#10;&#9;&#9;&#9;&#9;c-1.025,0.749-2.09,1.48-3.112,2.297c-0.517,0.399-1.038,0.802-1.561,1.207c-0.508,0.424-1.019,0.85-1.531,1.277&#10;&#9;&#9;&#9;&#9;c-1.042,0.836-2.022,1.758-3.018,2.671c-1.011,0.896-1.946,1.883-2.907,2.842c-0.972,0.95-1.889,1.944-2.795,2.939&#10;&#9;&#9;&#9;&#9;c-0.898,0.998-1.855,1.953-2.679,3.01c-0.854,1.026-1.684,2.062-2.501,3.086c-0.818,1.022-1.519,2.11-2.252,3.147&#10;&#9;&#9;&#9;&#9;c-0.71,1.054-1.464,2.052-2.101,3.096c-0.651,1.033-1.295,2.04-1.933,3.012c-0.316,0.488-0.628,0.97-0.936,1.444&#10;&#9;&#9;&#9;&#9;c-0.291,0.483-0.582,0.957-0.877,1.418c-0.585,0.924-1.194,1.79-1.765,2.632c-1.165,1.669-2.048,3.311-2.851,4.751&#10;&#9;&#9;&#9;&#9;c-0.795,1.446-1.449,2.728-1.976,3.79c-1.048,2.128-1.563,3.382-1.563,3.382s0.181-0.287,0.519-0.824&#10;&#9;&#9;&#9;&#9;c0.337-0.539,0.839-1.323,1.441-2.34c0.634-0.999,1.37-2.231,2.205-3.648c0.875-1.395,1.821-2.989,2.767-4.783&#10;&#9;&#9;&#9;&#9;c0.971-1.777,2.046-3.696,3.373-5.602c1.277-1.938,2.657-3.96,4.197-5.966c0.773-1,1.493-2.068,2.314-3.073&#10;&#9;&#9;&#9;&#9;c0.829-1,1.664-2.014,2.488-3.051c0.803-1.055,1.736-2.01,2.628-3.023c0.895-1.008,1.801-2.011,2.75-2.961&#10;&#9;&#9;&#9;&#9;c0.941-0.963,1.857-1.951,2.85-2.854c0.972-0.925,1.931-1.857,2.95-2.707c0.502-0.434,1.001-0.865,1.499-1.296&#10;&#9;&#9;&#9;&#9;c0.518-0.404,1.033-0.808,1.545-1.208c1.012-0.817,2.07-1.551,3.087-2.302c2.061-1.474,4.096-2.824,6.04-4.121&#10;&#9;&#9;&#9;&#9;c1.914-1.301,3.721-2.601,5.307-3.849c0.791-0.638,1.587-1.163,2.32-1.706c0.77-0.477,1.477-0.971,2.203-1.331&#10;&#9;&#9;&#9;&#9;c1.045-0.566,2.035-0.999,2.919-1.368C207.96,306.527,207.558,306.464,207.157,306.401z" style="opacity:0.4;fill:#3D853C;"/>
		</g>
		<g>
			<path d="M139.082,392.728c1.329-6.594,4.527-12.058,10.828-20.03c6.301-7.973,10.878-27.76,9.697-44.593&#10;&#9;&#9;&#9;&#9;c-1.182-16.833-5.758-25.25-10.558-34.848c-4.799-9.598-14.988-21.558-15.578-20.229s-5.463,17.866-8.859,24.953&#10;&#9;&#9;&#9;&#9;c-3.396,7.088-12.145,30.86-12.127,44.593c0.019,13.732,8.583,31.009,14.342,37.801c5.758,6.793,8.712,12.352,8.712,12.352&#10;&#9;&#9;&#9;&#9;H139.082z" style="fill:#6BB551;"/>
			<path d="M139.082,392.728c1.329-6.594,4.527-12.058,10.828-20.03&#10;&#9;&#9;&#9;&#9;c6.301-7.973,10.878-27.76,9.697-44.593c-1.182-16.833-5.758-25.25-10.558-34.848c-4.799-9.598-14.988-21.558-15.578-20.229&#10;&#9;&#9;&#9;&#9;s-5.463,17.866-8.859,24.953c-3.396,7.088-12.145,30.86-12.127,44.593c0.019,13.732,8.583,31.009,14.342,37.801&#10;&#9;&#9;&#9;&#9;c5.758,6.793,8.712,12.352,8.712,12.352H139.082z" style="opacity:0.3;fill:#3D853C;"/>
		</g>
		<path d="M134.504,277.754c0,0,0.471,1.582,1.103,4.396c0.156,0.704,0.328,1.484,0.516,2.332&#10;&#9;&#9;&#9;c0.164,0.853,0.343,1.776,0.533,2.762c0.378,1.973,0.771,4.206,1.009,6.669c0.221,2.465,0.558,5.118,0.899,7.929&#10;&#9;&#9;&#9;c0.301,2.815,0.668,5.779,0.861,8.867c0.233,3.083,0.321,6.288,0.161,9.542c-0.052,0.814-0.105,1.633-0.158,2.453&#10;&#9;&#9;&#9;c-0.09,0.81-0.18,1.623-0.271,2.438c-0.181,1.629-0.362,3.265-0.543,4.9c-0.367,3.271-0.733,6.542-1.094,9.761&#10;&#9;&#9;&#9;c-0.374,3.218-0.68,6.392-1.099,9.45c-0.39,3.062-0.731,6.024-1.018,8.84c-0.27,2.81-0.648,5.491-0.671,7.895&#10;&#9;&#9;&#9;c-0.004,2.436,0.215,4.671,0.46,6.648c0.255,1.977,0.522,3.703,0.729,5.131c0.221,1.426,0.306,2.567,0.318,3.344&#10;&#9;&#9;&#9;c0.002,0.391-0.02,0.688-0.058,0.887c-0.028,0.197-0.043,0.299-0.043,0.299s0-0.103,0-0.303c0.014-0.199-0.016-0.492-0.055-0.873&#10;&#9;&#9;&#9;c-0.081-0.764-0.332-1.862-0.631-3.268c-0.603-2.798-1.651-6.854-1.591-11.876c0.029-0.626,0.035-1.28,0.096-1.92&#10;&#9;&#9;&#9;c0.073-0.627,0.137-1.303,0.241-1.958c0.191-1.317,0.389-2.678,0.593-4.077c0.414-2.798,0.813-5.753,1.188-8.815&#10;&#9;&#9;&#9;c0.397-3.058,0.724-6.23,1.034-9.454c0.321-3.225,0.648-6.5,0.974-9.773c0.165-1.638,0.331-3.275,0.495-4.906&#10;&#9;&#9;&#9;c0.083-0.814,0.165-1.629,0.247-2.44c0.044-0.808,0.087-1.612,0.132-2.415c0.062-0.803,0.044-1.606,0.058-2.404&#10;&#9;&#9;&#9;c0.004-0.8,0.044-1.594,0.02-2.385c-0.042-1.582-0.048-3.146-0.132-4.684c-0.054-1.538-0.147-3.05-0.261-4.528&#10;&#9;&#9;&#9;c-0.086-1.48-0.244-2.923-0.384-4.329c-0.145-1.405-0.307-2.771-0.482-4.088c-0.186-1.316-0.433-2.579-0.644-3.794&#10;&#9;&#9;&#9;c-0.486-2.42-0.801-4.657-1.094-6.639c-0.314-1.978-0.576-3.706-0.781-5.131C134.743,279.383,134.504,277.754,134.504,277.754z" style="opacity:0.4;fill:#3D853C;"/>
		<path d="M129.484,369.893c0,0-8.121-11.369-10.336-19.491c-2.215-8.121-8.417-16.39-18.458-21.263&#10;&#9;&#9;&#9;c-10.04-4.872-27.169-6.646-35.733-6.497c-8.564,0.147-22.296,3.84-21.853,5.021s10.779,11.369,18.605,19.935&#10;&#9;&#9;&#9;c7.826,8.564,16.384,15.342,26.945,18.893c10.561,3.551,17.463,2.813,23.831,2.813c6.368,0,16.999,3.396,16.999,3.396V369.893z" style="fill:#6BB551;"/>
		<path d="M48.272,328.401c0,0,1.38,0.25,3.765,0.794c1.196,0.255,2.64,0.593,4.293,1&#10;&#9;&#9;&#9;c1.656,0.393,3.525,0.841,5.518,1.504c1.992,0.666,4.178,1.28,6.494,1.921c2.306,0.675,4.755,1.334,7.248,2.161&#10;&#9;&#9;&#9;c2.503,0.79,5.051,1.741,7.588,2.828c1.255,0.576,2.54,1.112,3.78,1.757l1.878,0.939l1.843,1.014&#10;&#9;&#9;&#9;c1.243,0.65,2.41,1.436,3.611,2.146c1.162,0.779,2.321,1.537,3.44,2.361c2.167,1.696,4.412,3.207,6.377,4.962&#10;&#9;&#9;&#9;c0.504,0.423,1.002,0.842,1.497,1.257c0.503,0.406,0.995,0.813,1.456,1.245c0.934,0.85,1.855,1.674,2.764,2.465&#10;&#9;&#9;&#9;c1.76,1.637,3.438,3.175,4.936,4.626c0.377,0.362,0.746,0.717,1.106,1.063c0.372,0.332,0.734,0.656,1.089,0.971&#10;&#9;&#9;&#9;c0.705,0.634,1.351,1.264,1.999,1.803c0.655,0.532,1.279,1.018,1.838,1.492c0.564,0.467,1.07,0.916,1.586,1.24&#10;&#9;&#9;&#9;c1.007,0.679,1.773,1.26,2.31,1.637c0.528,0.393,0.811,0.602,0.811,0.602s-0.31-0.163-0.89-0.468&#10;&#9;&#9;&#9;c-0.573-0.318-1.433-0.758-2.497-1.378c-0.549-0.283-1.095-0.69-1.704-1.113c-0.612-0.42-1.255-0.9-1.953-1.401&#10;&#9;&#9;&#9;c-0.689-0.513-1.349-1.143-2.085-1.762c-0.735-0.622-1.469-1.315-2.211-2.057c-1.521-1.455-3.076-3.103-4.76-4.81&#10;&#9;&#9;&#9;c-1.711-1.676-3.531-3.434-5.568-5.065c-0.5-0.419-1.006-0.839-1.515-1.264c-0.507-0.426-1.064-0.804-1.6-1.212&#10;&#9;&#9;&#9;c-1.085-0.8-2.183-1.609-3.29-2.425c-1.108-0.786-2.284-1.528-3.445-2.277c-1.202-0.69-2.365-1.457-3.607-2.087l-1.838-0.984&#10;&#9;&#9;&#9;l-1.873-0.91c-1.236-0.625-2.519-1.143-3.769-1.699c-1.269-0.515-2.525-1.035-3.775-1.524c-1.26-0.466-2.493-0.957-3.728-1.386&#10;&#9;&#9;&#9;c-1.227-0.45-2.442-0.868-3.64-1.256c-1.19-0.409-2.371-0.762-3.521-1.104c-1.148-0.346-2.271-0.667-3.361-0.957&#10;&#9;&#9;&#9;c-1.091-0.292-2.163-0.506-3.185-0.738c-2.055-0.418-3.902-0.942-5.538-1.417c-1.64-0.455-3.063-0.889-4.229-1.262&#10;&#9;&#9;&#9;C49.584,328.897,48.272,328.401,48.272,328.401z" style="opacity:0.4;fill:#3D853C;"/>
		<path d="M105.894,363.248c-3.703,0.528-8.35,1.075-12.481,4.618&#10;&#9;&#9;&#9;c7.972,1.948,13.716,1.436,19.072,1.436c6.368,0,16.999,3.396,16.999,3.396v-2.806c0,0-1.985-2.779-4.26-6.571&#10;&#9;&#9;&#9;c-0.241-0.025-0.48-0.058-0.726-0.073C117.633,362.806,111.062,362.511,105.894,363.248z" style="opacity:0.4;fill:#3D853C;"/>
		<path d="M112.485,379.343c-15.485-7.384-27.446-7.384-38.373,1.476c-10.927,8.859-13.88,12.46-18.31,19.52&#10;&#9;&#9;&#9;s-5.612,9.126-8.564,10.603c-2.953,1.478,12.699,5.156,29.532,2.209c16.833-2.946,28.166-7.082,35.715-11.659&#10;&#9;&#9;&#9;c7.549-4.577,15.485-13.289,15.485-13.289S122.522,383.212,112.485,379.343z" style="fill:#6BB551;"/>
		<path d="M125.237,386.577c-0.56-0.178-1.372-0.472-2.426-0.779&#10;&#9;&#9;&#9;c-1.044-0.347-2.348-0.635-3.838-0.989c-0.742-0.194-1.551-0.309-2.4-0.45c-0.852-0.121-1.741-0.299-2.688-0.353&#10;&#9;&#9;&#9;c-1.881-0.197-3.941-0.233-6.104-0.079c-2.167,0.13-4.422,0.539-6.711,1.118c-2.28,0.634-4.53,1.594-6.754,2.668&#10;&#9;&#9;&#9;c-2.225,1.076-4.407,2.312-6.611,3.474c-2.206,1.162-4.452,2.261-6.645,3.395c-1.109,0.541-2.174,1.145-3.221,1.748&#10;&#9;&#9;&#9;c-1.049,0.6-2.098,1.173-3.093,1.796c-2.002,1.224-3.937,2.405-5.772,3.526c-1.828,1.132-3.592,2.135-5.272,2.972&#10;&#9;&#9;&#9;c-0.84,0.415-1.645,0.813-2.386,1.233c-0.746,0.413-1.434,0.839-2.108,1.183c-0.667,0.36-1.291,0.698-1.867,1.01&#10;&#9;&#9;&#9;c-0.567,0.332-1.097,0.626-1.591,0.862c-1.958,0.982-3.048,1.608-3.048,1.608s1.194-0.392,3.232-1.194&#10;&#9;&#9;&#9;c1.032-0.367,2.222-0.984,3.605-1.644c1.396-0.644,2.891-1.497,4.479-2.509c0.79-0.509,1.599-1.064,2.464-1.586&#10;&#9;&#9;&#9;c0.864-0.527,1.776-1.038,2.699-1.59c1.844-1.104,3.833-2.19,5.874-3.337c2.063-1.11,4.165-2.303,6.343-3.438&#10;&#9;&#9;&#9;c2.166-1.155,4.399-2.283,6.602-3.481c2.208-1.191,4.36-2.459,6.545-3.573c2.179-1.123,4.408-2.052,6.646-2.695&#10;&#9;&#9;&#9;c1.13-0.269,2.237-0.574,3.354-0.678c0.556-0.064,1.101-0.167,1.646-0.198c0.546-0.02,1.087-0.038,1.619-0.057&#10;&#9;&#9;&#9;c0.531-0.032,1.057-0.021,1.574,0.012c0.517,0.021,1.025,0.041,1.526,0.061c0.5,0.004,0.99,0.08,1.471,0.129&#10;&#9;&#9;&#9;c0.481,0.044,0.954,0.088,1.416,0.13c0.928,0.052,1.804,0.254,2.646,0.353c0.842,0.108,1.64,0.213,2.385,0.358&#10;&#9;&#9;&#9;c1.488,0.287,2.81,0.431,3.874,0.678c1.067,0.229,1.92,0.357,2.497,0.468c0.581,0.095,0.891,0.145,0.891,0.145&#10;&#9;&#9;&#9;S125.792,386.771,125.237,386.577z" style="opacity:0.4;fill:#3D853C;"/>
		<path d="M127.97,388.201c0,0-5.448-4.989-15.485-8.858c-4.293-2.047-8.314-3.524-12.118-4.405&#10;&#9;&#9;&#9;c-2.084,1.473-4.079,3.595-5.804,6.756c-4.873,8.933-6.275,13.362-5.832,23.772c0.079,1.853,0.247,3.523,0.475,5.054&#10;&#9;&#9;&#9;c10.22-2.582,17.765-5.686,23.278-9.029C120.034,396.913,127.97,388.201,127.97,388.201z" style="opacity:0.4;fill:#3D853C;"/>
		<path d="M142.663,347.743c-6.202,5.427-8.202,6.534-11.466,11.961c-3.263,5.426-3.817,12.514-2.71,19.934&#10;&#9;&#9;&#9;c1.107,7.42,10.41,22.26,11.074,28.239c0.665,5.98,0.831,28.184,0.831,28.184h6.368c0,0-1.55-21.872-1.772-30.399&#10;&#9;&#9;&#9;c-0.221-8.527-0.221-14.286,3.101-17.055c3.322-2.768,11.407-6.755,16.39-12.403c4.983-5.647,6.534-10.299,9.746-13.953&#10;&#9;&#9;&#9;c3.211-3.654,6.091-12.625,6.091-12.625S153.959,342.76,142.663,347.743z" style="fill:#3D853C;"/>
		<path d="M153.811,374.284c-1.476-4.355-6.94-8.785-13.806-9.228&#10;&#9;&#9;&#9;c-3.797-0.245-7.494-0.437-10.924-0.442c-1.32,4.505-1.392,9.676-0.593,15.023c1.107,7.42,10.41,22.26,11.074,28.239&#10;&#9;&#9;&#9;c0.665,5.98,0.831,28.184,0.831,28.184h6.368c0,0-1.55-21.872-1.772-30.399c-0.221-8.527-0.221-14.286,3.101-17.055&#10;&#9;&#9;&#9;c1.391-1.159,3.621-2.536,6.105-4.154C154.96,380.634,154.783,376.925,153.811,374.284z" style="opacity:0.7;fill:#3D853C;"/>
		<path d="M142.663,347.743c8.084,2.99,12.624,6.756,18.051,10.41c5.426,3.654,10.631,7.309,13.178,9.303&#10;&#9;&#9;&#9;c2.547,1.993,5.759,9.855,6.313,9.635c0.554-0.222,2.658-5.316,3.655-12.183c0.997-6.866,0.664-12.957,0-16.39&#10;&#9;&#9;&#9;c-0.665-3.434-2.326-4.319-2.326-4.319s-9.338-3.544-17.958-3.876C154.956,339.991,147.425,343.424,142.663,347.743z" style="fill:#6BB551;"/>
		<path d="M165.476,377.095c-5.426,7.637-10.091,16.275-10.804,20.815c-0.713,4.54-4.22,8.306-5.623,12.071&#10;&#9;&#9;&#9;c-1.403,3.766-7.051,19.38-8.158,26.08h6.755c0,0,0.886-15.781,3.987-22.204c3.101-6.423,5.869-12.403,9.191-14.508&#10;&#9;&#9;&#9;c3.323-2.104,5.759-1.661,17.719-3.433c11.96-1.771,22.813-3.641,30.787-4.922c7.973-1.28,15.282-3.384,15.282-3.384&#10;&#9;&#9;&#9;s-7.641-6.857-22.702-10.517C186.85,373.435,177.658,372.78,165.476,377.095z" style="fill:#3D853C;"/>
		<path d="M147.893,413.149c-2.178,6.061-6.099,17.449-7.002,22.912h6.755&#10;&#9;&#9;&#9;c0,0,0.421-7.49,1.696-14.252C148.839,418.384,148.303,415.337,147.893,413.149z" style="opacity:0.7;fill:#3D853C;"/>
		<path d="M165.476,377.095c0,0,8.457,2.1,19.013,8.19c10.556,6.091,16.869,9.746,24.178,13.511&#10;&#9;&#9;&#9;c7.309,3.766,13.732,8.527,16.39,9.967c2.658,1.44,6.312,4.209,6.202,2.99c-0.111-1.218,0-8.638-1.329-14.507&#10;&#9;&#9;&#9;c-1.329-5.87,0.111-9.192-2.437-15.394c-2.547-6.202-11.074-10.964-14.839-13.179c-3.766-2.215-12.071-2.93-19.602-2.185&#10;&#9;&#9;&#9;C185.521,367.234,170.127,370.565,165.476,377.095z" style="fill:#6BB551;"/>
		<path d="M149.049,376.167c1.421,3.858,1.144,10.004-1.292,15.431c-2.436,5.427-5.925,6.423-5.648,11.85&#10;&#9;&#9;&#9;c0.277,5.427,2.492,15.283,2.879,20.155c0.388,4.873,1.772,12.459,1.772,12.459h-6.368c0,0,2.271-6.866,1.606-15.172&#10;&#9;&#9;&#9;c-0.664-8.306-1.44-14.784-2.658-17.664c-1.218-2.879-5.814-3.156-9.911-6.811c-4.098-3.654-9.746-6.313-12.736-12.016&#10;&#9;&#9;&#9;c-2.99-5.703-4.209-13.566-4.209-13.566h30.455C142.94,370.833,147.185,372.863,149.049,376.167z" style="fill:#3D853C;"/>
		<path d="M149.049,376.167c-1.477-4.355-6.94-8.785-13.806-9.227c-6.866-0.443-13.438-0.738-18.605,0&#10;&#9;&#9;&#9;c-5.168,0.737-12.182,1.476-17.055,10.409c-4.873,8.934-6.275,13.363-5.833,23.773c0.443,10.41,3.618,15.355,5.39,18.974&#10;&#9;&#9;&#9;c1.771,3.618,1.846,4.651,2.289,4.282c0.443-0.369,2.954-3.175,5.39-6.35c2.437-3.174,13.658-13.363,18.31-17.055&#10;&#9;&#9;&#9;c4.651-3.69,6.645-5.905,12.403-13.141C143.29,380.597,146.539,375.355,149.049,376.167z" style="fill:#6BB551;"/>
		<path d="M127.193,366.538c-0.239-0.007-0.474-0.01-0.711-0.016&#10;&#9;&#9;&#9;c-0.547,0.458-1.151,1.005-1.797,1.645c-0.412,0.413-0.844,0.862-1.284,1.349c-0.429,0.496-0.848,1.046-1.264,1.633&#10;&#9;&#9;&#9;c-0.408,0.591-0.833,1.207-1.273,1.845c-0.437,0.637-0.937,1.26-1.38,1.952c-0.466,0.678-0.931,1.381-1.384,2.116&#10;&#9;&#9;&#9;c-0.477,0.721-0.903,1.492-1.346,2.275c-0.883,1.565-1.643,3.268-2.316,5.032c-0.331,0.875-0.664,1.757-0.999,2.644&#10;&#9;&#9;&#9;c-0.348,0.877-0.698,1.759-1.047,2.64c-0.714,1.761-1.452,3.513-2.199,5.229c-0.734,1.723-1.513,3.395-2.236,5.026&#10;&#9;&#9;&#9;c-0.362,0.815-0.725,1.615-1.093,2.392c-0.358,0.782-0.705,1.548-1.066,2.284c-0.692,1.486-1.334,2.903-1.848,4.244&#10;&#9;&#9;&#9;c-0.245,0.676-0.477,1.324-0.681,1.947c-0.181,0.631-0.354,1.229-0.515,1.792c-0.274,1.141-0.469,2.143-0.565,2.979&#10;&#9;&#9;&#9;c-0.147,0.827-0.128,1.497-0.156,1.943c-0.009,0.449-0.013,0.688-0.013,0.688s0.058-0.232,0.168-0.668&#10;&#9;&#9;&#9;c0.097-0.436,0.244-1.071,0.469-1.869c0.193-0.805,0.525-1.755,0.854-2.853c0.367-1.092,0.793-2.315,1.271-3.65&#10;&#9;&#9;&#9;c0.246-0.665,0.499-1.36,0.749-2.086c0.269-0.719,0.548-1.462,0.834-2.226c0.585-1.524,1.255-3.113,1.998-4.734&#10;&#9;&#9;&#9;c1.467-3.253,3.115-6.687,4.635-10.186c0.772-1.75,1.456-3.528,2.131-5.279c0.365-0.853,0.667-1.726,1.041-2.557&#10;&#9;&#9;&#9;c0.393-0.821,0.721-1.663,1.134-2.446c0.397-0.793,0.78-1.576,1.217-2.313c0.211-0.371,0.42-0.738,0.626-1.102&#10;&#9;&#9;&#9;c0.228-0.351,0.453-0.696,0.675-1.038c0.867-1.38,1.826-2.595,2.809-3.622c0.994-1.02,1.822-2.014,2.595-2.869&#10;&#9;&#9;&#9;C125.975,367.853,126.631,367.13,127.193,366.538z" style="opacity:0.4;fill:#3D853C;"/>
		<path d="M227.502,405.413c0.307,0.332,0.471,0.509,0.471,0.509s-0.12-0.208-0.345-0.601&#10;&#9;&#9;&#9;c-0.239-0.383-0.56-0.963-1.025-1.662c-0.913-1.411-2.25-3.402-4.007-5.682c-0.887-1.134-1.894-2.327-2.943-3.6&#10;&#9;&#9;&#9;c-1.043-1.274-2.142-2.619-3.279-4.012c-1.128-1.399-2.293-2.846-3.478-4.316c-1.268-1.407-2.533-2.866-3.94-4.179&#10;&#9;&#9;&#9;c-1.342-1.384-2.833-2.6-4.244-3.861c-0.71-0.624-1.457-1.192-2.181-1.771c-0.728-0.572-1.434-1.156-2.169-1.676&#10;&#9;&#9;&#9;c-1.454-1.06-2.858-2.083-4.191-3.054c-0.664-0.487-1.324-0.942-1.936-1.418c-0.617-0.469-1.179-0.97-1.741-1.421&#10;&#9;&#9;&#9;c-0.817-0.699-1.635-1.284-2.399-1.809c-0.354,0.053-0.714,0.107-1.084,0.17c0.905,0.683,1.917,1.447,3.113,2.154&#10;&#9;&#9;&#9;c1.242,0.73,2.499,1.649,3.807,2.647c1.328,0.971,2.646,2.103,4.051,3.217c1.38,1.143,2.807,2.322,4.257,3.521&#10;&#9;&#9;&#9;c1.416,1.236,2.893,2.449,4.266,3.773c1.432,1.267,2.714,2.674,4.006,4.037c1.216,1.427,2.378,2.884,3.521,4.266&#10;&#9;&#9;&#9;c2.312,2.754,4.119,5.59,5.859,7.867c1.715,2.301,3.228,4.159,4.33,5.428C226.749,404.592,227.208,405.072,227.502,405.413z" style="opacity:0.4;fill:#3D853C;"/>
		<path d="M180.367,371.555c0.017-0.361,0.078-0.899,0.083-1.586&#10;&#9;&#9;&#9;c-0.047-0.677-0.117-1.503-0.235-2.449c-0.194-0.924-0.377-1.984-0.712-3.099c-0.362-1.105-0.741-2.31-1.276-3.529&#10;&#9;&#9;&#9;c-0.26-0.613-0.511-1.247-0.757-1.897c-0.277-0.641-0.568-1.289-0.837-1.961c-0.52-1.351-1.207-2.684-1.823-4.076&#10;&#9;&#9;&#9;c-0.301-0.703-0.681-1.362-1.021-2.05c-0.363-0.682-0.67-1.368-1.081-2.051c-0.422-0.659-0.797-1.357-1.311-1.945l-0.723-0.915&#10;&#9;&#9;&#9;c-0.255-0.29-0.525-0.565-0.785-0.848c-0.507-0.579-1.075-1.086-1.638-1.581c-0.545-0.518-1.142-0.957-1.718-1.4&#10;&#9;&#9;&#9;c-0.876-0.669-1.756-1.257-2.616-1.826c-0.114-0.006-0.228-0.014-0.34-0.018c-0.149-0.005-0.296-0.002-0.444-0.005&#10;&#9;&#9;&#9;c1.006,0.692,2.011,1.48,3.014,2.331c1.082,0.936,2.189,1.916,3.21,3.005l0.773,0.815l0.708,0.877&#10;&#9;&#9;&#9;c0.501,0.568,0.878,1.221,1.307,1.842c0.767,1.299,1.525,2.669,2.214,4.002c0.666,1.352,1.329,2.68,1.866,4.016&#10;&#9;&#9;&#9;c0.584,1.314,1.052,2.625,1.423,3.891c0.425,1.246,0.665,2.47,1.001,3.563c0.291,1.104,0.558,2.117,0.794,3.015&#10;&#9;&#9;&#9;c0.19,0.904,0.359,1.694,0.523,2.347c0.196,1.31,0.351,2.086,0.351,2.086S180.333,371.915,180.367,371.555z" style="opacity:0.4;fill:#3D853C;"/>
	</g>
</g>
</svg>