<svg xml:space="preserve" style="max-height: 500px" viewBox="501.00000000000006 29 204.00000000000003 196" y="0px" x="0px" xmlns:xlink="http://www.w3.org/1999/xlink" xmlns="http://www.w3.org/2000/svg" version="1.1" width="204.00000000000003" height="196">

<g id="OBJECTS">

<g>
		<path d="M675.875,64.181c2.334,4.402,2.084,11.152,0.418,15.902c-2.834-4.167-5.918-5.749-8.668-6.833&#10;&#9;&#9;&#9;s-8-2.416-11.5-4.5V61.5h14.418C670.543,61.5,673.873,62.361,675.875,64.181z" style="fill:#3D853C;"/>
		<path d="M517.041,77.334c-0.75,5.083,1.834,20.416,10.334,23.916c0.416-2.417,0.916-6,1.166-6.5&#10;&#9;&#9;&#9;c1.668-2,7.344-8.251,11.797-10.167s9.037-3,9.037-3l1.75-14.166h-16.166C534.959,67.417,521.459,69.085,517.041,77.334z" style="fill:#3D853C;"/>
		<g>
			<path d="M596.894,146.131c-2.685-11.297-8.019-32.131-11.685-44.464&#10;&#9;&#9;&#9;&#9;c-3.668-12.333-2.418-31.034,8.791-47.184c11.207-16.149,22.156-15.648,33.85-16.982c11.691-1.334,16.525,1.333,16.525,1.333&#10;&#9;&#9;&#9;&#9;s-12.668,9.38-14.5,22.356c-1.834,12.977-8.889,33.159-15.361,47.651c-6.473,14.492-13.432,35.258-13.951,40.375&#10;&#9;&#9;&#9;&#9;c-0.521,5.117-1.863,14.784-1.863,14.784L596.894,146.131z" style="fill:#6BB551;"/>
			<path d="M596.894,146.131c-2.685-11.297-8.019-32.131-11.685-44.464&#10;&#9;&#9;&#9;&#9;c-3.668-12.333-2.418-31.034,8.791-47.184c11.207-16.149,22.156-15.648,33.85-16.982c11.691-1.334,16.525,1.333,16.525,1.333&#10;&#9;&#9;&#9;&#9;s-12.668,9.38-14.5,22.356c-1.834,12.977-8.889,33.159-15.361,47.651c-6.473,14.492-13.432,35.258-13.951,40.375&#10;&#9;&#9;&#9;&#9;c-0.521,5.117-1.863,14.784-1.863,14.784L596.894,146.131z" style="opacity:0.3;fill:#3D853C;"/>
		</g>
		<path d="M628.67,37.422c-0.018,0.009-0.033,0.018-0.049,0.026&#10;&#9;&#9;&#9;c-0.416,0.253-0.846,0.516-1.289,0.786c-0.885,0.547-1.846,1.099-2.771,1.814c-0.933,0.701-1.961,1.375-2.922,2.226&#10;&#9;&#9;&#9;c-0.496,0.404-1.002,0.816-1.52,1.236c-0.516,0.421-0.984,0.915-1.494,1.382c-1.039,0.913-1.959,2.009-2.932,3.107&#10;&#9;&#9;&#9;c-0.506,0.533-0.896,1.172-1.383,1.747c-0.457,0.598-0.963,1.173-1.342,1.847c-0.406,0.653-0.818,1.313-1.234,1.98&#10;&#9;&#9;&#9;c-0.383,0.686-0.74,1.394-1.117,2.099l-0.555,1.066l-0.502,1.103c-0.336,0.738-0.695,1.472-1.019,2.227&#10;&#9;&#9;&#9;c-0.594,1.53-1.268,3.053-1.787,4.646c-0.277,0.791-0.555,1.585-0.832,2.381c-0.252,0.806-0.502,1.613-0.754,2.422&#10;&#9;&#9;&#9;c-0.524,1.613-0.967,3.256-1.434,4.893c-0.234,0.817-0.477,1.633-0.695,2.454l-0.73,2.439c-0.268,0.805-0.402,1.647-0.565,2.475&#10;&#9;&#9;&#9;c-0.156,0.83-0.31,1.657-0.465,2.482c-0.346,1.64-0.715,3.262-1.031,4.872l-0.229,1.205c-0.055,0.404-0.098,0.81-0.162,1.209&#10;&#9;&#9;&#9;c-0.127,0.8-0.254,1.595-0.379,2.382c-0.48,3.153-1.068,6.193-1.228,9.121c-0.065,1.465-0.012,2.894-0.147,4.264&#10;&#9;&#9;&#9;c-0.049,1.375-0.072,2.704-0.139,3.979c-0.047,1.276-0.133,2.5-0.117,3.664c0.047,1.163-0.012,2.27-0.027,3.311&#10;&#9;&#9;&#9;c0.027,2.08,0.381,3.874,0.504,5.356c0.098,1.487,0.238,2.652,0.16,3.475c-0.018,0.813-0.107,1.255-0.107,1.255&#10;&#9;&#9;&#9;c-0.004,0.021-0.008,0.041-0.01,0.063c-0.037,0.351,0.219,0.665,0.57,0.702c0.352,0.036,0.666-0.219,0.701-0.57l0.041-0.396&#10;&#9;&#9;&#9;c0,0,0.047-0.442-0.01-1.231c0.004-0.795-0.234-1.907-0.478-3.373c-0.16-0.729-0.336-1.538-0.527-2.418&#10;&#9;&#9;&#9;c-0.156-0.884-0.42-1.843-0.24-2.885c0.006-1.035-0.045-2.133-0.17-3.292c-0.104-1.16-0.072-2.382-0.047-3.655&#10;&#9;&#9;&#9;c0.01-1.275,0.072-2.602,0.133-3.974c0.111-1.37,0.418-2.772,0.565-4.222c0.088-0.724,0.09-1.465,0.068-2.219&#10;&#9;&#9;&#9;c-0.016-0.752-0.063-1.52,0.068-2.276c0.211-1.519,0.396-3.074,0.643-4.648c0.117-0.788,0.234-1.582,0.354-2.382l0.166-1.207&#10;&#9;&#9;&#9;c0.063-0.402,0.17-0.798,0.258-1.198c0.367-1.6,0.953-3.171,1.32-4.798c0.402-1.619,0.428-3.344,0.939-4.961&#10;&#9;&#9;&#9;c0.447-1.633,1.014-3.246,1.369-4.906c0.182-0.83,0.309-1.676,0.525-2.497c0.215-0.821,0.494-1.624,0.783-2.42&#10;&#9;&#9;&#9;c0.549-1.603,1.106-3.189,1.623-4.779c1.066-3.161,2.219-6.261,3.746-9.058c0.389-0.694,0.752-1.396,1.154-2.065&#10;&#9;&#9;&#9;c0.432-0.651,0.861-1.296,1.285-1.933c0.402-0.652,0.889-1.234,1.344-1.826c0.461-0.588,0.906-1.177,1.439-1.677&#10;&#9;&#9;&#9;c1.041-1.021,1.996-2.048,2.982-2.993c0.486-0.478,0.922-0.998,1.416-1.434c0.494-0.439,0.98-0.87,1.455-1.293&#10;&#9;&#9;&#9;c0.949-0.848,1.967-1.526,2.918-2.189c0.938-0.684,1.914-1.203,2.82-1.7c0.906-0.524,1.781-0.963,2.596-1.358&#10;&#9;&#9;&#9;C629.691,37.319,629.182,37.37,628.67,37.422z" style="opacity:0.4;fill:#3D853C;"/>
		<path d="M590.955,112.26c1.295,8.115,5.271,20.614,6.545,30.115c1.273,9.501,3.648,45.25,4.574,56.625&#10;&#9;&#9;&#9;c0.926,11.375,1.551,16,1.551,16H596c0,0,1-52.25-1.625-71.5s-5.375-23.75-10-27.125L590.955,112.26z" style="fill:#3D853C;"/>
		<path d="M594.69,146.131C596.916,167.102,596,215,596,215h7.625c0,0-0.625-4.625-1.551-16&#10;&#9;&#9;&#9;c-0.764-9.367-2.508-35.249-3.81-49.405C596.764,148.078,595.514,146.892,594.69,146.131z" style="opacity:0.6;fill:#3D853C;"/>
		<path d="M579.5,123.375c7,8.125,12.625,23.645,15.5,34.322c2.875,10.678,7.75,37.678,8.125,57.303h-8.75&#10;&#9;&#9;&#9;c0,0,1.25-41.25-4.5-60S575.5,123.375,575.5,123.375H579.5z" style="fill:#3D853C;"/>
		<path d="M596.883,165.736c-1.129-1.982-2.318-3.729-3.482-5.008&#10;&#9;&#9;&#9;c0.158,0.039,0.31,0.059,0.471,0.105c-1.18-1.134-2.217-2.105-3.205-2.939c2.369,9.686,3.309,23.577,3.648,35.235&#10;&#9;&#9;&#9;c0.068,1.605,0.102,3.256,0.113,4.903c0.164,9.758-0.053,16.967-0.053,16.967h8.75&#10;&#9;&#9;&#9;C602.824,199.242,599.621,178.736,596.883,165.736z" style="opacity:0.6;fill:#3D853C;"/>
		<path d="M598.699,164.001c0.008,10.916-1.742,45.332-4.324,50.999h9.25c0,0,0-24.083-1-34.083&#10;&#9;&#9;&#9;s-2.045-15.682-1.418-19.749L598.699,164.001z" style="fill:#3D853C;"/>
		<path d="M598.707,134.834c-0.166-12,2.334-38.344,11.5-51.755c9.168-13.411,16.666-19.586,27.5-23.082&#10;&#9;&#9;&#9;c10.834-3.496,16.334-4.663,24.668-3.163c8.332,1.5,10.832,4.026,13.5,7.347c-4.5-0.847-11.334,1.648-13,6.234&#10;&#9;&#9;&#9;c-1.668,4.586-5.334,16.182-11.168,25.134c-5.832,8.952-16,10.452-24.832,16.452c-8.834,6-14.502,11-19.168,20.5&#10;&#9;&#9;&#9;c-4.666,9.5-5.166,21.334-6.5,28.667l-2.508,2.833C598.699,164.001,598.873,146.834,598.707,134.834z" style="fill:#6BB551;"/>
		<path d="M631.69,92.631c-8.963,9.021-12.404,17.201-17.934,29.926&#10;&#9;&#9;&#9;c-0.168,0.385-0.332,0.77-0.492,1.154c3.623-4.449,7.969-7.878,13.611-11.71c8.832-6,19-7.5,24.832-16.452&#10;&#9;&#9;&#9;c3.676-5.642,6.49-12.33,8.488-17.656C651.711,78.795,639.568,84.703,631.69,92.631z" style="opacity:0.3;fill:#3D853C;"/>
		<path d="M606.375,148.001c0,0,3-12.5,9.666-24.667c6.666-12.167,10.84-20.001,20.586-28.167&#10;&#9;&#9;&#9;c9.748-8.166,24.76-13.232,33.004-11.866c8.244,1.366,11.91,2.007,18.91,9.604c7,7.597,6.332,13.763,5.166,18.43&#10;&#9;&#9;&#9;c-0.5-5.833-3.166-7.833-7.332-8.75c-4.168-0.917-6.834-2.084-10.168,1.083c-3.332,3.167-7.166,10.834-17.166,15.834&#10;&#9;&#9;&#9;s-15.334,9.582-24.666,9.874c-9.334,0.292-16.055-1.745-19.861,4.69c-3.807,6.436-5.973,13.936-5.973,13.936H606.375z" style="fill:#6BB551;"/>
		<path d="M589.375,119.501c-3.5-2-13.168-6.208-19-9.771c-5.834-3.563-21.168-8.23-25.5-15.396&#10;&#9;&#9;&#9;c-4.334-7.166-5.809-7.784-10.738-12.559c-4.93-4.774-8.762-7.275-11.596-6.941c-2.834,0.334-5.5,2.5-5.5,2.5&#10;&#9;&#9;&#9;s1.168-8.287,12-11.477c10.834-3.189,17.168-3.69,24.168-4.523c6.998-0.833,12.664,2.193,14.998,2.847&#10;&#9;&#9;&#9;c2.334,0.653,14,2.554,19,8.604c5,6.05,6,13.646,5,22.765c-1,9.119-1.484,19.789-1.422,23.952H589.375z" style="fill:#6BB551;"/>
		<path d="M589.375,119.501h1.41c-0.025-1.667,0.039-4.388,0.188-7.625&#10;&#9;&#9;&#9;c-2.662-2.065-9.504-0.356-13.619,1.646C582.133,115.928,587.08,118.189,589.375,119.501z" style="opacity:0.3;fill:#3D853C;"/>
		<path d="M589.527,117.716c0.19-0.107,0.256-0.348,0.15-0.537c0,0-0.172-0.303-0.492-0.87&#10;&#9;&#9;&#9;c-0.299-0.574-0.736-1.418-1.295-2.49c-0.58-1.057-1.287-2.339-2.096-3.811c-0.814-1.468-1.914-3.014-3.014-4.759&#10;&#9;&#9;&#9;c-1.154-1.71-2.354-3.597-3.733-5.515c-0.707-0.947-1.348-1.98-2.074-2.985c-0.721-1.01-1.502-2.009-2.27-3.042&#10;&#9;&#9;&#9;c-1.539-2.067-3.129-4.203-4.744-6.373c-0.816-1.077-1.641-2.163-2.469-3.253c-0.824-1.093-1.66-2.184-2.539-3.243&#10;&#9;&#9;&#9;c-0.428-0.54-0.863-1.071-1.326-1.58c-0.453-0.518-0.856-1.083-1.332-1.576c-0.945-0.998-1.969-1.909-3.016-2.771&#10;&#9;&#9;&#9;c-0.99-0.926-2.053-1.752-3.092-2.578c-1.104-0.741-2.113-1.58-3.182-2.305c-1.043-0.761-2.111-1.445-3.166-2.106&#10;&#9;&#9;&#9;c-1.037-0.686-2.078-1.323-3.131-1.87c-2.221-0.863-4.225-1.836-6.123-2.652c-0.188-0.085-0.369-0.155-0.553-0.234&#10;&#9;&#9;&#9;c-0.164,0.031-0.324,0.059-0.49,0.092c0.318,0.115,0.635,0.223,0.953,0.367c0.973,0.339,1.924,0.841,2.932,1.304&#10;&#9;&#9;&#9;c1.016,0.447,1.938,1.167,2.979,1.706c0.988,0.635,2.23,0.885,3.279,1.547c1.065,0.632,2.162,1.263,3.205,2.018&#10;&#9;&#9;&#9;c1.068,0.715,2.104,1.515,3.162,2.307c1.006,0.863,1.92,1.855,2.883,2.79l0.764,0.66c0.268,0.207,0.537,0.414,0.793,0.637&#10;&#9;&#9;&#9;c0.518,0.437,1.035,0.884,1.496,1.385c0.481,0.484,0.885,1.041,1.328,1.559c0.221,0.261,0.434,0.528,0.668,0.775&#10;&#9;&#9;&#9;c0.217,0.264,0.435,0.526,0.678,0.77c0.467,0.499,1.004,0.947,1.43,1.484c0.422,0.541,0.826,1.095,1.209,1.665&#10;&#9;&#9;&#9;c0.742,1.154,1.598,2.216,2.435,3.277c1.645,2.144,3.356,4.188,4.832,6.3c0.75,1.047,1.488,2.075,2.174,3.108&#10;&#9;&#9;&#9;c0.685,1.033,1.402,2.01,1.986,3.041c0.609,1.013,1.186,2.006,1.85,2.896c0.666,0.891,1.309,1.75,1.926,2.576&#10;&#9;&#9;&#9;c1.117,1.727,2.156,3.309,2.879,4.821c0.721,1.506,1.35,2.818,1.867,3.899c0.494,1.084,0.912,1.92,1.213,2.484&#10;&#9;&#9;&#9;c0.316,0.559,0.484,0.857,0.484,0.857l0.043,0.077C589.098,117.756,589.338,117.822,589.527,117.716z" style="opacity:0.4;fill:#3D853C;"/>
		<path d="M573.709,118.251c-6.918-5.084-12-10.084-21.168-9.334c-9.166,0.75-18.916,6.584-23.75,18.167&#10;&#9;&#9;&#9;c-4.832,11.583-3.834,19.083-3.666,27.583c0.166,8.5,2.25,18.584,2.584,18.084c0.332-0.5,7.594-12.667,12.629-14.917&#10;&#9;&#9;&#9;c5.037-2.25,14.369-5.666,16.037-6.083c8.916-1.167,15.084-6.417,17.334-8.167c11.332-5.917,15.248-10.501,16.416-15.917&#10;&#9;&#9;&#9;c1.166-5.416,1.5-8.75-1.166-11.5C586.291,113.417,577.625,115.918,573.709,118.251z" style="fill:#6BB551;"/>
		<path d="M590.51,160.709c4.615,5.041,4.865,17.666,4.99,23.041c1.625,14.625,2,31.25,2,31.25h-6.504&#10;&#9;&#9;&#9;c0,0,1.879-25.875-1.246-33.25s-7.25-7.834-10.875-7.73c-3.625,0.105-7.106-0.233-15.49-1.252&#10;&#9;&#9;&#9;C555,171.75,550.25,165.5,550.25,165.5s13-6.48,21.125-7.803C579.5,156.375,587.521,158.168,590.51,160.709z" style="fill:#3D853C;"/>
		<path d="M590.996,160.834c-5.287-5.083-7.787-7.083-15.371-6.666c-4.672,0.257-8.666,1.5-8.666,1.5&#10;&#9;&#9;&#9;c-3.5-0.417-10.25-2.666-15.25,1s-11.418,7.451-14.418,16.101c-3,8.649-1.082,25.149,1.668,28.982&#10;&#9;&#9;&#9;c2.332-3.417,8.666-9.75,12.166-12s6.832-6.749,10.5-7.833c3.666-1.084,9-1.799,13.084-9.149&#10;&#9;&#9;&#9;C578.791,165.418,583.246,158.584,590.996,160.834z" style="fill:#6BB551;"/>
		<path d="M597.5,215l6.125-0.367c-0.006-3.012-0.072-24.43-1-33.716&#10;&#9;&#9;&#9;c-1-10-2.045-15.682-1.418-19.749l-2.508,2.833c0.002,0.886-0.012,1.94-0.033,3.107c0.379,1.876,0.805,3.717,1.225,5.441&#10;&#9;&#9;&#9;c1.826,7.511,0.379,14.234,0.018,22.02C599.547,202.355,597.5,215,597.5,215z" style="opacity:0.6;fill:#3D853C;"/>
		<path d="M632.5,144.75c13.435,1.4,24.5,4.467,24.5,4.467s-8.375,5.533-13.75,8.033&#10;&#9;&#9;&#9;s-9.125,5.125-15.875,10.5s-9.875,5.25-12.861,8.375c-2.984,3.125-4.764,7.25-7.514,16.875s0,22,0,22h-8.301&#10;&#9;&#9;&#9;c0,0,2.801-12.5,3.627-20.25c0.826-7.75,2.674-14.375,1.299-21.981c-1.375-7.607-2.76-17.361,0-22.852&#10;&#9;&#9;&#9;C605.5,147.167,621.469,143.601,632.5,144.75z" style="fill:#3D853C;"/>
		<path d="M603.625,149.917c5.584-0.583,14,6.249,21.916,7.166c7.916,0.917,16,1.751,20.334,5.834&#10;&#9;&#9;&#9;c4.332,4.083,7.832,4.749,9.75,5.416c1.916,0.667,11.5,11,11.916,10.25c0.416-0.75,1.582-10.5,1.916-16.5&#10;&#9;&#9;&#9;c0.334-6,0.584-13.999-3.25-17.916c-3.832-3.917-11.25-6.418-16.5-7.084c-5.25-0.666-13.666-0.166-18.332,0.584&#10;&#9;&#9;&#9;c-8.5-0.667-15.25,0.609-19.25,3.138C608.125,143.333,604.207,146.75,603.625,149.917z" style="fill:#6BB551;"/>
		<path d="M573.848,118.399l0.029-0.061c0.037-0.081,0.076-0.163,0.113-0.245&#10;&#9;&#9;&#9;c-0.092,0.053-0.193,0.105-0.281,0.157c-0.16-0.117-0.313-0.233-0.471-0.35c-0.523,0.305-1.033,0.604-1.565,0.853&#10;&#9;&#9;&#9;c-0.707,0.099-1.355,0.363-1.982,0.674c-0.623,0.321-1.242,0.643-1.873,0.94l-1.904,0.854l-1.918,0.834&#10;&#9;&#9;&#9;c-0.645,0.267-1.334,0.453-1.951,0.781c-0.32,0.142-0.613,0.336-0.904,0.529l-0.83,0.661c-0.56,0.424-1.189,0.724-1.764,1.123&#10;&#9;&#9;&#9;c-1.172,0.749-2.355,1.484-3.49,2.294c-1.063,0.899-2.412,1.435-3.475,2.358c-0.553,0.433-0.994,0.991-1.465,1.512&#10;&#9;&#9;&#9;c-0.465,0.524-1.02,0.959-1.531,1.43c-0.521,0.461-1.045,0.921-1.5,1.449c-0.451,0.531-0.832,1.133-1.336,1.612&#10;&#9;&#9;&#9;c-0.979,0.987-2.096,1.843-2.994,2.911c-0.936,1.032-1.816,2.115-2.721,3.172l-2.59,3.276c-0.895,1.073-1.545,2.314-2.426,3.409&#10;&#9;&#9;&#9;c-0.898,1.088-1.504,2.364-2.039,3.656c-0.605,1.262-0.992,2.61-1.596,3.867c-0.27,0.643-0.584,1.267-0.912,1.888&#10;&#9;&#9;&#9;c-0.297,0.633-0.564,1.278-0.848,1.919c-0.535,1.291-0.982,2.62-1.297,3.982l-0.012,0.054v0.003&#10;&#9;&#9;&#9;c-0.049,0.214,0.086,0.426,0.301,0.473c0.213,0.047,0.424-0.088,0.471-0.301c0.15-0.678,0.348-1.342,0.541-2.008&#10;&#9;&#9;&#9;c0.184-0.669,0.389-1.332,0.621-1.985c0.227-0.654,0.43-1.319,0.685-1.962c0.279-0.635,0.549-1.273,0.791-1.921&#10;&#9;&#9;&#9;c0.527-1.278,0.93-2.621,1.637-3.817l0.961-1.843c0.316-0.616,0.607-1.249,1.002-1.819c0.359-0.593,0.77-1.153,1.15-1.73&#10;&#9;&#9;&#9;c0.385-0.576,0.701-1.199,1.143-1.736c0.846-1.098,1.625-2.254,2.551-3.288c0.936-1.026,1.842-2.08,2.801-3.085l2.914-2.98&#10;&#9;&#9;&#9;c0.99-0.977,1.957-1.976,2.994-2.904c0.516-0.472,1.068-0.889,1.543-1.396c0.484-0.495,0.975-0.985,1.496-1.442&#10;&#9;&#9;&#9;c1.027-0.934,2.174-1.718,3.246-2.602c1.131-0.807,2.318-1.531,3.518-2.229c1.174-0.742,2.471-1.263,3.672-1.95&#10;&#9;&#9;&#9;c0.6-0.346,1.152-0.789,1.769-1.106c0.607-0.338,1.246-0.612,1.879-0.896c1.271-0.559,2.574-1.043,3.865-1.543&#10;&#9;&#9;&#9;c0.65-0.244,1.35-0.351,1.98-0.634c0.637-0.274,1.273-0.554,1.916-0.805L573.848,118.399z" style="opacity:0.4;fill:#3D853C;"/>
		<path d="M662.375,56.834c-0.453-0.082-0.897-0.152-1.334-0.218&#10;&#9;&#9;&#9;c-0.231,0.062-0.453,0.109-0.689,0.183c-2.021,0.607-4.096,1.875-6.043,3.528c-1.986,1.621-4.01,3.48-6.43,5.115&#10;&#9;&#9;&#9;c-2.416,1.649-4.953,3.432-7.289,5.616c-2.4,2.104-4.738,4.436-6.99,6.916c-1.123,1.242-2.17,2.569-3.27,3.86&#10;&#9;&#9;&#9;c-1.059,1.322-2.049,2.709-3.08,4.063c-0.523,0.673-0.992,1.382-1.479,2.079l-1.492,2.063c-1.004,1.366-1.764,2.897-2.604,4.34&#10;&#9;&#9;&#9;c-1.746,2.858-3.381,5.722-5.016,8.459c-0.771,1.396-1.531,2.769-2.273,4.111c-0.756,1.337-1.549,2.618-2.203,3.927&#10;&#9;&#9;&#9;c-0.67,1.302-1.127,2.662-1.725,3.9c-0.594,1.241-1.158,2.445-1.732,3.586c-0.561,1.147-1.1,2.247-1.611,3.293&#10;&#9;&#9;&#9;c-0.496,1.053-1.031,2.025-1.445,2.976c-0.775,1.922-1.303,3.657-1.84,5.045c-0.555,1.38-1.041,2.444-1.484,3.125&#10;&#9;&#9;&#9;c-0.41,0.693-0.721,1.026-0.721,1.026c-0.014,0.014-0.027,0.029-0.039,0.045c-0.215,0.278-0.164,0.678,0.113,0.894&#10;&#9;&#9;&#9;c0.277,0.215,0.678,0.164,0.893-0.114l0.256-0.329c0,0,0.27-0.35,0.609-1.071c0.371-0.71,0.762-1.813,1.182-3.248&#10;&#9;&#9;&#9;c0.182-0.729,0.385-1.536,0.604-2.414c0.273-0.856,0.4-1.851,0.988-2.731c0.844-1.895,1.594-4.104,2.717-6.397&#10;&#9;&#9;&#9;c1.092-2.303,2.229-4.823,3.82-7.286c0.748-1.255,1.152-2.734,1.885-4.084c0.715-1.355,1.42-2.756,2.188-4.152&#10;&#9;&#9;&#9;c0.365-0.709,0.783-1.396,1.209-2.083c0.42-0.691,0.82-1.401,1.262-2.093c0.865-1.395,1.926-2.691,2.803-4.113&#10;&#9;&#9;&#9;c0.898-1.413,1.492-3.016,2.518-4.373c0.969-1.389,2.014-2.741,2.922-4.169c0.465-0.707,0.887-1.448,1.385-2.137&#10;&#9;&#9;&#9;c0.512-0.676,1-1.37,1.582-1.986l1.68-1.894c0.557-0.629,1.033-1.326,1.611-1.928c2.225-2.485,4.438-4.939,6.891-6.978&#10;&#9;&#9;&#9;c0.609-0.512,1.201-1.036,1.813-1.522c0.627-0.468,1.248-0.931,1.861-1.389c1.211-0.938,2.473-1.755,3.719-2.51&#10;&#9;&#9;&#9;c1.256-0.748,2.465-1.559,3.484-2.494c1.027-0.924,1.979-1.854,2.938-2.688c1.918-1.661,3.988-2.839,5.982-3.329&#10;&#9;&#9;&#9;c0.707-0.185,1.377-0.3,2.025-0.391C662.473,56.854,662.426,56.844,662.375,56.834z" style="opacity:0.4;fill:#3D853C;"/>
		<path d="M686.994,91.291c-0.135-0.137-0.268-0.265-0.4-0.396&#10;&#9;&#9;&#9;c-2.02-0.268-4.172-0.487-6.451-0.718c-1.281-0.106-2.6-0.132-3.938-0.018c-0.67,0.052-1.34,0.166-2.02,0.247&#10;&#9;&#9;&#9;c-0.672,0.121-1.352,0.242-2.037,0.364c-2.723,0.566-5.506,1.313-8.236,2.35c-2.732,1.025-5.426,2.292-7.979,3.804&#10;&#9;&#9;&#9;c-0.631,0.391-1.293,0.73-1.898,1.159c-0.619,0.409-1.277,0.759-1.877,1.2c-0.611,0.424-1.162,0.925-1.74,1.383&#10;&#9;&#9;&#9;c-0.531,0.506-1.063,1.009-1.592,1.511c-1.086,0.984-2.16,1.94-3.201,2.921c-1.022,0.998-2.086,1.926-3.135,2.834&#10;&#9;&#9;&#9;c-2.016,1.912-4.318,3.335-6.268,4.961c-0.965,0.826-1.811,1.756-2.787,2.448c-0.98,0.686-1.922,1.357-2.848,1.97&#10;&#9;&#9;&#9;c-1.863,1.206-3.453,2.479-5.053,3.326c-1.51,0.988-2.746,1.975-3.82,2.699c-1.086,0.706-1.961,1.228-2.635,1.463&#10;&#9;&#9;&#9;c-0.648,0.275-1.049,0.34-1.049,0.34c-0.022,0.003-0.043,0.008-0.065,0.014c-0.336,0.09-0.533,0.435-0.443,0.771&#10;&#9;&#9;&#9;c0.09,0.335,0.434,0.534,0.77,0.444l0.457-0.122c0,0,0.375-0.101,0.982-0.44c0.631-0.301,1.451-0.908,2.457-1.738&#10;&#9;&#9;&#9;c0.486-0.439,1.025-0.926,1.613-1.455c0.619-0.481,1.19-1.154,2.063-1.465c1.574-0.895,3.002-2.428,4.863-3.638&#10;&#9;&#9;&#9;c0.893-0.661,1.859-1.302,2.85-1.977c0.963-0.713,2.029-1.359,3.051-2.123c1.039-0.744,1.848-1.828,2.896-2.655&#10;&#9;&#9;&#9;c0.518-0.424,1.039-0.852,1.566-1.284c0.508-0.456,1.019-0.917,1.535-1.382c1.033-0.929,2.082-1.873,3.144-2.829&#10;&#9;&#9;&#9;c1.068-0.938,2.32-1.754,3.397-2.697c0.545-0.484,1.062-1.005,1.572-1.534c0.533-0.487,1.08-0.977,1.674-1.403&#10;&#9;&#9;&#9;c1.199-0.844,2.494-1.55,3.713-2.375c1.16-0.924,2.459-1.657,3.832-2.189c1.357-0.561,2.711-1.119,4.053-1.674&#10;&#9;&#9;&#9;c2.703-1.05,5.436-1.965,8.168-2.449c0.685-0.104,1.361-0.229,2.035-0.312c0.678-0.059,1.346-0.15,2.012-0.18&#10;&#9;&#9;&#9;c1.324-0.063,2.639-0.132,3.873,0.119c1.252,0.218,2.477,0.432,3.672,0.502C684.889,91.121,685.959,91.203,686.994,91.291z" style="opacity:0.4;fill:#3D853C;"/>
		<path d="M666.967,173.217c-0.164-0.457-0.402-1.127-0.707-1.98&#10;&#9;&#9;&#9;c-0.258-0.865-0.631-1.902-1.027-3.102c-0.357-1.219-1.004-2.483-1.611-3.905c-0.154-0.358-0.283-0.72-0.465-1.097&#10;&#9;&#9;&#9;c-0.223-0.347-0.395-0.745-0.672-1.066c-0.506-0.684-1.127-1.295-1.773-1.909c-0.676-0.579-1.314-1.235-2.055-1.807&#10;&#9;&#9;&#9;c-0.733-0.577-1.5-1.142-2.279-1.715c-1.551-1.151-3.156-2.342-4.785-3.551c-1.625-1.215-3.27-2.459-4.873-3.75&#10;&#9;&#9;&#9;c-0.807-0.642-1.567-1.339-2.299-2.058c-0.752-0.696-1.566-1.309-2.314-1.992c-1.441-1.419-2.82-2.863-4.129-4.295&#10;&#9;&#9;&#9;c-0.666-0.703-1.354-1.368-2.08-1.968c-0.359-0.303-0.736-0.585-1.102-0.872c-0.398-0.237-0.777-0.52-1.219-0.649&#10;&#9;&#9;&#9;c-0.102-0.041-0.205-0.066-0.309-0.099c-0.381,0.046-0.744,0.095-1.096,0.145c0.387,0.17,0.764,0.364,1.139,0.555&#10;&#9;&#9;&#9;c0.387,0.176,0.768,0.373,1.205,0.504c0.406,0.184,0.838,0.363,1.197,0.655c0.729,0.564,1.453,1.179,2.119,1.875&#10;&#9;&#9;&#9;c0.666,0.696,1.344,1.404,2.002,2.15c0.697,0.723,1.15,1.656,1.908,2.363c0.717,0.746,1.662,1.234,2.4,1.95&#10;&#9;&#9;&#9;c0.768,0.686,1.469,1.464,2.34,2.031c1.895,0.931,3.184,2.634,4.94,3.683c1.646,1.186,3.34,2.256,4.854,3.456&#10;&#9;&#9;&#9;c0.766,0.59,1.498,1.194,2.199,1.803c0.344,0.313,0.709,0.591,1.041,0.899c0.336,0.304,0.629,0.645,0.93,0.968&#10;&#9;&#9;&#9;c1.1,1.398,2.301,2.431,2.873,3.917c0.629,1.411,1.213,2.71,1.467,3.95c0.305,1.215,0.57,2.274,0.787,3.147&#10;&#9;&#9;&#9;c0.242,0.863,0.477,1.531,0.633,1.984c0.174,0.448,0.268,0.688,0.268,0.688l0.029,0.076c0.078,0.203,0.307,0.304,0.51,0.225&#10;&#9;&#9;&#9;c0.203-0.078,0.305-0.307,0.227-0.51C667.238,173.916,667.143,173.673,666.967,173.217z" style="opacity:0.4;fill:#3D853C;"/>
		<path d="M564.787,157.41l1.125-1.9c-0.172-0.029-0.344-0.058-0.525-0.09&#10;&#9;&#9;&#9;c-0.055,0.188-0.109,0.377-0.184,0.557c-0.176,0.453-0.408,0.877-0.643,1.3c-0.5,0.827-1.037,1.633-1.57,2.44&#10;&#9;&#9;&#9;c-0.568,0.782-1.104,1.594-1.807,2.275c-0.715,0.673-1.352,1.4-1.818,2.264c-0.477,0.856-1.168,1.547-1.828,2.258&#10;&#9;&#9;&#9;c-0.328,0.357-0.647,0.723-0.9,1.141c-0.252,0.421-0.492,0.852-0.795,1.23c-0.604,0.759-1.361,1.391-1.975,2.142l-1.801,2.288&#10;&#9;&#9;&#9;l-1.777,2.308l-1.857,2.242c-0.635,0.735-1.207,1.517-1.859,2.243c-0.662,0.719-1.338,1.438-1.799,2.308l-0.705,1.287&#10;&#9;&#9;&#9;c-0.217,0.439-0.447,0.87-0.689,1.292c-0.479,0.848-0.904,1.724-1.381,2.579c-0.441,0.872-0.959,1.73-1.281,2.659&#10;&#9;&#9;&#9;c-0.356,0.92-0.604,1.861-0.762,2.832l-0.012,0.08c-0.035,0.215,0.109,0.418,0.324,0.453c0.215,0.035,0.418-0.111,0.453-0.326&#10;&#9;&#9;&#9;c0.078-0.479,0.18-0.951,0.297-1.42c0.109-0.473,0.215-0.944,0.369-1.401c0.158-0.454,0.299-0.917,0.473-1.365l0.555-1.331&#10;&#9;&#9;&#9;c0.424-0.86,0.764-1.765,1.248-2.6c0.228-0.425,0.465-0.845,0.713-1.258l0.809-1.204c0.527-0.81,1.104-1.587,1.666-2.374&#10;&#9;&#9;&#9;c0.555-0.792,1.223-1.504,1.777-2.301c1.141-1.568,2.373-3.067,3.617-4.555l3.742-4.457l1.875-2.229&#10;&#9;&#9;&#9;c0.658-0.715,1.348-1.406,1.881-2.224l0.844-1.189c0.293-0.386,0.604-0.761,0.881-1.159c0.592-0.771,1.09-1.609,1.678-2.383&#10;&#9;&#9;&#9;L564.787,157.41z" style="opacity:0.4;fill:#3D853C;"/>
	</g>
	</g>
	</svg>