<svg xml:space="preserve" style="max-height: 500px" viewBox="513 248 188 200" y="0px" x="0px" xmlns:xlink="http://www.w3.org/1999/xlink" xmlns="http://www.w3.org/2000/svg" version="1.1" width="188" height="200">

<g id="OBJECTS">

	<g>
		<path d="M576.236,283.342c-7.5-6.947-21.334-4.614-28.668,0.886c-7.332,5.5-9,20.833-7.666,21&#10;&#9;&#9;&#9;c1.334,0.167,6.225-6.832,9.611-6.666c3.389,0.166,3.889,1.166,1.555,3.666c-2.332,2.5-10.686,11.254-9.592,18.627&#10;&#9;&#9;&#9;c1.092,7.373,2.76,11.04,3.926,12.04c1.166,1,7.166-7.834,6.666-5.167c-0.5,2.667-2.219,10.462-1.025,13.314&#10;&#9;&#9;&#9;c1.193,2.853,6.527,11.719,7.859,13.619c1.334,1.9,2.334,3.067,3.5,1.4c1.166-1.667,2.5-5.168,7.166-9.834&#10;&#9;&#9;&#9;c4.668-4.666,7.168-6.666,8.168-11.166s1.5-13,2.666-12c1.166,1,1.166,9,2.834,7.833c1.666-1.167,9.709-9.827,12.041-15.667&#10;&#9;&#9;&#9;c2.334-5.84,3.959-6.833,3.459-11.833s-1.152-9.999,0.09-9.333c1.242,0.666,0.244,7.5,2.076,6.5c1.834-1,7.334-4.166,8.334-13&#10;&#9;&#9;&#9;c1-8.834,1.998-12.667-4.418-16.167C598.402,267.895,583.236,267.789,576.236,283.342z" style="fill:#3D853C;"/>
		<path d="M596.619,346.253c0.346,2.295,0.693,4.608,1.043,6.931c0.314,2.327,0.541,4.682,0.816,7.023&#10;&#9;&#9;&#9;c0.125,1.174,0.279,2.342,0.381,3.518c0.092,1.177,0.185,2.352,0.277,3.526c0.17,2.349,0.395,4.678,0.522,7.003&#10;&#9;&#9;&#9;c0.191,4.657,0.518,9.22,0.551,13.667c0.047,2.219,0.092,4.4,0.137,6.536c0.053,2.134,0.002,4.233,0.01,6.269&#10;&#9;&#9;&#9;c-0.014,4.074-0.002,7.922-0.121,11.483c-0.088,3.558-0.17,6.818-0.24,9.709c-0.125,2.892-0.23,5.414-0.32,7.49&#10;&#9;&#9;&#9;c-0.176,4.151-0.277,6.523-0.277,6.523l-0.004,0.106c0,0.008,0,0.016,0,0.023h10.848c-0.006-0.542-0.031-2.83-0.07-6.483&#10;&#9;&#9;&#9;c-0.023-2.103-0.051-4.657-0.084-7.587c-0.082-2.932-0.178-6.24-0.279-9.849c-0.072-3.605-0.293-7.519-0.5-11.653&#10;&#9;&#9;&#9;c-0.117-2.067-0.18-4.189-0.35-6.36c-0.162-2.171-0.326-4.388-0.494-6.643c-0.275-4.508-0.856-9.163-1.307-13.889&#10;&#9;&#9;&#9;c-0.254-2.362-0.609-4.739-0.914-7.126c-0.158-1.192-0.316-2.387-0.475-3.583c-0.168-1.195-0.389-2.388-0.582-3.582&#10;&#9;&#9;&#9;c-0.41-2.386-0.769-4.774-1.221-7.144c-0.486-2.362-0.969-4.716-1.449-7.051c-0.478-2.332-1.115-4.62-1.656-6.892&#10;&#9;&#9;&#9;c-0.523-2.276-1.191-4.491-1.834-6.67c-0.633-2.183-1.25-4.327-1.994-6.386c-0.729-2.063-1.35-4.108-2.121-6.043&#10;&#9;&#9;&#9;c-0.76-1.938-1.5-3.82-2.215-5.643c-0.764-1.802-1.553-3.52-2.283-5.179c-0.709-1.668-1.486-3.222-2.227-4.697&#10;&#9;&#9;&#9;c-0.738-1.476-1.414-2.886-2.094-4.191c-1.42-2.583-2.625-4.862-3.67-6.68c-2.129-3.601-3.346-5.657-3.346-5.657&#10;&#9;&#9;&#9;c-0.361-0.609-1.143-0.84-1.779-0.509c-0.658,0.343-0.912,1.155-0.57,1.814c0,0,1.105,2.119,3.039,5.827&#10;&#9;&#9;&#9;c0.94,1.858,1.986,4.131,3.238,6.722c0.596,1.311,1.184,2.731,1.83,4.213c0.646,1.481,1.324,3.038,1.93,4.705&#10;&#9;&#9;&#9;c0.625,1.658,1.307,3.371,1.955,5.165c0.602,1.81,1.223,3.681,1.861,5.605c0.65,1.918,1.146,3.945,1.748,5.982&#10;&#9;&#9;&#9;c0.615,2.033,1.104,4.152,1.606,6.305c0.51,2.148,1.045,4.326,1.434,6.57C595.775,341.713,596.273,343.956,596.619,346.253z" style="fill:#244F23;"/>
		<path d="M634.56,275.907c0.002-0.001-0.313,0.579-0.81,1.618c-0.26,0.514-0.565,1.177-0.918,1.968&#10;&#9;&#9;&#9;c-0.35,0.79-0.781,1.678-1.197,2.715c-0.428,1.029-0.9,2.168-1.416,3.408c-0.479,1.259-0.994,2.62-1.545,4.074&#10;&#9;&#9;&#9;c-0.574,1.443-1.08,3.026-1.654,4.675c-0.557,1.655-1.189,3.376-1.726,5.22c-0.561,1.833-1.145,3.742-1.75,5.718&#10;&#9;&#9;&#9;c-0.578,1.983-1.108,4.058-1.69,6.176c-0.287,1.06-0.576,2.134-0.871,3.222c-0.289,1.089-0.525,2.208-0.797,3.329&#10;&#9;&#9;&#9;c-0.525,2.246-1.063,4.541-1.609,6.874c-0.523,2.338-0.957,4.741-1.449,7.157c-0.24,1.21-0.483,2.427-0.725,3.65&#10;&#9;&#9;&#9;c-0.256,1.219-0.482,2.451-0.67,3.698c-0.404,2.483-0.813,4.987-1.221,7.502c-0.205,1.256-0.41,2.514-0.615,3.773l-0.488,3.805&#10;&#9;&#9;&#9;c-0.609,5.079-1.395,10.125-1.775,15.151c-0.232,2.504-0.463,4.989-0.689,7.445c-0.113,1.227-0.227,2.445-0.34,3.656&#10;&#9;&#9;&#9;c-0.072,1.215-0.143,2.422-0.215,3.618c-0.273,4.782-0.539,9.405-0.789,13.789c-0.102,4.392-0.197,8.543-0.285,12.376&#10;&#9;&#9;&#9;c-0.045,1.914-0.088,3.748-0.127,5.493c0.016,1.747,0.029,3.404,0.045,4.962c0.035,3.113,0.065,5.827,0.09,8.063&#10;&#9;&#9;&#9;c0.051,4.467,0.08,7.02,0.08,7.02H596.74c0,0,0.115-2.607,0.318-7.17c0.102-2.279,0.225-5.047,0.367-8.223&#10;&#9;&#9;&#9;c0.074-1.586,0.154-3.274,0.238-5.054c0.141-1.778,0.287-3.647,0.441-5.599c0.309-3.898,0.645-8.121,0.998-12.588&#10;&#9;&#9;&#9;c0.506-4.453,1.039-9.149,1.59-14.007c0.141-1.214,0.283-2.436,0.426-3.669c0.184-1.228,0.367-2.465,0.553-3.71&#10;&#9;&#9;&#9;c0.371-2.487,0.748-5.005,1.125-7.543c0.676-5.083,1.764-10.196,2.674-15.323l0.711-3.84c0.281-1.272,0.563-2.543,0.842-3.811&#10;&#9;&#9;&#9;c0.561-2.535,1.117-5.059,1.67-7.564c0.262-1.254,0.563-2.495,0.893-3.726c0.316-1.23,0.633-2.456,0.945-3.674&#10;&#9;&#9;&#9;c0.639-2.432,1.215-4.846,1.883-7.195c0.688-2.345,1.365-4.649,2.029-6.905c0.338-1.126,0.643-2.246,1-3.339&#10;&#9;&#9;&#9;c0.361-1.092,0.717-2.17,1.068-3.233c0.713-2.124,1.369-4.198,2.07-6.185c0.731-1.978,1.434-3.889,2.109-5.724&#10;&#9;&#9;&#9;c0.65-1.842,1.394-3.566,2.057-5.221c0.68-1.649,1.283-3.226,1.953-4.672c0.646-1.453,1.252-2.814,1.81-4.07&#10;&#9;&#9;&#9;c0.6-1.242,1.15-2.384,1.648-3.414c0.482-1.034,0.982-1.936,1.389-2.728c0.408-0.789,0.766-1.463,1.082-2.012&#10;&#9;&#9;&#9;c0.613-1.111,0.945-1.647,0.945-1.648L634.56,275.907z" style="fill:#3D853C;"/>
		<path d="M634.56,275.907c0.002-0.001-0.313,0.579-0.81,1.618&#10;&#9;&#9;&#9;c-0.26,0.514-0.565,1.177-0.918,1.968c-0.35,0.79-0.781,1.678-1.197,2.715c-0.428,1.029-0.9,2.168-1.416,3.408&#10;&#9;&#9;&#9;c-0.479,1.259-0.994,2.62-1.545,4.074c-0.574,1.443-1.08,3.026-1.654,4.675c-0.557,1.655-1.189,3.376-1.726,5.22&#10;&#9;&#9;&#9;c-0.561,1.833-1.145,3.742-1.75,5.718c-0.578,1.983-1.108,4.058-1.69,6.176c-0.287,1.06-0.576,2.134-0.871,3.222&#10;&#9;&#9;&#9;c-0.289,1.089-0.525,2.208-0.797,3.329c-0.525,2.246-1.063,4.541-1.609,6.874c-0.523,2.338-0.957,4.741-1.449,7.157&#10;&#9;&#9;&#9;c-0.24,1.21-0.483,2.427-0.725,3.65c-0.256,1.219-0.482,2.451-0.67,3.698c-0.404,2.483-0.813,4.987-1.221,7.502&#10;&#9;&#9;&#9;c-0.205,1.256-0.41,2.514-0.615,3.773l-0.488,3.805c-0.609,5.079-1.395,10.125-1.775,15.151c-0.232,2.504-0.463,4.989-0.689,7.445&#10;&#9;&#9;&#9;c-0.113,1.227-0.227,2.445-0.34,3.656c-0.072,1.215-0.143,2.422-0.215,3.618c-0.273,4.782-0.539,9.405-0.789,13.789&#10;&#9;&#9;&#9;c-0.102,4.392-0.197,8.543-0.285,12.376c-0.045,1.914-0.088,3.748-0.127,5.493c0.016,1.747,0.029,3.404,0.045,4.962&#10;&#9;&#9;&#9;c0.035,3.113,0.065,5.827,0.09,8.063c0.051,4.467,0.08,7.02,0.08,7.02H596.74c0,0,0.115-2.607,0.318-7.17&#10;&#9;&#9;&#9;c0.102-2.279,0.225-5.047,0.367-8.223c0.074-1.586,0.154-3.274,0.238-5.054c0.141-1.778,0.287-3.647,0.441-5.599&#10;&#9;&#9;&#9;c0.309-3.898,0.645-8.121,0.998-12.588c0.506-4.453,1.039-9.149,1.59-14.007c0.141-1.214,0.283-2.436,0.426-3.669&#10;&#9;&#9;&#9;c0.184-1.228,0.367-2.465,0.553-3.71c0.371-2.487,0.748-5.005,1.125-7.543c0.676-5.083,1.764-10.196,2.674-15.323l0.711-3.84&#10;&#9;&#9;&#9;c0.281-1.272,0.563-2.543,0.842-3.811c0.561-2.535,1.117-5.059,1.67-7.564c0.262-1.254,0.563-2.495,0.893-3.726&#10;&#9;&#9;&#9;c0.316-1.23,0.633-2.456,0.945-3.674c0.639-2.432,1.215-4.846,1.883-7.195c0.688-2.345,1.365-4.649,2.029-6.905&#10;&#9;&#9;&#9;c0.338-1.126,0.643-2.246,1-3.339c0.361-1.092,0.717-2.17,1.068-3.233c0.713-2.124,1.369-4.198,2.07-6.185&#10;&#9;&#9;&#9;c0.731-1.978,1.434-3.889,2.109-5.724c0.65-1.842,1.394-3.566,2.057-5.221c0.68-1.649,1.283-3.226,1.953-4.672&#10;&#9;&#9;&#9;c0.646-1.453,1.252-2.814,1.81-4.07c0.6-1.242,1.15-2.384,1.648-3.414c0.482-1.034,0.982-1.936,1.389-2.728&#10;&#9;&#9;&#9;c0.408-0.789,0.766-1.463,1.082-2.012c0.613-1.111,0.945-1.647,0.945-1.648L634.56,275.907z" style="opacity:0.5;fill:#3D853C;"/>
		<path d="M610.568,436.061c0,0-6.795-66.598-37.771-109.799l-1.441,1.717&#10;&#9;&#9;&#9;c12.713,21.582,27.713,59.832,26.213,108.082H610.568z" style="fill:#3D853C;"/>
		<path d="M595.574,399.564c1.606,11.365,2.397,23.568,1.994,36.498h13&#10;&#9;&#9;&#9;c0,0-2.309-22.601-10.355-50.01C599.283,388.545,597.521,393.42,595.574,399.564z" style="opacity:0.6;fill:#3D853C;"/>
		<path d="M654.113,355.811c0,0-45.545,32.25-53.211,80.25h9.666c2.334-21.834,20.279-56.921,45.141-78.544&#10;&#9;&#9;&#9;L654.113,355.811z" style="fill:#3D853C;"/>
		<path d="M612.916,402.44c-5.563,9.979-10.041,21.277-12.014,33.621h9.666&#10;&#9;&#9;&#9;c0.584-5.467,2.148-11.765,4.553-18.474L612.916,402.44z" style="opacity:0.6;fill:#3D853C;"/>
		<path d="M615,361.895c-11.598,15.667-17.266,42.334-17.432,74.167h13c0,0-4.717-36.112,6.141-71.667&#10;&#9;&#9;&#9;L615,361.895z" style="fill:#3D853C;"/>
		<path d="M649.568,351.686c-7.375-0.625-14.875,5.625-15.375,11.875s3.75,12,8.5,13.375&#10;&#9;&#9;&#9;c0-3.875,2.875-11.875,3.75-11s-0.375,6.125,0.75,9.375s2.102,4.663,6.125,7.25c1.75,1.125,2.242,1.5,2.184-0.75&#10;&#9;&#9;&#9;c-0.059-2.25,1.441-7.625,1.941-7.125s0.125,5.914,1.625,8.77c1.5,2.855,2.375,4.105,5.625,5.605s6.125,1.625,8.75,3.75&#10;&#9;&#9;&#9;s4.125,5,4.5,3.125s1.125-7.75,1-11.25s-0.75-4.5-2.75-7.375s-4.5-4.875-2.625-4.375s5.152,3.625,5.389,2.5&#10;&#9;&#9;&#9;c0.236-1.125-0.139-7.125-1.264-11.375s-3.5-5.426-6.125-6.213s-5-2.537-2.875-2.287s6.75,1.875,6-0.75s-1.125-5.25-5.75-7.875&#10;&#9;&#9;&#9;s-11,1.125-11.875,0s7-3.375,4.375-3.75S651.068,342.686,649.568,351.686z" style="fill:#6BB551;"/>
		<path d="M644.611,368.657c-1.939-5.851-5.664-8.358-8.383-10.351&#10;&#9;&#9;&#9;c-1.144,1.643-1.891,3.446-2.035,5.255c-0.5,6.25,3.75,12,8.5,13.375C642.693,374.714,643.641,371.141,644.611,368.657z" style="opacity:0.4;fill:#3D853C;"/>
		<path d="M650.568,351.686c0,0,0.65,0.448,1.709,1.313c0.527,0.434,1.156,0.973,1.857,1.61&#10;&#9;&#9;&#9;c0.725,0.609,1.424,1.445,2.098,2.421c0.348,0.48,0.691,0.991,1.092,1.48c0.391,0.496,0.852,0.963,1.272,1.484&#10;&#9;&#9;&#9;c0.805,1.071,1.711,2.156,2.621,3.305c0.947,1.121,1.803,2.369,2.629,3.666c0.816,1.301,1.73,2.57,2.484,3.939&#10;&#9;&#9;&#9;c0.76,1.362,1.52,2.725,2.268,4.065c0.777,1.325,1.395,2.707,2.07,4.002c0.324,0.655,0.658,1.292,0.988,1.914&#10;&#9;&#9;&#9;c0.346,0.613,0.67,1.221,0.961,1.825c0.596,1.201,1.178,2.333,1.66,3.401c0.24,0.535,0.465,1.05,0.666,1.544&#10;&#9;&#9;&#9;c0.166,0.509,0.324,0.991,0.473,1.444c0.283,0.912,0.514,1.712,0.682,2.375c0.338,1.329,0.471,2.102,0.471,2.102&#10;&#9;&#9;&#9;s-0.396-0.689-0.988-1.92c-0.297-0.615-0.631-1.369-0.994-2.239c-0.176-0.438-0.361-0.903-0.559-1.394&#10;&#9;&#9;&#9;c-0.215-0.484-0.439-0.993-0.674-1.523c-0.455-1.068-0.889-2.252-1.365-3.499c-0.43-1.269-1.113-2.503-1.766-3.803&#10;&#9;&#9;&#9;c-0.334-0.647-0.672-1.305-1.016-1.97c-0.172-0.332-0.346-0.667-0.519-1.003l-0.59-0.977c-0.791-1.307-1.594-2.634-2.396-3.962&#10;&#9;&#9;&#9;c-0.813-1.32-1.713-2.585-2.547-3.862c-0.428-0.631-0.836-1.269-1.234-1.9c-0.41-0.626-0.863-1.21-1.266-1.814&#10;&#9;&#9;&#9;c-0.836-1.188-1.617-2.362-2.414-3.432c-0.822-1.046-1.674-1.978-2.531-2.762c-0.871-0.771-1.475-1.643-2.16-2.309&#10;&#9;&#9;&#9;c-0.648-0.692-1.199-1.313-1.641-1.833C651.027,352.329,650.568,351.686,650.568,351.686z" style="fill:#3D853C;"/>
		<path d="M666.943,352.811c0.156-2.064,0.074-4.404-0.109-6.639&#10;&#9;&#9;&#9;c-4.256-0.861-9.018,1.725-9.766,0.764c-0.875-1.125,7-3.375,4.375-3.75s-10.375-0.5-11.875,8.5&#10;&#9;&#9;&#9;c-4.504-0.382-9.045,1.807-12.02,4.986c3.604,1.016,7.15,2.466,10.77,5.514c4.75,4,9.25,10.5,10.25,9.5s0.5-6.75,2.5-10.5&#10;&#9;&#9;&#9;S666.451,359.315,666.943,352.811z" style="opacity:0.4;fill:#3D853C;"/>
		<path d="M574.236,324.063c-2.584-7.917-7.416-10.917-13-12.417c-5.584-1.5-11.25,0.001-10.918,0.917&#10;&#9;&#9;&#9;c0.334,0.916,4.418,3.362,4.168,4.973c-0.25,1.61-2.666,2.026-5.75,1.693c-3.084-0.333-5.668,0.251-9.418,3.084&#10;&#9;&#9;&#9;s-6.834,6.583-8,11.333c-1.166,4.75-1.834,12.833-1.5,14.583c0.334,1.75,0.834,1.501,2.168-0.416c1.332-1.917,1.832-4.751,7-6.834&#10;&#9;&#9;&#9;c5.166-2.083,7-2.75,10-3.083c3-0.333,5.998-0.333,6.082,0.417c0.084,0.75-5.666,3.416-9.25,5.833&#10;&#9;&#9;&#9;c-3.582,2.417-9.084,6.666-11,9.5c-1.916,2.834-2.832,6.584-2.166,13.084c0.666,6.5,1.775,14.084,3.68,18.5&#10;&#9;&#9;&#9;c1.904,4.416,4.404,9.084,4.82,8.25c0.416-0.834,4.582-8.083,7.166-10.75c2.584-2.667,5.584-5.667,11.25-7.167&#10;&#9;&#9;&#9;c5.668-1.5,10.334-3.083,11.5-5.833c1.168-2.75,0.5-5.918,0.25-10.834c-0.25-4.916-0.666-11.5,2.334-11.583s5.584,4.667,5,9.167&#10;&#9;&#9;&#9;c-0.584,4.5-0.916,9-1,11.083c-0.084,2.083,1.416,2.166,3.666,1.083c2.25-1.083,10.584-3.666,15.25-9.583&#10;&#9;&#9;&#9;c4.668-5.917,6-8.5,5.584-13.25c-0.416-4.75-3.332-6.667-3.666-8.667c-0.334-2-0.584-3,1.582-2.083&#10;&#9;&#9;&#9;c2.168,0.917,4.75,2.416,4.75,0.583c0-1.833-1-5.084-4.082-10.167c-3.084-5.083-5.834-5.75-10.668-6.333&#10;&#9;&#9;&#9;C585.236,318.563,579.068,318.979,574.236,324.063z" style="fill:#6BB551;"/>
		<path d="M616.709,360.979c-3.807-2.25-9.639-2.168-13.639-1.084c-4,1.084-6.334,3.833-7.168,6.5&#10;&#9;&#9;&#9;c-0.832,2.667-0.832,6.916,0,6c0.834-0.916,3.25-4.5,4-4s0.168,3.168-0.832,6.084c-1,2.916-1.834,6.166,1.332,9.666&#10;&#9;&#9;&#9;c3.168,3.5,5.916,3.917,7.334,4.917c1.416,1,2.5,2.584,3,1.417c0.5-1.167,1-4.75,1.834-4.167c0.832,0.583,0.582,1.739,1.916,4.578&#10;&#9;&#9;&#9;c1.334,2.839,2.082,4.005,4.75,5.755c2.666,1.75,5.666,5.001,6.416,4.834c0.75-0.167,4.334-4.168,5.5-6.834&#10;&#9;&#9;&#9;c1.168-2.666,0.916-3.584,0.584-6.25c-0.334-2.666-0.777-4.749,0.277-4.666c1.057,0.083,1.723,4.084,2.807,3.25&#10;&#9;&#9;&#9;c1.082-0.834,3.416-4.084,4.082-8.834c0.668-4.75,0.584-5.084-1.416-6.5c-2-1.416-4.334-2.499-3.25-3.666&#10;&#9;&#9;&#9;c1.084-1.167,5.082,1.249,5.041-0.084c-0.041-1.333,0.043-3.082-4.875-6.916C629.486,357.146,622.348,356.479,616.709,360.979z" style="fill:#6BB551;"/>
		<path d="M632.402,273.064c-7.082-4-17.248-5-26.082,0.833c-8.834,5.833-10.418,12.833-9.918,22.5&#10;&#9;&#9;&#9;c0.5,9.667,1.584,17.333,2.584,17.5c1,0.167,4.084-4.416,7.25-9.166c3.166-4.75,7.166-8.501,11.084-11.084&#10;&#9;&#9;&#9;c3.916-2.583,7.082-2.916,6.75-1.416c-0.334,1.5-9.584,9.499-14.334,16.249s-5.666,11.584-3.666,18.584s6.584,12.083,9.916,13.25&#10;&#9;&#9;&#9;c3.334,1.167,4.834,2.167,7,4.417c2.166,2.25,3.334,3.749,3.334,0.416c0-3.333-0.5-9.417,0.666-14.25&#10;&#9;&#9;&#9;c1.166-4.833,2.168-4.5,2.5-7.75c0.334-3.25,1.416-6.75,2.084-5.25c0.666,1.5,0.916,9.334-0.5,15.417&#10;&#9;&#9;&#9;c-1.418,6.083,1.166,14.917,6,18c4.832,3.083,11.75,2.903,14.332,6.535c2.584,3.632,3.533,5.882,4.1,4.465&#10;&#9;&#9;&#9;c0.568-1.417,1.318-7.666,3.568-10.583s4.248-7.833,6.332-11.5c2.084-3.667,3.668-5.75,2.418-9.667s-5.5-12.583-6.75-15.5&#10;&#9;&#9;&#9;s-2.668-5.333-1.75-5c0.916,0.333,6.25,4.333,8,7.5s5.416,12.417,6.25,11.75c0.832-0.667,5.832-10.109,6.832-18.305&#10;&#9;&#9;&#9;c1-8.195,2.166-13.278,0-16.195c-2.166-2.917-4.082-3.083-7.416-4.333c-3.334-1.25-9.666-3.667-9.166-4.417&#10;&#9;&#9;&#9;s3.748-0.833,7.082-0.583c3.334,0.25,7.002,1.5,6.834,0.5c-0.166-1-4.25-6.833-8-11.5s-5.334-7.084-12.25-8.667&#10;&#9;&#9;&#9;c-6.916-1.583-12.332,0.167-16.916,1.5C635.986,268.647,632.402,273.064,632.402,273.064z" style="fill:#6BB551;"/>
		<path d="M573.443,325.811c0,0-0.738,0.816-2.088,2.168c-0.664,0.683-1.471,1.511-2.395,2.461&#10;&#9;&#9;&#9;c-0.938,0.937-1.949,2.031-3.17,3.121c-1.225,1.086-2.42,2.398-3.592,3.854c-0.59,0.727-1.184,1.482-1.783,2.259&#10;&#9;&#9;&#9;c-0.568,0.8-1.15,1.617-1.74,2.448c-1.16,1.676-2.326,3.43-3.469,5.235c-0.563,0.91-1.129,1.827-1.697,2.749&#10;&#9;&#9;&#9;c-0.527,0.943-1.059,1.892-1.59,2.84l-0.795,1.424l-0.723,1.457c-0.48,0.972-0.959,1.94-1.433,2.9&#10;&#9;&#9;&#9;c-0.42,0.985-0.836,1.962-1.248,2.928c-0.41,0.968-0.822,1.919-1.147,2.888c-0.352,0.958-0.676,1.908-0.986,2.84&#10;&#9;&#9;&#9;c-0.338,0.922-0.584,1.852-0.805,2.762c-0.445,1.818-0.959,3.508-1.279,5.107c-0.363,1.588-0.738,3.034-1.086,4.314&#10;&#9;&#9;&#9;c-0.293,1.291-0.566,2.416-0.797,3.342c-0.217,0.929-0.445,1.65-0.574,2.147c-0.148,0.494-0.229,0.758-0.229,0.758&#10;&#9;&#9;&#9;s0.02-0.273,0.055-0.785c0.053-0.51,0.094-1.266,0.219-2.215c0.121-0.951,0.234-2.113,0.457-3.431&#10;&#9;&#9;&#9;c0.27-1.308,0.59-2.78,0.984-4.377c0.102-0.397,0.205-0.805,0.311-1.219c0.133-0.407,0.269-0.821,0.408-1.243&#10;&#9;&#9;&#9;c0.279-0.84,0.57-1.709,0.867-2.602c0.557-1.798,1.328-3.63,1.986-5.572c0.658-1.943,1.57-3.862,2.34-5.876&#10;&#9;&#9;&#9;c0.453-0.977,0.91-1.963,1.369-2.951l0.691-1.487l0.764-1.454c0.514-0.967,1.014-1.943,1.549-2.895&#10;&#9;&#9;&#9;c0.564-0.934,1.127-1.865,1.686-2.788c0.533-0.939,1.17-1.803,1.768-2.675c0.604-0.868,1.184-1.738,1.84-2.53&#10;&#9;&#9;&#9;c0.635-0.807,1.26-1.6,1.871-2.377c0.647-0.747,1.272-1.484,1.867-2.211c0.582-0.738,1.232-1.385,1.797-2.065&#10;&#9;&#9;&#9;c0.578-0.671,1.082-1.367,1.623-1.986c0.531-0.63,1.039-1.235,1.561-1.772c0.529-0.532,1.064-1.002,1.549-1.462&#10;&#9;&#9;&#9;c0.967-0.921,1.896-1.635,2.639-2.24c0.738-0.609,1.367-1.027,1.779-1.334C573.219,325.969,573.443,325.811,573.443,325.811z" style="fill:#3D853C;"/>
		<path d="M633.068,274.061c0,0,0.58,1.199,1.465,3.345c0.449,1.071,1.008,2.362,1.598,3.863&#10;&#9;&#9;&#9;c0.588,1.5,1.281,3.187,1.846,5.096c0.303,0.947,0.6,1.941,0.963,2.949c0.355,1.011,0.773,2.036,1.166,3.105&#10;&#9;&#9;&#9;c0.814,2.128,1.674,4.371,2.563,6.692c0.453,1.157,0.875,2.349,1.293,3.559c0.418,1.209,0.867,2.425,1.246,3.675&#10;&#9;&#9;&#9;c0.789,2.49,1.594,5.019,2.281,7.583c0.369,1.274,0.711,2.557,1.021,3.842c0.316,1.283,0.652,2.557,0.947,3.828&#10;&#9;&#9;&#9;c0.533,2.558,1.17,5.049,1.582,7.505c0.232,1.222,0.463,2.423,0.689,3.599c0.186,1.183,0.379,2.338,0.588,3.461&#10;&#9;&#9;&#9;c0.211,1.123,0.396,2.219,0.516,3.287c0.143,1.064,0.273,2.096,0.381,3.088c0.246,1.98,0.229,3.816,0.305,5.434&#10;&#9;&#9;&#9;c0.082,1.619-0.014,3.033-0.068,4.195c-0.041,1.162-0.135,2.073-0.172,2.693c-0.055,0.621-0.084,0.951-0.084,0.951&#10;&#9;&#9;&#9;s-0.031-0.332-0.09-0.953c-0.041-0.621-0.141-1.531-0.191-2.686c-0.059-1.156-0.127-2.558-0.283-4.16&#10;&#9;&#9;&#9;c-0.059-0.802-0.123-1.655-0.189-2.555c-0.051-0.9-0.113-1.846-0.225-2.829c-0.217-1.967-0.269-4.118-0.586-6.368&#10;&#9;&#9;&#9;c-0.242-2.259-0.576-4.634-1.082-7.062c-0.434-2.442-1.047-4.932-1.646-7.464c-0.32-1.262-0.682-2.523-1.023-3.795&#10;&#9;&#9;&#9;c-0.336-1.275-0.703-2.544-1.1-3.806c-0.752-2.535-1.549-5.057-2.359-7.53c-0.82-2.472-1.627-4.904-2.408-7.259&#10;&#9;&#9;&#9;c-0.787-2.353-1.537-4.633-2.33-6.767c-0.754-2.147-1.541-4.151-2.373-5.96c-0.83-1.812-1.435-3.528-1.963-5.058&#10;&#9;&#9;&#9;c-0.527-1.528-0.967-2.869-1.293-3.982C633.379,275.357,633.068,274.061,633.068,274.061z" style="fill:#3D853C;"/>
		<path d="M617.277,362.742c0,0,0.338,0.499,0.824,1.411c0.242,0.457,0.518,1.019,0.811,1.672&#10;&#9;&#9;&#9;c0.137,0.33,0.305,0.673,0.441,1.05c0.135,0.38,0.223,0.8,0.315,1.237c0.094,0.436,0.172,0.896,0.31,1.352&#10;&#9;&#9;&#9;c0.131,0.457,0.315,0.914,0.477,1.393c0.33,0.957,0.678,1.965,1.037,3.008c0.352,1.045,0.729,2.125,0.98,3.256&#10;&#9;&#9;&#9;c0.27,1.128,0.561,2.269,0.811,3.418c0.242,1.151,0.434,2.314,0.648,3.451c0.104,0.57,0.209,1.135,0.324,1.689&#10;&#9;&#9;&#9;c0.088,0.561,0.172,1.115,0.258,1.66c0.154,1.091,0.365,2.137,0.596,3.126c0.172,0.997,0.352,1.942,0.461,2.821&#10;&#9;&#9;&#9;c0.107,0.879,0.182,1.687,0.154,2.41c-0.01,0.723-0.039,1.352-0.082,1.869c-0.088,1.035-0.199,1.621-0.199,1.621&#10;&#9;&#9;&#9;s-0.166-0.585-0.35-1.602c-0.092-0.508-0.178-1.123-0.256-1.829c-0.053-0.708-0.186-1.501-0.264-2.371&#10;&#9;&#9;&#9;c-0.082-0.87-0.107-1.821-0.152-2.827c-0.07-1.004-0.213-2.057-0.402-3.137c-0.09-0.541-0.184-1.091-0.275-1.647&#10;&#9;&#9;&#9;c-0.115-0.553-0.242-1.11-0.375-1.671c-0.266-1.121-0.508-2.266-0.805-3.396c-0.32-1.127-0.6-2.262-0.893-3.374&#10;&#9;&#9;&#9;c-0.27-1.119-0.602-2.202-0.85-3.272c-0.279-1.06-0.469-2.113-0.801-3.063c-0.158-0.476-0.287-0.948-0.459-1.39&#10;&#9;&#9;&#9;c-0.166-0.443-0.379-0.852-0.566-1.249c-0.402-0.783-0.631-1.555-0.867-2.232c-0.221-0.681-0.393-1.282-0.518-1.783&#10;&#9;&#9;&#9;C617.361,363.339,617.277,362.742,617.277,362.742z" style="fill:#3D853C;"/>
	</g>
</g>
</svg>