<svg xml:space="preserve" style="max-height: 500px" viewBox="22 52 246 181" y="0px" x="0px" xmlns:xlink="http://www.w3.org/1999/xlink" xmlns="http://www.w3.org/2000/svg" version="1.1" width="246" height="181">

<g id="OBJECTS">
	<g>
		<g>
			<path d="M132.419,214.152c-17.676-4.39-30.009-13.057-38.509-18.557s-13.833-8.051-23-10.525&#10;&#9;&#9;&#9;&#9;c-9.167-2.475-15.026-4.445-22.013-7.71c-6.987-3.265-15.487-4.693-19.154-4.646c-3.667,0.048,11.667-3.953,20.167-6.119&#10;&#9;&#9;&#9;&#9;s13.333-3.333,22-3.333s16.406,0.15,31.12,10.825C117.743,184.763,129.261,202.042,132.419,214.152z" style="fill:#3D853C;"/>
			<path d="M132.419,214.152c-17.676-4.39-30.009-13.057-38.509-18.557s-13.833-8.051-23-10.525&#10;&#9;&#9;&#9;&#9;c-9.167-2.475-15.026-4.445-22.013-7.71c-6.987-3.265-15.487-4.693-19.154-4.646c-3.667,0.048,11.667-3.953,20.167-6.119&#10;&#9;&#9;&#9;&#9;s13.333-3.333,22-3.333s16.406,0.15,31.12,10.825C117.743,184.763,129.261,202.042,132.419,214.152z" style="opacity:0.4;fill:#3D853C;"/>
		</g>
		<g>
			<path d="M140.076,214.267c0,0-10.5-35.437-17.833-48.637s-14.167-27.7-17.667-32.867&#10;&#9;&#9;&#9;&#9;c-3.5-5.167-11.166-12.334-18.416-20.667s-15.083-10.167-21.25-14s-15.667-11.334-16-10.5s5.833,29.498,10,37.166&#10;&#9;&#9;&#9;&#9;c4.167,7.668,7.834,11.957,9.5,17.063c1.667,5.105,10.129,16.063,13.167,20.493c3.037,4.431,19.834,24.274,28.167,29.526&#10;&#9;&#9;&#9;&#9;c8.333,5.252,24.894,22.309,24.894,22.309l5.939,0.277" style="fill:#6BB551;"/>
			<path d="M140.076,214.267c0,0-10.5-35.437-17.833-48.637s-14.167-27.7-17.667-32.867&#10;&#9;&#9;&#9;&#9;c-3.5-5.167-11.166-12.334-18.416-20.667s-15.083-10.167-21.25-14s-15.667-11.334-16-10.5s5.833,29.498,10,37.166&#10;&#9;&#9;&#9;&#9;c4.167,7.668,7.834,11.957,9.5,17.063c1.667,5.105,10.129,16.063,13.167,20.493c3.037,4.431,19.834,24.274,28.167,29.526&#10;&#9;&#9;&#9;&#9;c8.333,5.252,24.894,22.309,24.894,22.309l5.939,0.277" style="opacity:0.4;fill:#3D853C;"/>
			<path d="M121.174,202.998c0,0-0.897-1.82-2.373-5.047c-0.76-1.604-1.662-3.559-2.672-5.813&#10;&#9;&#9;&#9;&#9;c-1.032-2.243-2.145-4.797-3.321-7.6c-1.168-2.807-2.521-5.81-3.99-8.968c-1.396-3.193-3.137-6.428-4.851-9.814&#10;&#9;&#9;&#9;&#9;c-0.862-1.689-1.739-3.408-2.626-5.147c-0.95-1.69-2.004-3.381-2.991-5.11c-1.018-1.715-1.991-3.48-3.065-5.186&#10;&#9;&#9;&#9;&#9;c-1.078-1.704-2.16-3.414-3.242-5.125c-2.131-3.441-4.417-6.791-6.609-10.123c-2.224-3.313-4.414-6.572-6.532-9.727&#10;&#9;&#9;&#9;&#9;c-2.11-3.159-4.394-6.027-6.615-8.709c-2.247-2.66-4.371-5.174-6.331-7.495c-3.935-4.633-7.153-8.552-9.292-11.392&#10;&#9;&#9;&#9;&#9;c-1.088-1.403-1.861-2.573-2.375-3.375c-0.272-0.39-0.414-0.734-0.539-0.945c-0.115-0.217-0.175-0.328-0.175-0.328&#10;&#9;&#9;&#9;&#9;s0.07,0.105,0.206,0.311c0.144,0.201,0.319,0.517,0.616,0.89c0.561,0.766,1.442,1.841,2.581,3.197&#10;&#9;&#9;&#9;&#9;c2.277,2.714,5.64,6.502,9.54,11.169c1.961,2.324,4.021,4.899,6.173,7.643c2.14,2.748,4.389,5.674,6.527,8.819&#10;&#9;&#9;&#9;&#9;c2.138,3.143,4.347,6.39,6.592,9.688c2.213,3.322,4.519,6.656,6.681,10.093c1.096,1.708,2.192,3.416,3.285,5.117&#10;&#9;&#9;&#9;&#9;c1.088,1.704,2.071,3.458,3.101,5.167c1.015,1.721,2.038,3.404,2.973,5.138c0.866,1.757,1.722,3.492,2.563,5.199&#10;&#9;&#9;&#9;&#9;c1.694,3.408,3.312,6.71,4.711,9.901c1.427,3.179,2.811,6.168,4.17,8.892c1.366,2.721,2.418,5.304,3.392,7.575&#10;&#9;&#9;&#9;&#9;c0.973,2.271,1.8,4.261,2.464,5.906C120.475,201.093,121.174,202.998,121.174,202.998z" style="opacity:0.4;fill:#3D853C;"/>
		</g>
		<path d="M140.577,214.864c0,0,10.833-25.103,13.5-46.103c2.667-21,3.167-44.499,0.833-58.333&#10;&#9;&#9;&#9;s-6.833-21.334-11.333-31.667s-6.641-19.833-7.654-19.5s-3.596,14.333-6.971,24.333c-3.375,10-9.708,39-7.208,63.5&#10;&#9;&#9;&#9;s9.94,59.447,13.137,67.724L140.577,214.864z" style="fill:#6BB551;"/>
		<path d="M135.91,201.262c0,0,0.113-2.088,0.415-5.73c0.141-1.822,0.334-4.032,0.582-6.565&#10;&#9;&#9;&#9;c0.236-2.534,0.506-5.392,0.939-8.496c0.43-3.102,0.596-6.491,0.843-10.07c0.219-3.58,0.449-7.355,0.688-11.261&#10;&#9;&#9;&#9;c0.164-3.909,0.181-7.955,0.347-12.059c0.07-2.054,0.141-4.123,0.212-6.2c0.05-2.077-0.014-4.164-0.015-6.25&#10;&#9;&#9;&#9;c-0.017-2.086-0.033-4.173-0.049-6.251c-0.01-2.078-0.026-4.148-0.12-6.201c-0.145-4.108-0.287-8.152-0.425-12.064&#10;&#9;&#9;&#9;c-0.134-3.912-0.309-7.693-0.499-11.277c-0.244-3.579-0.502-6.959-0.67-10.083c-0.087-1.562-0.171-3.059-0.251-4.482&#10;&#9;&#9;&#9;c-0.079-1.422-0.089-2.784-0.215-4.04c-0.247-2.533-0.411-4.746-0.557-6.568c-0.284-3.645-0.391-5.732-0.391-5.732&#10;&#9;&#9;&#9;s0.323,2.065,0.792,5.69c0.23,1.813,0.523,4.013,0.8,6.542c0.246,2.543,0.385,5.408,0.556,8.541c0.18,3.13,0.3,6.525,0.456,10.112&#10;&#9;&#9;&#9;c0.085,3.589,0.198,7.371,0.362,11.282c0.161,3.912,0.327,7.954,0.496,12.062c0.106,2.053,0.135,4.127,0.157,6.208&#10;&#9;&#9;&#9;c0.03,2.081,0.06,4.17,0.089,6.26c0.015,2.089,0.093,4.18,0.057,6.26c-0.058,2.08-0.115,4.152-0.172,6.209&#10;&#9;&#9;&#9;c-0.114,4.111-0.263,8.157-0.455,12.068c-0.295,3.906-0.581,7.683-0.852,11.264c-0.121,1.791-0.27,3.53-0.356,5.218&#10;&#9;&#9;&#9;c-0.116,1.685-0.14,3.322-0.293,4.881c-0.227,3.126-0.563,5.978-0.864,8.505c-0.289,2.527-0.564,4.729-0.809,6.541&#10;&#9;&#9;&#9;C136.237,199.197,135.91,201.262,135.91,201.262z" style="opacity:0.4;fill:#3D853C;"/>
		<path d="M154.91,110.429c-0.029-0.174-0.063-0.335-0.093-0.507&#10;&#9;&#9;&#9;c-0.836,1.792-1.64,3.657-2.397,5.608c-5.484,14.124-9.004,16.902-14.04,33.515c-2.386-10.398-6.843-23.377-10.657-29.533&#10;&#9;&#9;&#9;c-0.884-2.147-2.346-4.102-5.14-5.467c-1.324,10.547-1.943,22.236-0.839,33.05c1.754,17.189,5.939,39.51,9.385,54.165&#10;&#9;&#9;&#9;c0.774,0.668,1.51,1.291,2.18,1.85c-0.006,2.705,0.01,5.033,0.031,6.852c0.549,1.955,1.047,3.542,1.474,4.674l0.228,0.078&#10;&#9;&#9;&#9;l5.57-0.528c0.138-0.124,0.275-0.259,0.414-0.385c2.065-4.978,10.708-26.588,13.052-45.038&#10;&#9;&#9;&#9;C156.743,147.762,157.243,124.263,154.91,110.429z" style="opacity:0.4;fill:#3D853C;"/>
		<g>
			<path d="M259.451,142.637c-10.625,0.75-17.25,1.25-25.25,0.625s-18.625-2.5-27-0.625&#10;&#9;&#9;&#9;&#9;c-8.375,1.875-16.75,4.875-26.375,13.625s-21.086,20.875-24.168,26.625c-3.082,5.75-13.468,18.33-16.337,27.228&#10;&#9;&#9;&#9;&#9;c0,0,36.755-23.853,48.755-31.978s32.625-16.596,42.625-22.86C241.701,149.012,259.451,142.637,259.451,142.637z" style="fill:#6BB551;"/>
			<path d="M156.658,182.887c-3.082,5.75-13.468,18.33-16.337,27.228&#10;&#9;&#9;&#9;&#9;c0,0,36.755-23.853,48.755-31.978s32.625-16.596,42.625-22.86c5.649-3.539,13.771-7.112,19.77-9.554&#10;&#9;&#9;&#9;&#9;c-8.201,0.565-14.048,0.855-20.895,0.32c-8-0.625-18.625-2.5-27-0.625c-6.556,1.468-13.115,3.639-20.27,8.703&#10;&#9;&#9;&#9;&#9;c-0.819,0.678-1.643,1.38-2.48,2.141C171.201,165.012,159.74,177.137,156.658,182.887z" style="opacity:0.4;fill:#3D853C;"/>
			<path d="M140.076,214.864c0,0,25.721-15.439,34.173-20.458c8.452-5.02,17.577-12.645,25.202-17.02&#10;&#9;&#9;&#9;&#9;s21.125-8.75,27.5-13.25s10.125-7.125,19.875-12.375c9.75-5.25,12.625-9.125,12.625-9.125s-10.5,3.625-20.5,4.125&#10;&#9;&#9;&#9;&#9;s-21.625,1.5-29.375,3.75c-7.75,2.25-12.375,6.5-19.625,12.75s-11.187,8.496-23,17.195&#10;&#9;&#9;&#9;&#9;C154.071,189.941,149.451,191.844,140.076,214.864z" style="fill:#3D853C;"/>
			<path d="M140.076,214.864c0,0,25.721-15.439,34.173-20.458&#10;&#9;&#9;&#9;&#9;c8.452-5.02,17.577-12.645,25.202-17.02s21.125-8.75,27.5-13.25s10.125-7.125,19.875-12.375c9.75-5.25,12.625-9.125,12.625-9.125&#10;&#9;&#9;&#9;&#9;s-10.5,3.625-20.5,4.125s-21.625,1.5-29.375,3.75c-7.75,2.25-12.375,6.5-19.625,12.75s-11.187,8.496-23,17.195&#10;&#9;&#9;&#9;&#9;C154.071,189.941,149.451,191.844,140.076,214.864z" style="opacity:0.4;fill:#3D853C;"/>
		</g>
		<path d="M133.41,214.152c0,0,3-43.891,10.167-62.057c7.166-18.166,10.958-20.166,18.063-34.333&#10;&#9;&#9;&#9;c7.104-14.167,16.271-23.499,23.938-29.333c7.666-5.834,33.667-16.666,33.333-14.5c-0.334,2.166-4.667,10.999-4.667,11.666&#10;&#9;&#9;&#9;c-0.833,4.834-7.333,17.168-11.166,26.834c-3.834,9.666-8.667,15.166-10.334,20.333c-1.666,5.167-4.666,15.166-8.666,23.833&#10;&#9;&#9;&#9;c-4,8.667-23.5,43.537-43.5,58.269h-5.595L133.41,214.152z" style="fill:#6BB551;"/>
		<path d="M140.576,205.93c0,0,0.108-0.575,0.309-1.653c0.22-1.074,0.484-2.663,0.945-4.657&#10;&#9;&#9;&#9;c0.51-1.983,1.125-4.4,1.907-7.149c0.427-1.361,0.851-2.82,1.354-4.34c0.495-1.522,0.995-3.131,1.643-4.765&#10;&#9;&#9;&#9;c1.278-3.273,2.494-6.877,3.961-10.623c0.732-1.873,1.421-3.822,2.215-5.779c0.807-1.952,1.63-3.947,2.468-5.977&#10;&#9;&#9;&#9;c0.812-2.04,1.828-4.032,2.753-6.095c0.484-1.021,0.931-2.068,1.453-3.087c0.548-1.004,1.099-2.014,1.652-3.028&#10;&#9;&#9;&#9;c0.562-1.014,1.095-2.029,1.685-3.052c0.629-0.974,1.259-1.95,1.892-2.929c1.213-1.986,2.652-3.852,4.029-5.754&#10;&#9;&#9;&#9;c1.406-1.878,2.887-3.693,4.349-5.509c1.485-1.797,2.944-3.6,4.359-5.409c0.733-0.888,1.38-1.829,2.04-2.755&#10;&#9;&#9;&#9;c0.646-0.936,1.356-1.823,1.896-2.811c0.576-0.965,1.148-1.925,1.716-2.877c0.508-0.984,0.947-1.996,1.418-2.98&#10;&#9;&#9;&#9;c0.973-1.954,1.712-3.996,2.679-5.884c0.931-1.905,1.933-3.716,2.937-5.465c2.038-3.479,4.174-6.647,6.323-9.437&#10;&#9;&#9;&#9;c2.137-2.799,4.241-5.254,6.236-7.306c1.971-2.075,3.812-3.765,5.395-5.074c0.784-0.663,1.496-1.24,2.151-1.697&#10;&#9;&#9;&#9;c0.643-0.472,1.183-0.881,1.653-1.168c0.924-0.593,1.418-0.908,1.418-0.908s-0.466,0.352-1.341,1.015&#10;&#9;&#9;&#9;c-0.448,0.314-0.959,0.758-1.568,1.267c-0.616,0.5-1.294,1.108-2.048,1.796c-1.517,1.364-3.254,3.134-5.186,5.213&#10;&#9;&#9;&#9;c-1.932,2.082-3.973,4.558-6.125,7.312c-2.124,2.775-4.358,5.842-6.46,9.256c-1.05,1.706-2.078,3.495-3.016,5.376&#10;&#9;&#9;&#9;c-0.988,1.858-1.738,3.876-2.696,5.862c-0.47,0.995-0.907,2.018-1.414,3.013c-0.568,0.963-1.14,1.934-1.715,2.909&#10;&#9;&#9;&#9;c-0.54,1-1.249,1.896-1.895,2.841c-0.66,0.936-1.307,1.888-2.037,2.781c-1.412,1.825-2.864,3.638-4.338,5.441&#10;&#9;&#9;&#9;c-1.45,1.821-2.917,3.642-4.303,5.517c-1.355,1.895-2.767,3.745-3.974,5.746c-0.626,0.982-1.251,1.963-1.875,2.94&#10;&#9;&#9;&#9;c-0.561,0.989-1.099,2.023-1.646,3.027c-0.546,1.01-1.09,2.015-1.631,3.015c-0.53,1.007-0.989,2.045-1.483,3.057&#10;&#9;&#9;&#9;c-0.945,2.045-1.982,4.018-2.817,6.045c-0.865,2.013-1.716,3.992-2.548,5.93c-0.832,1.938-1.544,3.876-2.279,5.745&#10;&#9;&#9;&#9;c-1.509,3.725-2.694,7.339-3.772,10.675c-1.057,3.343-2.003,6.411-2.919,9.108c-0.818,2.725-1.531,5.1-2.118,7.056&#10;&#9;&#9;&#9;C141.169,203.666,140.576,205.93,140.576,205.93z" style="opacity:0.4;fill:#3D853C;"/>
		<path d="M184.076,156.596c1.07-2.318,2.066-4.732,2.987-7.123&#10;&#9;&#9;&#9;c-1.75-0.025-3.811,0.061-6.445,0.294c-9.417,0.834-15.916,4.833-15.916,4.833c-5.625,4.124-14.625,16.124-20,23.874&#10;&#9;&#9;&#9;c-0.383,0.552-0.754,1.136-1.119,1.736c-0.123-3.716-0.36-7.276-0.783-10.281c-0.381-2.711-1.038-5.913-1.882-9.307&#10;&#9;&#9;&#9;c-5.257,20.62-7.507,53.53-7.507,53.53l1.571,0.712h5.595c0.597-0.441,1.194-0.9,1.79-1.375c0.321-1.417,0.619-2.964,0.823-4.538&#10;&#9;&#9;&#9;c2.667-1.311,6.036-3.105,9.472-5.273C167.906,186.95,180.895,163.489,184.076,156.596z" style="opacity:0.4;fill:#3D853C;"/>
		<path d="M169.576,158.013c-5.625,4.124-14.625,16.124-20,23.874s-8.933,20.58-13.654,32.978h6.654&#10;&#9;&#9;&#9;c0,0,10.5-4.224,19.5-10.851c9-6.627,11.125-13.148,14.25-17.575c3.125-4.427,7.875-7.052,11.625-9.552s7.125-7.5,12.875-9.5&#10;&#9;&#9;&#9;s11.75-5,11.75-5s-15.294-6.266-25.5-6.875C176.87,154.902,175.451,155.389,169.576,158.013z" style="fill:#3D853C;"/>
		<path d="M175.615,187.509c-2.369-0.013-5.325-0.034-8.979-0.034&#10;&#9;&#9;&#9;c-7.917,0-10.501,2.38-10.501,2.38c-4.415,3.618-11.525,13.347-13.781,16.886c-2.256,3.54-4.653,8.124-4.653,8.124h4.875&#10;&#9;&#9;&#9;c0,0,10.5-4.224,19.5-10.851C170.378,197.9,172.831,191.881,175.615,187.509z" style="opacity:0.4;fill:#3D853C;"/>
		<path d="M158.743,193.846c-4.791,3.041-12.916,11.217-15.541,14.191c-2.625,2.975-5.5,6.827-5.5,6.827&#10;&#9;&#9;&#9;h6.125c0,0,6.083-0.728,14.916-3.478c8.834-2.75,10.459-3.625,13.084-5.125s7.375-4.125,9.875-6.125s3.875-4.375,3.875-4.375&#10;&#9;&#9;&#9;S169.409,191.555,158.743,193.846z" style="fill:#3D853C;"/>
		<path d="M126.16,128.345c4.75,7.667,10.5,25.918,12,36.584s0.667,28.333,0.667,35.083&#10;&#9;&#9;&#9;s-2.904,14.853-2.904,14.853l-0.596-0.02c0,0-11.166-8.667-16.333-15.25c-5.167-6.583-7.917-16.999-9.25-22.916&#10;&#9;&#9;&#9;c-1.333-5.917-3.25-16.001-5.083-20.834c-1.834-4.833-4.501-6.5-6.667-9.25s-4-5.417-4.916-8.5c-0.917-3.083,0-13.333,0-13.333h27&#10;&#9;&#9;&#9;C120.076,124.762,124.622,125.57,126.16,128.345z" style="fill:#3D853C;"/>
		<path d="M117.701,166.475c-3.622-0.91-7.153-0.987-10.327-0.686&#10;&#9;&#9;&#9;c0.88,3.886,1.699,7.915,2.369,10.891c1.333,5.917,4.083,16.333,9.25,22.916c3.996,5.091,11.576,11.425,14.809,14.036&#10;&#9;&#9;&#9;c1.172,0.381,2.009,0.625,2.324,0.636c0.146-0.442,0.36-1.112,0.608-1.96c0.495-2.744,1.183-7.94,1.608-12.613&#10;&#9;&#9;&#9;c0.601-6.609-1.095-17.592-4.503-23.709C132.145,171.833,124.888,168.283,117.701,166.475z" style="opacity:0.4;fill:#3D853C;"/>
		<path d="M128.951,179.137c4.041,5.708,6.875,15.958,6.958,22.125c0.083,6.167-0.25,13.333-0.583,13.583&#10;&#9;&#9;&#9;c-0.334,0.25-6.834-2-12.75-3.583c-5.916-1.583-8.917-4.167-13.833-7.167c-4.917-3-5.25-2.916-7.917-5.916&#10;&#9;&#9;&#9;c-2.666-3-7.166-6.25-9.166-8s-5.5-11.042-5.5-11.042s9-6.209,24.333-5.042C125.826,175.262,128.951,179.137,128.951,179.137z" style="fill:#3D853C;"/>
		<path d="M128.951,179.137c-2.125-3.875-9.75-7.188-17.125-8.875s-14.062-0.313-18.312,0.813&#10;&#9;&#9;&#9;s-7.25,2.188-9.813,3.938s-9.542,10.501-11.792,17.834c-2.25,7.333-2.334,12.667-2.667,17.25c-0.333,4.583-1.417,5.833-2.5,8.333&#10;&#9;&#9;&#9;s-1.75,5.501,0,4.584c1.75-0.917,7.75-4.668,10-6.084s2.334-1.417,7.334-4c5-2.583,9.798-6.416,13.232-11.416&#10;&#9;&#9;&#9;c3.434-5,7.184-7.584,11.518-12.167c4.334-4.583,6.917-5.251,10.334-7.917C122.576,178.763,125.91,177.761,128.951,179.137z" style="fill:#6BB551;"/>
		<path d="M104.414,169.479c-0.339,0.168-0.684,0.328-1.034,0.498&#10;&#9;&#9;&#9;c-0.803,0.479-1.684,0.894-2.502,1.459c-1.673,1.08-3.296,2.424-4.856,3.936c-1.52,1.549-2.997,3.25-4.296,5.118&#10;&#9;&#9;&#9;c-1.341,1.839-2.555,3.805-3.74,5.782c-2.34,3.976-4.453,8.059-6.534,11.836c-1.026,1.895-2.058,3.707-3.056,5.412&#10;&#9;&#9;&#9;c-1.005,1.7-1.919,3.335-2.81,4.803c-0.9,1.465-1.683,2.832-2.372,4.049c-0.325,0.623-0.722,1.141-1.045,1.65&#10;&#9;&#9;&#9;c-0.331,0.506-0.635,0.97-0.91,1.389c-1.095,1.684-1.682,2.686-1.682,2.686s0.756-0.865,2.009-2.45&#10;&#9;&#9;&#9;c0.599-0.81,1.448-1.722,2.174-2.925c0.75-1.189,1.591-2.534,2.463-4.029c0.46-0.735,0.878-1.531,1.301-2.36&#10;&#9;&#9;&#9;c0.428-0.826,0.871-1.68,1.327-2.558c0.907-1.758,1.884-3.6,2.937-5.481c1.049-1.883,2.134-3.829,3.236-5.807&#10;&#9;&#9;&#9;c1.097-1.982,2.226-3.979,3.419-5.94c1.202-1.952,2.432-3.891,3.781-5.695c1.313-1.832,2.73-3.531,4.173-5.112&#10;&#9;&#9;&#9;c0.762-0.749,1.473-1.533,2.278-2.177c0.396-0.328,0.766-0.684,1.172-0.98c0.412-0.289,0.818-0.576,1.219-0.859&#10;&#9;&#9;&#9;c0.391-0.299,0.822-0.521,1.233-0.763c0.415-0.235,0.814-0.485,1.234-0.676c0.677-0.274,1.319-0.578,1.971-0.795&#10;&#9;&#9;&#9;C105.137,169.479,104.774,169.477,104.414,169.479z" style="opacity:0.4;fill:#3D853C;"/>
		<path d="M126.16,128.345c-2.917-1.75-10,1.583-12.25,4.5c-2.25,2.917-6.501,5.416-9.334,10&#10;&#9;&#9;&#9;s-7.333,11.499-9.666,14.333c-2.333,2.834-3.083,3.583-4.916,7.5c-1.834,3.917-2.584,8.5-3.334,8s-1.749-6.25-2.916-7.833&#10;&#9;&#9;&#9;c-1.167-1.583-2.917-5.333-3.584-10.833c-0.666-5.5-0.083-15.333,2.084-20.75c2.166-5.417,4.488-7.584,8.286-10.167&#10;&#9;&#9;&#9;c3.797-2.583,6.464-3.75,8.714-3.75c2.25,0,13.75,1.167,18.666,2.417C122.826,123.012,124.993,125.512,126.16,128.345z" style="fill:#6BB551;"/>
		<path d="M158.743,193.846c0,0,2.833-2,10.75-2c7.917,0,12.583,0.083,15,0c2.417-0.083,7,2.501,10.834,5.417&#10;&#9;&#9;&#9;c3.833,2.916,8.916,6,13.166,8s6,2.999,9.833,3.666c3.834,0.667,6.333,0.25,6.167,0.667c-0.167,0.417-10.167,4.083-20.25,4.5&#10;&#9;&#9;&#9;c-10.083,0.417-16-1.499-21.25-4.333s-8.416-6.418-11.666-8.584S163.326,193.263,158.743,193.846z" style="fill:#6BB551;"/>
		<path d="M206.229,209.644c0.353,0.079,0.7,0.157,1.041,0.234&#10;&#9;&#9;&#9;c0.341,0.076,0.685,0.085,1.017,0.129c1.332,0.157,2.558,0.253,3.642,0.33c1.087,0.035,2.038-0.038,2.817-0.061&#10;&#9;&#9;&#9;c1.56-0.067,2.443-0.162,2.443-0.162s-0.891-0.123-2.437-0.241c-0.771-0.051-1.709-0.112-2.783-0.183&#10;&#9;&#9;&#9;c-1.067-0.143-2.269-0.298-3.586-0.413c-1.318-0.112-2.716-0.424-4.221-0.639c-0.759-0.085-1.502-0.321-2.271-0.533&#10;&#9;&#9;&#9;c-0.768-0.213-1.554-0.429-2.342-0.683c-1.515-0.665-3.155-1.191-4.651-2.082c-1.565-0.768-3.001-1.769-4.42-2.805&#10;&#9;&#9;&#9;c-0.671-0.57-1.378-1.144-2.017-1.709c-0.643-0.606-1.283-1.212-1.918-1.812c-1.272-1.201-2.586-2.333-3.932-3.332&#10;&#9;&#9;&#9;c-0.689-0.477-1.347-0.973-2.023-1.408c-0.69-0.415-1.361-0.826-2.007-1.236c-0.714-0.402-1.402-0.791-2.067-1.174&#10;&#9;&#9;&#9;c-0.261-0.002-0.526-0.003-0.799-0.004c0.879,0.426,1.778,0.919,2.69,1.47c0.64,0.41,1.29,0.841,1.951,1.286&#10;&#9;&#9;&#9;c0.65,0.459,1.278,0.979,1.935,1.48c0.652,0.508,1.263,1.089,1.918,1.632c0.632,0.572,1.272,1.152,1.917,1.737&#10;&#9;&#9;&#9;c0.645,0.59,1.294,1.185,1.946,1.781c0.694,0.596,1.376,1.13,2.066,1.698c1.458,1.032,2.962,2.048,4.55,2.798&#10;&#9;&#9;&#9;c1.529,0.881,3.195,1.392,4.734,2.041c1.613,0.434,3.129,1.02,4.625,1.36C204.796,209.316,205.525,209.482,206.229,209.644z" style="opacity:0.4;fill:#3D853C;"/>
		<path d="M169.576,158.013c0,0,6.499-3.999,15.916-4.833c9.417-0.834,11.667,0.166,17.584,1.666&#10;&#9;&#9;&#9;c5.916,1.5,8.583,0.918,10.25,1.834c1.667,0.916,10.417,10.332,14.75,18.166c4.334,7.834,6.583,14.213,9.667,21.481&#10;&#9;&#9;&#9;c3.083,7.269,4.583,12.103,3.5,11.686c-1.083-0.417-14.667-6.917-20.75-11c-6.083-4.083-8.833-8.083-14.333-13.833&#10;&#9;&#9;&#9;s-5.917-7.668-10.417-14.084s-6.916-8.249-11.083-10.166C180.493,157.013,172.993,156.346,169.576,158.013z" style="fill:#6BB551;"/>
		<path d="M223.967,189c1.724,1.475,3.389,2.81,4.752,4.174c0.669,0.665,1.254,1.451,1.854,2.107&#10;&#9;&#9;&#9;c0.597,0.672,1.162,1.31,1.694,1.908c1.044,1.214,2.034,2.209,2.769,3.087c1.478,1.749,2.374,2.722,2.374,2.722&#10;&#9;&#9;&#9;s-0.719-1.102-2.067-2.982c-0.676-0.939-1.565-2.015-2.587-3.25c-1.036-1.233-2.128-2.643-3.509-4.104&#10;&#9;&#9;&#9;c-1.421-1.437-3.185-2.667-4.95-4.063c-0.909-0.671-1.747-1.464-2.646-2.23c-0.867-0.8-1.677-1.695-2.525-2.581&#10;&#9;&#9;&#9;c-0.776-0.947-1.519-1.949-2.296-2.941c-0.72-1.032-1.344-2.148-2.03-3.23l-0.506-0.821c-0.151-0.286-0.285-0.584-0.428-0.876&#10;&#9;&#9;&#9;l-0.849-1.766c-0.573-1.19-1.138-2.346-1.656-3.563c-1.059-2.413-2.24-4.784-3.616-6.998c-1.356-2.222-2.913-4.291-4.678-6.042&#10;&#9;&#9;&#9;c-1.454-1.477-3.003-2.766-4.583-3.872c-0.298-0.069-0.596-0.134-0.893-0.195c1.798,1.201,3.501,2.722,5.097,4.429&#10;&#9;&#9;&#9;c0.844,0.886,1.613,1.861,2.391,2.85c0.725,1.027,1.482,2.053,2.144,3.155c1.38,2.169,2.574,4.505,3.652,6.893&#10;&#9;&#9;&#9;c0.524,1.196,1.125,2.397,1.7,3.561l0.865,1.758c0.146,0.292,0.282,0.587,0.437,0.873l0.521,0.83&#10;&#9;&#9;&#9;c0.707,1.096,1.352,2.222,2.091,3.26c0.795,0.997,1.556,2.003,2.349,2.952c0.874,0.878,1.68,1.794,2.533,2.625&#10;&#9;&#9;&#9;C222.265,187.451,223.094,188.28,223.967,189z" style="opacity:0.4;fill:#3D853C;"/>
		<path d="M102.035,119.515c-1.222,0.852-2.386,1.896-3.341,3.185&#10;&#9;&#9;&#9;c-1.229,1.627-2.118,3.561-2.77,5.572c-0.66,1.991-1.33,4.015-2.001,6.037c-1.34,4.048-2.679,8.096-3.935,11.891&#10;&#9;&#9;&#9;c-0.616,1.904-1.292,3.704-1.888,5.452c-0.142,0.437-0.3,0.857-0.422,1.29c-0.105,0.441-0.208,0.875-0.309,1.303&#10;&#9;&#9;&#9;c-0.223,0.857-0.297,1.691-0.421,2.491c-0.068,0.803-0.155,1.571-0.189,2.304c-0.02,0.731-0.039,1.425-0.057,2.076&#10;&#9;&#9;&#9;c-0.03,1.301-0.007,2.435-0.003,3.366c0.01,1.864,0.045,2.936,0.045,2.936s0.038-0.265,0.11-0.761&#10;&#9;&#9;&#9;c0.053-0.497,0.185-1.227,0.248-2.157c0.08-0.933,0.187-2.063,0.248-3.358c0.083-1.294,0.195-2.747,0.33-4.325&#10;&#9;&#9;&#9;c0.225-1.577,0.363-3.246,0.919-5.012c0.226-0.891,0.529-1.767,0.824-2.688c0.292-0.916,0.598-1.85,0.93-2.793&#10;&#9;&#9;&#9;c1.301-3.779,2.688-7.811,4.076-11.842c0.696-2.015,1.393-4.029,2.079-6.014c0.67-1.965,1.487-3.848,2.612-5.461&#10;&#9;&#9;&#9;c0.966-1.395,2.175-2.547,3.487-3.441C102.406,119.546,102.222,119.53,102.035,119.515z" style="opacity:0.4;fill:#3D853C;"/>
	</g>
</g>
</svg>