<svg xml:space="preserve" style="max-height: 500px" viewBox="287 248 175 195" y="0px" x="0px" xmlns:xlink="http://www.w3.org/1999/xlink" xmlns="http://www.w3.org/2000/svg" version="1.1" width="175" height="195">

<g id="OBJECTS">

	<g>
		<path d="M374.843,434.177c-6.58-36.554-0.16-77.25,0-96.25c0.16-19,4.661-26.75,7.161-50.75&#10;&#9;&#9;&#9;s3-35.75,4.25-33c1.25,2.75,8.25,36.25,8.5,55.75s4.5,27.854,3.5,50.302c-1,22.448-3.25,33.448-6,46.448s-13.25,27.5-13.25,27.5&#10;&#9;&#9;&#9;H374.843z" style="fill:#3D853C;"/>
		<path d="M386.254,254.177c-1.25-2.75-1.75,9-4.25,33s-7,31.75-7.161,50.75&#10;&#9;&#9;&#9;c-0.16,19-6.58,59.696,0,96.25h4.161c0,0,10.5-14.5,13.25-27.5s5-24,6-46.448c1-22.448-3.25-30.802-3.5-50.302&#10;&#9;&#9;&#9;S387.504,256.927,386.254,254.177z M396.621,334.82c0.176,1.897,0.41,3.791,0.537,5.69l0.39,5.69c0.033,1.9,0.087,3.801,0.043,5.7&#10;&#9;&#9;&#9;c-0.095,1.898-0.304,3.797-0.515,5.685l-0.29,2.8c-0.146,0.947-0.263,1.896-0.333,2.849c-0.081,0.951-0.184,1.901-0.248,2.854&#10;&#9;&#9;&#9;l-0.111,2.863c-0.107,1.907-0.063,3.824-0.063,5.738c-0.058,1.898-0.114,3.793-0.232,5.691c-0.145,1.894-0.221,3.8-0.433,5.691&#10;&#9;&#9;&#9;c-0.197,1.893-0.543,3.768-0.808,5.654c-0.266,1.888-0.611,3.762-0.968,5.633l-1.321,5.572l-0.736,2.768l-0.184,0.692&#10;&#9;&#9;&#9;l-0.201,0.657l-0.427,1.37c-0.311,0.907-0.694,1.729-1.032,2.587l-1.178,2.541c-1.689,3.341-3.533,6.591-5.434,9.81&#10;&#9;&#9;&#9;c-0.916,1.629-1.889,3.23-2.891,4.811c-0.725,1.203-1.465,2.414-2.213,3.592c-0.006-1.293-0.012-2.582-0.103-3.863l-0.232-2.805&#10;&#9;&#9;&#9;c-0.119-0.914-0.254-1.825-0.475-2.729c-0.193-0.908-0.404-1.809-0.638-2.725l-0.314-1.385l-0.38-1.383&#10;&#9;&#9;&#9;c-0.496-1.847-1.039-3.699-1.49-5.571c-0.47-1.87-0.939-3.75-1.232-5.644c-0.129-0.947-0.351-1.893-0.303-2.848&#10;&#9;&#9;&#9;c0.048-0.953,0.327-1.909,0.385-2.859c0.248-3.805-0.016-7.602-0.295-11.422c-0.391-3.822-0.148-7.637,0.018-11.448&#10;&#9;&#9;&#9;c0.1-1.905,0.152-3.814,0.304-5.717l0.526-5.703c0.201-1.899,0.335-3.803,0.59-5.699c0.228-1.899,0.608-3.783,0.962-5.676&#10;&#9;&#9;&#9;c0.712-3.778,1.281-7.588,0.935-11.463c-0.133-1.919-0.472-3.906-0.597-5.766c-0.128-1.917-0.051-3.825-0.025-5.735&#10;&#9;&#9;&#9;c0.148-1.887,0.272-3.781,0.478-5.668c0.268-1.882,0.559-3.764,0.865-5.642c0.721-3.741,1.492-7.477,2.287-11.218l1.018-5.648&#10;&#9;&#9;&#9;c0.18-0.939,0.309-1.889,0.514-2.825c0.174-0.941,0.374-1.879,0.616-2.812c0.827-3.743,1.915-7.493,2.539-11.287&#10;&#9;&#9;&#9;c0.268-1.893,0.472-3.8,0.554-5.711c0.049-1.917,0.069-3.836,0.069-5.756c-0.03-3.841,0.306-7.648,0.933-11.418l0.728-4.543&#10;&#9;&#9;&#9;l0.874,2.344c0.632,1.795,1.214,3.633,1.6,5.497c0.405,1.863,0.699,3.751,0.934,5.646c0.237,1.896,0.487,3.787,0.659,5.689&#10;&#9;&#9;&#9;c0.401,3.797,1.048,7.547,1.604,11.313c0.593,3.765,1.089,7.531,1.59,11.309c0.303,1.887,0.365,3.782,0.552,5.678&#10;&#9;&#9;&#9;c0.167,1.886,0.319,3.807,0.411,5.715c0.172,3.813,0.541,7.63,0.867,11.447C395.716,327.234,396.225,331.024,396.621,334.82z" style="opacity:0.6;fill:#A0F084;"/>
		<path d="M378.785,408.082c0,0,0.017-2.171,0.188-5.96c0.071-1.896,0.188-4.194,0.356-6.828&#10;&#9;&#9;&#9;c0.148-2.637,0.325-5.609,0.709-8.839c0.172-1.617,0.351-3.3,0.536-5.043c0.17-1.744,0.293-3.55,0.447-5.405&#10;&#9;&#9;&#9;c0.31-3.71,0.563-7.629,0.861-11.68c0.289-4.053,0.611-8.238,0.99-12.486c0.396-4.247,0.71-8.568,1.184-12.876&#10;&#9;&#9;&#9;c0.451-4.31,0.903-8.617,1.348-12.858c0.427-4.242,0.847-8.417,1.253-12.458c0.218-2.02,0.333-4.011,0.48-5.959&#10;&#9;&#9;&#9;c0.146-1.947,0.277-3.854,0.387-5.71c0.065-1.857,0.067-3.661,0.109-5.404c0.016-0.872,0.03-1.728,0.046-2.569&#10;&#9;&#9;&#9;c0.032-0.815-0.054-1.664-0.074-2.47c-0.144-3.248-0.244-6.223-0.439-8.845c-0.15-2.631-0.281-4.924-0.39-6.814&#10;&#9;&#9;&#9;c-0.136-1.89-0.168-3.383-0.242-4.395c-0.05-1.016-0.076-1.558-0.076-1.558s0.385,2.137,0.853,5.902&#10;&#9;&#9;&#9;c0.251,1.88,0.509,4.172,0.742,6.811c0.114,1.318,0.267,2.725,0.341,4.203c0.062,1.479,0.124,3.035,0.19,4.658&#10;&#9;&#9;&#9;c0.014,0.818,0.105,1.625,0.058,2.499c-0.042,0.848-0.085,1.713-0.129,2.591c-0.095,1.757-0.161,3.575-0.298,5.435&#10;&#9;&#9;&#9;c-0.382,3.708-0.699,7.624-1.061,11.671c-0.763,8.087-1.577,16.713-2.392,25.339c-0.437,4.31-0.716,8.634-1.076,12.882&#10;&#9;&#9;&#9;c-0.336,4.25-0.719,8.427-1.109,12.47c-0.383,4.043-0.787,7.948-1.103,11.656c-0.339,3.708-0.642,7.215-0.724,10.467&#10;&#9;&#9;&#9;c-0.1,3.25-0.365,6.217-0.609,8.846c-0.224,2.63-0.449,4.921-0.66,6.807C379.09,405.933,378.785,408.082,378.785,408.082z" style="opacity:0.4;fill:#3D853C;"/>
		<path d="M373.503,434.177c-9.5-20.75-27.25-37.656-31-50.328c-3.75-12.672-3.731-25.814-5.366-42.993&#10;&#9;&#9;&#9;s-0.634-38.679,1.616-38.179s8.357,23.25,13.303,33.25c4.947,10,14.829,30.27,19.447,47.922c4.618,17.652,7.5,50.328,7.5,50.328&#10;&#9;&#9;&#9;H373.503z" style="fill:#3D853C;"/>
		<path d="M361.896,410.36c-0.716-4.144-1.478-8.42-2.302-12.756&#10;&#9;&#9;&#9;c-0.807-4.344-1.625-8.754-2.445-13.166c-0.813-4.412-1.607-8.826-2.551-13.147c-0.893-4.326-1.772-8.584-2.623-12.705&#10;&#9;&#9;&#9;c-0.933-4.104-1.793-8.078-2.569-11.858c-0.384-1.891-0.868-3.708-1.28-5.477c-0.424-1.768-0.836-3.482-1.268-5.102&#10;&#9;&#9;&#9;c-3.532-12.986-6.469-21.482-6.469-21.482c-0.001,0,1.859,8.796,5.523,21.746c0.827,3.264,1.86,6.742,2.818,10.477&#10;&#9;&#9;&#9;c0.916,3.74,1.84,7.699,2.754,11.803c0.854,4.115,1.703,8.377,2.55,12.707c0.885,4.324,1.632,8.748,2.415,13.165&#10;&#9;&#9;&#9;c0.783,4.417,1.566,8.833,2.338,13.179c0.784,4.349,1.606,8.619,2.424,12.746c0.284,1.415,0.556,2.809,0.833,4.188&#10;&#9;&#9;&#9;c0.274,0.396,0.548,0.793,0.821,1.193C362.534,414.067,362.21,412.231,361.896,410.36z" style="opacity:0.4;fill:#3D853C;"/>
		<path d="M371.67,434.177c-12.917-3-22.167-5.25-33.167-10.25s-12.557-4.5-21.528-9.5&#10;&#9;&#9;&#9;c-8.972-5-20.722-11.215-17.722-11.607c3-0.393,16.25-1.893,25.75-2.143s21.946,3.869,36.16,10.5&#10;&#9;&#9;&#9;c14.213,6.631,20.841,23,20.841,23H371.67z" style="fill:#3D853C;"/>
		<path d="M382.004,434.177c8-1,24.166-9.445,29.166-13.473s8.5-6.861,12.834-12.694&#10;&#9;&#9;&#9;c4.333-5.833,10.333-6,15.333-11.333c5-5.333,10.667-11.333,11.833-12.5c1.167-1.167-17,1-23,3s-10.666,4.834-17.666,8.167&#10;&#9;&#9;&#9;c-7,3.333-12.334,7.838-19,13.669c-6.667,5.831-14.167,25.164-14.167,25.164H382.004z" style="fill:#3D853C;"/>
		<path d="M374.843,434.177c0,0-5.781-2.5-11.061-15.5c-5.279-13-4.279-31.361-6.029-41.306&#10;&#9;&#9;&#9;s-3.105-17.915-3.053-29.93c0.053-12.015-0.697-21.03-1.697-34.397c-1-13.367-1.5-31.785,0-31.451&#10;&#9;&#9;&#9;c1.5,0.334,13.25,22.922,17,35.878c3.75,12.956,9.5,27.81,10.25,42.758c0.75,14.948,3.062,19.471,4,33.698&#10;&#9;&#9;&#9;c1.5,22.75-5.25,40.25-5.25,40.25H374.843z" style="fill:#6BB551;"/>
		<path d="M384.846,397.936c-0.039-1.064-0.111-2.143-0.074-3.238c0-0.283,0.012-0.527,0.004-0.845&#10;&#9;&#9;&#9;l-0.061-0.829c-0.027-0.555-0.094-1.11-0.174-1.667c-0.295-2.227-0.598-4.501-0.904-6.813c-0.877-4.583-1.543-9.341-2.232-14.156&#10;&#9;&#9;&#9;c-0.417-4.867-0.84-9.813-1.262-14.758c-0.079-1.244-0.286-2.471-0.436-3.707c-0.146-1.235-0.117-2.507-0.313-3.735&#10;&#9;&#9;&#9;c-0.411-2.456-1.258-4.805-1.98-7.142c-0.631-2.365-1.23-4.718-1.999-6.99c-0.382-1.137-0.819-2.247-1.135-3.386&#10;&#9;&#9;&#9;c-0.318-1.138-0.634-2.268-0.947-3.39c-0.645-2.233-1.207-4.447-1.756-6.62c-0.588-2.156-0.726-4.403-1.599-6.403&#10;&#9;&#9;&#9;c-0.869-1.985-2.131-3.729-2.79-5.626c-0.786-1.85-1.418-3.688-2.09-5.431c-1.244-3.533-2.938-6.512-3.725-9.508&#10;&#9;&#9;&#9;c-1.346-2.728-3.072-4.816-4.206-6.676c-1.126-1.871-1.772-3.454-2.077-4.723c-0.166-0.664-1.799-1.991-1.799-1.991&#10;&#9;&#9;&#9;c0.025,0.021-0.371-0.133-0.913,0.103c-0.531,0.253-0.732,0.659-0.837,0.913c-0.197,0.532-0.228,1.028-0.25,1.663&#10;&#9;&#9;&#9;c-0.038,0.625-0.046,1.361-0.025,2.218c-0.003,0.855,0,1.827,0.033,2.913c0.034,2.17-0.038,4.794-0.004,7.804&#10;&#9;&#9;&#9;c0.014,0.752,0,1.529,0.048,2.327c0.057,0.797,0.116,1.617,0.176,2.459c0.142,1.681,0.291,3.448,0.447,5.293&#10;&#9;&#9;&#9;c0.225,3.69,0.471,7.692,0.907,11.898c0.26,2.102,0.213,4.285,0.417,6.494c0.211,2.21,0.427,4.468,0.647,6.765&#10;&#9;&#9;&#9;c0.194,2.296,0.29,4.639,0.396,7.008c0.087,2.372,0.071,4.778,0.094,7.2c-0.002,2.422,0.078,4.863,0.126,7.322&#10;&#9;&#9;&#9;c0.043,1.228,0.02,2.461,0.118,3.689l0.31,3.686c0.127,1.228,0.128,2.468,0.265,3.693c0.102,1.228,0.105,2.473,0.194,3.705&#10;&#9;&#9;&#9;c0.056,0.614,0.131,1.226,0.246,1.83c0.089,0.608,0.213,1.209,0.372,1.801c0.303,1.186,0.601,2.369,0.847,3.557&#10;&#9;&#9;&#9;c0.201,1.193,0.436,2.382,0.607,3.564c0.21,1.172,0.268,2.362,0.487,3.528c0.431,2.339,0.46,4.692,0.557,6.996&#10;&#9;&#9;&#9;c0.112,2.305,0.107,4.58,0.197,6.807c0.096,2.223-0.155,4.444,0.268,6.544c0.429,2.101,1.293,4.061,1.543,6.039&#10;&#9;&#9;&#9;c0.203,0.978,0.396,1.941,0.539,2.898c0.19,0.949,0.375,1.881,0.557,2.793c0.228,0.913,0.452,1.806,0.671,2.68&#10;&#9;&#9;&#9;c0.289,0.842,0.572,1.666,0.848,2.468c0.305,0.795,0.652,1.548,0.902,2.321c0.238,0.778,0.372,1.589,0.682,2.289&#10;&#9;&#9;&#9;c0.342,0.688,0.761,1.31,1.166,1.903c0.415,0.589,0.774,1.176,1.19,1.697c0.441,0.503,0.864,0.984,1.268,1.445&#10;&#9;&#9;&#9;c0.395,0.462,0.717,0.939,1.126,1.315c0.746,0.809,1.293,1.618,1.861,2.275c0.282,0.326,0.503,0.675,0.712,0.997&#10;&#9;&#9;&#9;c0.222,0.324,0.424,0.62,0.605,0.884c0.309,0.575,0.678,1.064,0.927,1.443c0.259,0.374,0.278,0.521,0.299,0.529l1.945-3.944&#10;&#9;&#9;&#9;c0,0-0.025-0.035-0.076-0.104c-0.051-0.07-0.141-0.182-0.161-0.273c-0.073-0.215-0.173-0.398-0.497-0.815&#10;&#9;&#9;&#9;c-0.163-0.17-0.322-0.352-0.538-0.556c-0.207-0.219-0.433-0.456-0.723-0.668c-0.572-0.41-1.219-1.018-2.08-1.567&#10;&#9;&#9;&#9;c-0.467-0.247-0.876-0.619-1.357-0.963c-0.486-0.358-0.994-0.733-1.524-1.124c-0.505-0.424-0.975-0.917-1.441-1.444&#10;&#9;&#9;&#9;c-0.23-0.266-0.506-0.517-0.622-0.86c-0.128-0.338-0.148-0.736-0.263-1.09c-0.449-1.425-1.214-2.786-2.167-4.193&#10;&#9;&#9;&#9;c-0.202-0.327-0.41-0.738-0.618-1.111c-0.192-0.389-0.363-0.791-0.55-1.193c-0.28-0.828-0.532-1.684-0.81-2.555&#10;&#9;&#9;&#9;c-0.231-0.887-0.495-1.789-0.661-2.73c-0.147-0.943-0.297-1.906-0.449-2.885c-0.135-0.98-0.205-1.99-0.147-3.028&#10;&#9;&#9;&#9;c0.053-1.039,0.124-2.087,0.055-3.133c0.015-2.101-1.402-4.136-1.5-6.36c-0.284-2.202-0.421-4.467-0.53-6.772&#10;&#9;&#9;&#9;c-0.064-1.153-0.128-2.317-0.192-3.487c-0.072-1.172-0.248-2.346-0.315-3.535c-0.031-0.596-0.06-1.195-0.03-1.805&#10;&#9;&#9;&#9;c0.008-0.606,0.009-1.221,0.047-1.846c0.049-1.241,0.075-2.457-0.115-3.658c-0.306-2.406-1.615-4.664-1.763-7.107&#10;&#9;&#9;&#9;c-0.109-1.217-0.134-2.445-0.215-3.665c-0.062-0.608-0.029-1.225-0.081-1.832c-0.052-0.607-0.143-1.211-0.291-1.811&#10;&#9;&#9;&#9;c-0.3-1.198-0.798-2.391-0.938-3.611c-0.15-1.219-0.038-2.452,0.049-3.677l0.14-1.833c0.033-0.609,0.022-1.217,0.035-1.823&#10;&#9;&#9;&#9;c-0.019-1.207-0.099-2.449-0.131-3.65c-0.216-4.843-0.793-9.609-0.941-14.225c-0.076-2.309-0.149-4.579-0.222-6.802&#10;&#9;&#9;&#9;c-0.072-2.224-0.299-4.386-0.106-6.521c0.078-1.066,0.164-2.119,0.152-3.149c-0.027-1.028-0.117-2.039-0.269-3.019&#10;&#9;&#9;&#9;c-0.324-1.966-0.768-3.862-0.965-5.698c-0.106-0.917-0.158-1.818-0.232-2.698c-0.074-0.88-0.133-1.74-0.138-2.581&#10;&#9;&#9;&#9;c-0.04-1.682,0.031-3.279,0.158-4.779c0.128-1.5,0.354-2.902,0.515-4.192c0.103-0.646,0.147-1.263,0.198-1.851&#10;&#9;&#9;&#9;c0.044-0.589,0.126-1.148,0.144-1.678c0.008-0.256,0.02-0.48,0.031-0.721c0.274,0.318,0.57,0.646,0.901,0.986&#10;&#9;&#9;&#9;c0.813,0.78,1.712,1.645,2.692,2.584c0.483,0.48,0.96,0.998,1.408,1.559c0.222,0.282,0.489,0.549,0.593,0.904&#10;&#9;&#9;&#9;c0.119,0.349,0.12,0.762,0.225,1.13c0.509,1.428,1.329,2.807,2.306,4.216c0.236,0.356,0.476,0.718,0.718,1.083&#10;&#9;&#9;&#9;c0.224,0.374,0.43,0.763,0.645,1.153c0.373,0.807,0.754,1.633,1.145,2.476c0.807,1.675,1.44,3.509,2.108,5.395&#10;&#9;&#9;&#9;c0.763,1.853,0.854,4.024,1.399,6.052c0.267,1.023,0.728,1.966,1.316,2.939c0.272,0.489,0.598,0.967,0.834,1.473&#10;&#9;&#9;&#9;c0.253,0.503,0.44,1.027,0.617,1.559c0.735,2.115,1.438,4.295,2.08,6.532c0.326,1.115,0.655,2.24,0.987,3.373&#10;&#9;&#9;&#9;c0.34,1.13,0.757,2.245,1.043,3.407c0.142,0.581,0.262,1.17,0.337,1.773c0.103,0.596,0.17,1.202,0.214,1.816&#10;&#9;&#9;&#9;c0.111,1.222,0.153,2.457,0.456,3.63c0.55,2.353,1.888,4.547,2.261,6.986c0.353,2.438,0.238,4.93,0.869,7.313&#10;&#9;&#9;&#9;c0.303,1.195,0.805,2.39,0.948,3.618c0.164,1.246,0.169,2.476,0.143,3.722c-0.125,2.492,0.103,4.939,0.462,7.365&#10;&#9;&#9;&#9;c0.923,4.86,2.04,9.535,2.686,14.137c0.201,2.315,0.325,4.598,0.476,6.824c0.032,0.557,0.071,1.109,0.128,1.658l0.075,0.821&#10;&#9;&#9;&#9;c0.011,0.237-0.003,0.539-0.004,0.805c0.01,1.094-0.095,2.177-0.21,3.246c-0.13,1.069-0.269,2.125-0.308,3.161&#10;&#9;&#9;&#9;c0.011,1.045-0.064,2.036-0.028,3.022c0.077,1.969,0.319,3.901,0.302,5.755c-0.054,0.925-0.155,1.826-0.229,2.711&#10;&#9;&#9;&#9;c-0.073,0.884-0.153,1.748-0.283,2.583c-0.183,1.681-0.674,3.227-1.077,4.679c-0.422,1.449-0.908,2.781-1.395,3.995&#10;&#9;&#9;&#9;c-0.48,1.216-0.799,2.355-1.131,3.371c-0.303,1.022-0.572,1.934-0.808,2.728c-0.169,0.814-0.382,1.476-0.517,2.029&#10;&#9;&#9;&#9;c-0.112,0.562-0.198,0.995-0.266,1.266c-0.049,0.285-0.074,0.433-0.074,0.433l2.467,0.951c0,0,0.172-0.653,0.383-1.818&#10;&#9;&#9;&#9;c0.262-1.149,0.646-2.835,1.134-4.981c0.249-1.065,0.482-2.254,0.815-3.529c0.361-1.27,0.624-2.671,0.912-4.167&#10;&#9;&#9;&#9;c0.722-2.971,0.792-6.436,1.15-10.153C384.779,406.261,385.205,402.183,384.846,397.936z" style="fill:#A0F084;"/>
		<path d="M375.176,426.022c0,0-0.423-2.129-1.023-5.873c-0.314-1.871-0.666-4.146-1.035-6.76&#10;&#9;&#9;&#9;c-0.389-2.611-0.817-5.559-1.096-8.799c-0.159-1.618-0.325-3.303-0.496-5.047c-0.188-1.742-0.433-3.536-0.657-5.384&#10;&#9;&#9;&#9;c-0.449-3.696-0.995-7.585-1.523-11.612c-0.538-4.027-1.07-8.191-1.56-12.428c-0.473-4.239-1.04-8.535-1.449-12.85&#10;&#9;&#9;&#9;c-0.431-4.311-0.861-8.621-1.285-12.864c-0.442-4.24-0.876-8.414-1.297-12.453c-0.196-2.021-0.486-3.995-0.737-5.933&#10;&#9;&#9;&#9;c-0.251-1.936-0.509-3.83-0.778-5.67c-0.311-1.832-0.675-3.599-0.988-5.314c-0.161-0.857-0.32-1.699-0.476-2.525&#10;&#9;&#9;&#9;c-0.134-0.805-0.39-1.619-0.573-2.403c-0.798-3.151-1.5-6.045-2.221-8.572c-0.68-2.546-1.273-4.766-1.761-6.594&#10;&#9;&#9;&#9;c-0.516-1.823-0.851-3.278-1.128-4.255c-0.254-0.984-0.39-1.51-0.39-1.51s0.81,2.015,2.032,5.607&#10;&#9;&#9;&#9;c0.626,1.79,1.343,3.982,2.107,6.52c0.379,1.268,0.813,2.613,1.185,4.047c0.359,1.436,0.736,2.946,1.13,4.522&#10;&#9;&#9;&#9;c0.18,0.799,0.431,1.57,0.563,2.437c0.13,0.838,0.263,1.693,0.398,2.563c0.263,1.739,0.567,3.533,0.809,5.382&#10;&#9;&#9;&#9;c0.378,3.709,0.86,7.608,1.326,11.644c0.891,8.074,1.841,16.687,2.791,25.299c0.446,4.309,1.048,8.599,1.557,12.832&#10;&#9;&#9;&#9;c0.532,4.23,1.004,8.398,1.44,12.436c0.444,4.037,0.839,7.943,1.282,11.639c0.419,3.699,0.833,7.194,1.411,10.395&#10;&#9;&#9;&#9;c0.561,3.203,0.902,6.162,1.196,8.786c0.314,2.621,0.557,4.91,0.733,6.799C375.039,423.856,375.176,426.022,375.176,426.022z" style="opacity:0.4;fill:#3D853C;"/>
		<path d="M384.254,393.927c-0.902-13.689-3.076-18.398-3.908-32.051&#10;&#9;&#9;&#9;c-0.473,1.205-0.98,2.383-1.563,3.509c-5.635,10.902-5.996,26.527-8.057,37.948c-0.06,0.33-0.108,0.667-0.15,1.01&#10;&#9;&#9;&#9;c-0.178-0.416-0.359-0.824-0.545-1.214c-4.993-10.478-6.004-12.259-8.841-17.804c-1.182-2.309-2.266-4.576-3.304-7.082&#10;&#9;&#9;&#9;c1.559,10.113,0.764,27.795,5.896,40.434c4.228,10.412,8.775,14.086,10.419,15.137l3.047,0.353c0.001,0.001,0.005,0.01,0.005,0.01&#10;&#9;&#9;&#9;l0.043-0.005l0.04,0.005c0,0-0.001-0.008-0.001-0.009l1.739-0.184C379.791,432.036,385.662,415.3,384.254,393.927z" style="opacity:0.3;fill:#3D853C;"/>
		<path d="M379.004,434.177c0,0-6.5-20.215-3.25-31.357c3.25-11.143,5.25-26.643,12-36.893&#10;&#9;&#9;&#9;s8.25-25.211,15-35.355s10-14.895,15.5-25.145s13.5-20.5,13.75-19s-3.5,18-4.25,24.5s-1,24.18-5.5,41.465&#10;&#9;&#9;&#9;s-9.25,20.643-11.5,32.589s-11.25,26.571-16.625,35.821s-12.125,13.375-12.125,13.375H379.004z" style="fill:#6BB551;"/>
		<path d="M432.002,286.427l1.045-0.174c-0.01,0.017-0.014-0.275-0.336-0.657&#10;&#9;&#9;&#9;c-0.694-0.626-1.424-0.222-1.547-0.134c-0.482,0.308-0.776,0.672-1.191,1.17c-0.41,0.482-0.873,1.077-1.389,1.791&#10;&#9;&#9;&#9;c-0.529,0.701-1.125,1.509-1.766,2.43c-1.338,1.799-2.91,4.014-4.635,6.609c-1.764,2.563-3.361,5.742-5.107,9.121&#10;&#9;&#9;&#9;c-0.922,1.666-1.883,3.401-2.877,5.197c-1.039,1.77-2.112,3.599-3.217,5.479c-1.076,1.9-2.469,3.673-3.658,5.631&#10;&#9;&#9;&#9;c-1.221,1.944-2.469,3.93-3.736,5.949c-1.283,2.001-2.566,4.097-3.633,6.314c-1.09,2.212-1.982,4.541-2.84,6.897&#10;&#9;&#9;&#9;c-1.707,4.717-3.118,9.611-4.953,14.343c-0.434,1.192-0.986,2.336-1.507,3.486c-0.278,0.567-0.612,1.107-0.913,1.66l-0.984,1.591&#10;&#9;&#9;&#9;c-0.625,1.068-1.307,2.164-1.879,3.275c-0.637,1.111-1.161,2.27-1.696,3.412c-1.074,2.278-2.061,4.577-2.81,6.925&#10;&#9;&#9;&#9;c-0.348,1.18-0.692,2.353-1.036,3.518c-0.392,1.148-0.738,2.303-1.09,3.444c-0.679,2.291-1.313,4.556-1.9,6.775&#10;&#9;&#9;&#9;c-0.604,2.218-1.448,4.325-1.817,6.477c-0.413,4.353-1.866,8.332-2.03,12.214c-0.341,3.864,0.271,7.358,0.24,10.518&#10;&#9;&#9;&#9;c0.476,3.102,1.481,5.675,2.061,7.828c0.576,2.157,0.847,3.896,0.819,5.156c-0.017,0.631-0.058,1.127-0.114,1.48&#10;&#9;&#9;&#9;c-0.049,0.352-0.103,0.529-0.103,0.529l1.603-0.506v1.058c1-0.101,2-0.208,3-0.259l0.276-0.015l0.14-0.103&#10;&#9;&#9;&#9;c1.426-1.056,2.636-2.179,3.896-3.314c0.619-0.571,1.209-1.173,1.814-1.759c0.597-0.595,1.128-1.248,1.704-1.863&#10;&#9;&#9;&#9;c0.583-0.605,1.094-1.286,1.614-1.956c0.501-0.678,1.098-1.321,1.489-2.048l1.284-2.133l0.321-0.533l0.166-0.291l0.149-0.273&#10;&#9;&#9;&#9;l0.595-1.093c1.555-2.932,3.311-5.754,4.904-8.672c0.814-1.449,1.568-2.931,2.321-4.414c0.741-1.488,1.569-2.931,2.306-4.426&#10;&#9;&#9;&#9;c0.738-1.492,1.407-3.017,2.001-4.575c0.6-1.554,1.273-3.075,1.74-4.685c1.153-3.145,1.887-6.37,2.65-9.607&#10;&#9;&#9;&#9;c0.192-0.803,0.365-1.611,0.571-2.41l0.766-2.357l0.389-1.176l0.464-1.149c0.314-0.766,0.61-1.537,0.938-2.297&#10;&#9;&#9;&#9;c1.336-3.03,2.762-6.033,3.994-9.124c1.169-3.092,2.873-6.094,3.422-9.381l0.566-2.427c0.105-0.398,0.166-0.833,0.248-1.232&#10;&#9;&#9;&#9;l0.277-1.217c0.355-1.624,0.763-3.237,1.103-4.864c0.249-1.646,0.45-3.297,0.771-4.927c0.364-1.623,0.581-3.271,0.879-4.907&#10;&#9;&#9;&#9;l0.414-2.46l0.343-2.471c0.201-1.649,0.595-3.281,0.813-4.932c0.215-1.651,0.209-3.323,0.105-4.995&#10;&#9;&#9;&#9;c-0.123-1.674,0.014-3.329,0.133-4.979c0.131-1.65,0.357-3.295,0.577-4.94c0.275-1.605,0.583-3.242,0.89-4.863&#10;&#9;&#9;&#9;c0.182-0.809,0.326-1.623,0.545-2.425c0.225-0.801,0.564-1.579,0.721-2.392c0.189-0.808,0.275-1.635,0.38-2.459&#10;&#9;&#9;&#9;c0.102-0.825,0.208-1.648,0.278-2.48c0.158-1.659,0.348-3.314,0.736-4.931c0.178-0.813,0.43-1.611,0.746-2.408&#10;&#9;&#9;&#9;c0.17-0.396,0.342-0.803,0.558-1.203c0.221-0.473,0.438-1.096,0.679-1.465L432.002,286.427z M429.184,299.809&#10;&#9;&#9;&#9;c-0.107,0.401-0.323,0.782-0.475,1.177c-0.473,1.6-0.646,3.262-0.721,4.938c-0.024,1.686-0.315,3.313-0.505,4.984l-0.206,2.479&#10;&#9;&#9;&#9;l-0.272,2.478c-0.169,1.656-0.335,3.307-0.745,4.938c-0.359,1.636-0.721,3.26-0.623,4.93c0.066,0.836,0.17,1.677,0.225,2.514&#10;&#9;&#9;&#9;c0.053,0.838-0.037,1.661-0.102,2.487c-0.074,0.825-0.122,1.653-0.217,2.478l-0.348,2.46c-0.27,1.635-0.459,3.282-0.795,4.904&#10;&#9;&#9;&#9;c-0.316,1.624-0.494,3.276-0.936,4.877c-0.459,1.596-1.207,3.12-1.707,4.691l-0.352,1.184l-0.279,1.176&#10;&#9;&#9;&#9;c-0.201,0.806-0.31,1.638-0.456,2.458c-0.335,3.379-2.015,6.279-3.228,9.323c-0.594,1.529-0.798,3.235-1.4,4.784&#10;&#9;&#9;&#9;c-0.265,0.79-0.676,1.512-1.01,2.273l-1.18,2.205c-0.402,0.733-0.744,1.501-1.068,2.272c-0.165,0.385-0.344,0.766-0.483,1.16&#10;&#9;&#9;&#9;l-0.372,1.205l-0.727,2.412c-0.176,0.821-0.316,1.65-0.476,2.473c-0.624,3.245-1.156,6.557-2.381,9.626&#10;&#9;&#9;&#9;c-0.519,1.567-1.214,3.075-1.895,4.583c-0.652,1.521-1.447,2.977-2.188,4.456c-0.361,0.744-0.725,1.486-1.129,2.209&#10;&#9;&#9;&#9;c-0.401,0.725-0.878,1.409-1.326,2.107c-0.951,1.367-1.877,2.741-2.674,4.19c-0.779,1.457-1.453,2.977-2.144,4.493&#10;&#9;&#9;&#9;c-0.69,1.514-1.472,2.979-2.29,4.423c-0.752,1.487-1.719,2.809-2.652,4.193c-0.435,0.714-1.044,1.274-1.572,1.9&#10;&#9;&#9;&#9;c-0.533,0.618-1.084,1.214-1.721,1.745c-1.198,1.122-2.473,2.135-3.696,3.178c-0.661,0.461-1.224,1.043-1.868,1.508l-1.629,1.226&#10;&#9;&#9;&#9;c-0.262,0.008-0.522,0.023-0.783,0.042c-0.002-0.297-0.025-0.67-0.09-1.158c-0.163-1.164-0.677-2.788-1.631-4.809&#10;&#9;&#9;&#9;c-0.502-1.005-1.076-2.121-1.674-3.355c-0.293-0.618-0.58-1.269-0.81-1.959c-0.117-0.344-0.276-0.689-0.284-1.065&#10;&#9;&#9;&#9;c-0.02-0.376,0.051-0.771,0.061-1.159c-0.096-1.54-0.4-3.138-0.78-4.836c-0.167-0.85-0.343-1.729-0.396-2.635&#10;&#9;&#9;&#9;c-0.01-0.905-0.089-1.836-0.031-2.78c0.043-0.944,0.025-1.918,0.232-2.884c0.088-0.482,0.134-0.978,0.257-1.461&#10;&#9;&#9;&#9;c0.127-0.48,0.256-0.963,0.385-1.451c0.524-1.966,1.604-3.907,2.229-6.018c0.723-2.085,0.281-4.495,0.869-6.713&#10;&#9;&#9;&#9;c0.441-2.253,1.012-4.525,1.659-6.816c0.331-1.143,0.656-2.299,1.027-3.447c0.341-1.158,0.688-2.323,1.099-3.475&#10;&#9;&#9;&#9;c0.227-0.568,0.477-1.13,0.76-1.679c0.252-0.56,0.57-1.095,0.898-1.622c0.33-0.527,0.614-1.074,0.963-1.587&#10;&#9;&#9;&#9;c0.316-0.527,0.588-1.075,0.889-1.609c0.611-1.056,1.02-2.226,1.566-3.338c0.515-1.185,1.119-2.266,1.755-3.393&#10;&#9;&#9;&#9;c0.315-0.563,0.676-1.108,1.001-1.669l0.932-1.697c0.577-1.149,1.17-2.307,1.438-3.578c0.34-1.246,0.449-2.56,0.857-3.766&#10;&#9;&#9;&#9;c0.389-1.211,0.836-2.402,1.338-3.57c1.063-2.319,1.772-4.737,2.563-7.1c0.779-2.365,1.54-4.722,2.522-6.958&#10;&#9;&#9;&#9;c0.222-0.571,0.509-1.107,0.78-1.649c0.277-0.539,0.53-1.091,0.848-1.603c0.584-1.054,1.281-2.034,1.949-3.022&#10;&#9;&#9;&#9;c1.319-1.986,2.695-3.887,3.999-5.777c1.282-1.908,2.491-3.801,3.88-5.516c1.373-1.729,2.593-3.495,3.523-5.343&#10;&#9;&#9;&#9;c0.882-1.874,1.615-3.746,2.477-5.452c1.694-3.424,3.459-6.429,5.383-8.868c0.948-1.226,1.918-2.311,2.788-3.324&#10;&#9;&#9;&#9;c0.882-1.006,1.638-1.961,2.343-2.803c0.248-0.324,0.482-0.616,0.716-0.909c-0.101,1.601,0.034,3.258,0.124,4.912&#10;&#9;&#9;&#9;c0.057,0.855,0.094,1.709,0.072,2.55C429.246,298.976,429.279,299.404,429.184,299.809z" style="fill:#A0F084;"/>
		<path d="M371.67,434.177c0,0-9.303-6.667-18.167-15.167s-15.167-24.666-19.5-36.833&#10;&#9;&#9;&#9;c-4.333-12.167-6.667-25.833-9.5-36.5c-2.833-10.667-8.666-29-7.333-28.167c1.333,0.833,14.833,11.167,17.833,17.667&#10;&#9;&#9;&#9;s7.478,24.834,10.906,33.5c3.428,8.666,6.304,13.651,9.761,18.833c3.457,5.182,4.667,6.834,10.833,16.667&#10;&#9;&#9;&#9;c6.167,9.833,10.833,30,10.833,30H371.67z" style="fill:#6BB551;"/>
		<path d="M380.254,431.177c0,0,0.579-2.172,1.737-5.924c0.577-1.877,1.308-4.146,2.177-6.739&#10;&#9;&#9;&#9;c0.863-2.596,1.797-5.538,3.083-8.653c0.618-1.566,1.281-3.191,1.911-4.892c0.637-1.699,1.246-3.473,1.9-5.286&#10;&#9;&#9;&#9;c0.64-1.819,1.297-3.688,1.969-5.598c0.676-1.908,1.415-3.841,2.139-5.816c1.461-3.945,2.992-8.016,4.597-12.133&#10;&#9;&#9;&#9;c1.614-4.109,3.255-8.283,4.895-12.457c1.643-4.176,3.316-8.338,4.822-12.486c1.541-4.135,3.045-8.211,4.469-12.166&#10;&#9;&#9;&#9;c1.365-3.977,2.646-7.834,3.821-11.502c1.134-3.684,2.072-7.19,3.073-10.404c3.645-12.956,6.655-21.427,6.656-21.427&#10;&#9;&#9;&#9;c0,0-1.936,8.778-5.713,21.695c-0.479,1.606-1.023,3.285-1.586,5.012c-0.573,1.725-1.111,3.527-1.771,5.34&#10;&#9;&#9;&#9;c-1.315,3.628-2.658,7.467-4.009,11.452c-1.429,3.958-2.903,8.048-4.403,12.203c-1.454,4.176-3.084,8.354-4.697,12.541&#10;&#9;&#9;&#9;c-1.607,4.19-3.215,8.378-4.797,12.502c-1.563,4.128-3.149,8.171-4.705,12.077c-1.576,3.898-3.035,7.692-4.332,11.322&#10;&#9;&#9;&#9;c-0.655,1.813-1.318,3.566-1.913,5.279c-0.6,1.711-1.128,3.384-1.651,4.982c-1.018,3.208-2.034,6.117-2.986,8.68&#10;&#9;&#9;&#9;c-0.922,2.573-1.754,4.806-2.463,6.638C381.105,429.097,380.254,431.177,380.254,431.177z" style="opacity:0.4;fill:#3D853C;"/>
		<path d="M355.67,387.51c-3.457-5.182-6.333-10.167-9.761-18.833c-3.428-8.666-7.906-27-10.906-33.5&#10;&#9;&#9;&#9;s-16.5-16.834-17.833-17.667c0,0,0.298,0.473,0.855,1.359c0.553,0.876,1.4,2.103,2.517,3.577c1.116,1.476,2.517,3.189,4.15,5.056&#10;&#9;&#9;&#9;c0.415,0.461,0.815,0.956,1.263,1.431c0.443,0.48,0.85,1.004,1.346,1.473c0.955,0.963,2.095,1.818,3.332,2.676&#10;&#9;&#9;&#9;c1.23,0.875,2.451,1.83,3.139,3.135c0.383,0.756,0.687,1.559,1.011,2.368c0.278,0.808,0.529,1.626,0.779,2.463&#10;&#9;&#9;&#9;c1.011,3.348,1.674,7.13,2.432,10.969c0.75,3.866,1.737,7.796,3.088,11.758c0.338,0.995,0.639,1.978,1.035,2.987&#10;&#9;&#9;&#9;c0.401,1.02,0.804,2.043,1.207,3.068c0.851,1.898,1.751,3.785,2.649,5.673l1.565,2.861c0.542,0.936,1.012,1.923,1.613,2.808&#10;&#9;&#9;&#9;c1.149,1.809,2.27,3.62,3.496,5.315c1.191,1.693,2.373,3.371,3.54,5.03c1.157,1.648,2.316,3.275,3.349,4.928&#10;&#9;&#9;&#9;c1.043,1.648,2.089,3.257,2.992,4.909c0.452,0.825,0.886,1.648,1.296,2.475c0.199,0.416,0.397,0.83,0.594,1.24l0.147,0.309&#10;&#9;&#9;&#9;c0.02,0.037-0.112-0.182-0.048-0.07l0.016,0.04l0.031,0.079l0.063,0.159l0.249,0.635c0.317,0.85,0.63,1.688,0.939,2.513&#10;&#9;&#9;&#9;c0.353,0.831,0.55,1.619,0.752,2.385c0.22,0.762,0.444,1.499,0.682,2.211c0.123,0.355,0.245,0.707,0.366,1.055&#10;&#9;&#9;&#9;c0.106,0.375,0.231,0.738,0.349,1.1c0.466,1.448,1.019,2.787,1.545,4.078c0.504,1.303,1.021,2.527,1.557,3.666&#10;&#9;&#9;&#9;c1.012,2.3,2.064,4.275,2.963,5.904c0.918,1.624,1.738,2.886,2.342,3.74c0.596,0.857,0.966,1.307,0.966,1.307&#10;&#9;&#9;&#9;s-4.667-20.167-10.833-30C360.337,394.344,359.127,392.691,355.67,387.51z" style="fill:#A0F084;"/>
	</g>
    </g>
</svg>